<?xml version="1.0" encoding="UTF-8" standalone="no"?>
<svg
   xmlns:dc="http://purl.org/dc/elements/1.1/"
   xmlns:cc="http://creativecommons.org/ns#"
   xmlns:rdf="http://www.w3.org/1999/02/22-rdf-syntax-ns#"
   xmlns:svg="http://www.w3.org/2000/svg"
   xmlns="http://www.w3.org/2000/svg"
   xmlns:sodipodi="http://sodipodi.sourceforge.net/DTD/sodipodi-0.dtd"
   xmlns:inkscape="http://www.inkscape.org/namespaces/inkscape"
   version="1.1"
   id="Layer_1"
   x="0px"
   y="0px"
   width="375.64487"
   height="220.23849"
   viewBox="0 0 375.64486 220.2385"
   enable-background="new 0 0 210 181"
   xml:space="preserve"
   sodipodi:docname="1 - Logo - Leituras em Presidente Figueiredo 2021.svg"
   inkscape:version="1.0.2 (1.0.2+r75+1)"
   inkscape:export-filename="/home/user/Dropbox/Quarentena/PPF - Logos/3 - Agentes Culturais/3 - PNG/1 - Logo - Agentes Culturais - Vertical - Colorido (PNG).png"
   inkscape:export-xdpi="96"
   inkscape:export-ydpi="96"><metadata
   id="metadata6579"><rdf:RDF><cc:Work
       rdf:about=""><dc:format>image/svg+xml</dc:format><dc:type
         rdf:resource="http://purl.org/dc/dcmitype/StillImage" /><dc:title></dc:title></cc:Work></rdf:RDF></metadata><defs
   id="defs6577" /><sodipodi:namedview
   pagecolor="#ffffff"
   bordercolor="#666666"
   borderopacity="1"
   objecttolerance="10"
   gridtolerance="10"
   guidetolerance="10"
   inkscape:pageopacity="1"
   inkscape:pageshadow="2"
   inkscape:window-width="1294"
   inkscape:window-height="704"
   id="namedview6575"
   showgrid="false"
   inkscape:zoom="1.6540461"
   inkscape:cx="185.58625"
   inkscape:cy="119.57865"
   inkscape:window-x="72"
   inkscape:window-y="27"
   inkscape:window-maximized="1"
   inkscape:current-layer="layer1"
   inkscape:document-rotation="0"
   showguides="false"
   fit-margin-top="0"
   fit-margin-bottom="0"
   fit-margin-left="15"
   fit-margin-right="15"
   lock-margins="false" />




















































<g
   inkscape:groupmode="layer"
   id="layer1"
   inkscape:label="Logo - Agentes Culturais"
   transform="translate(-345.13858,-451.20911)"><g
     id="g986"><rect
       style="fill:#ffffff;fill-opacity:1;stroke:none;stroke-width:13.9197;stop-color:#000000"
       id="rect78"
       width="375.64487"
       height="220.23801"
       x="345.13858"
       y="451.20935" /><g
       id="g159"
       transform="matrix(0.28546379,0,0,0.28546379,374.88113,411.72227)"><path
         fill="#b02635"
         d="m 348.72607,202.78501 c -17.85724,5.09863 -5.05039,41.18451 7.51528,58.77644 14.36007,20.11471 26.84855,39.56376 47.68199,50.81256 4.58249,2.46972 67.38187,36.35119 67.38187,36.35119 0,0 -18.41196,15.26692 -21.32546,18.3203 -20.53437,21.54252 -29.40992,46.6642 -35.2128,69.93359 -2.4263,9.70523 -2.49866,30.53384 0.1013,46.46643 0.87308,5.30604 7.72752,19.51175 12.26177,25.66675 10.05253,14.13336 19.31398,0.77179 27.08492,-22.5989 2.91832,-8.7839 25.55099,-63.14668 29.43886,-71.62187 8.91415,-19.46352 15.48399,-41.68617 15.48399,-41.68617 l 12.99015,-6.83032 13.76676,-32.34754 c 0,0 -101.76018,-87.17339 -116.72321,-94.3269 -10.52042,-5.03109 -23.25974,-17.17709 -32.75273,-23.27904 -6.8062,-4.37024 -17.5871,-20.22565 -31.32974,-11.97235"
         id="path5028"
         style="stroke-width:4.82367" /><path
         fill="#010002"
         d="m 512.82737,367.02621 -12.94191,6.80137 c -0.90203,2.97138 -7.20657,23.49611 -15.4261,41.44016 -3.7287,8.13754 -26.44337,62.64503 -29.40028,71.53023 -6.155,18.51325 -12.23765,27.97729 -18.58078,28.92273 -3.45857,0.51131 -6.84962,-1.53392 -10.08148,-6.07782 -4.71755,-6.40102 -11.54304,-20.69838 -12.42095,-26.05748 -2.55172,-15.74928 -2.60478,-36.7612 -0.0916,-46.82338 5.54722,-22.20818 14.09477,-47.93764 35.44916,-70.33395 2.5469,-2.67231 16.4246,-14.2636 20.38001,-17.54369 -8.60543,-4.64038 -62.00347,-33.44734 -66.21453,-35.71929 -19.14516,-10.34678 -31.29116,-27.49493 -44.14625,-45.6657 -1.26862,-1.79923 -2.55172,-3.60811 -3.84446,-5.42181 -9.43993,-13.2265 -20.02306,-38.70996 -15.33928,-52.13906 0.93579,-2.68196 2.44078,-4.76096 4.47155,-6.21289 l -0.029,-0.0482 c 0.27013,-0.14953 0.53061,-0.30389 0.80073,-0.44377 0.83932,-0.50167 1.76064,-0.91168 2.75914,-1.22522 9.59911,-3.27045 17.58229,3.96506 23.59258,9.41099 1.95359,1.77028 3.64187,3.29939 5.12756,4.24965 3.77211,2.43596 8.0073,5.75464 12.47884,9.28074 6.83032,5.3784 13.90182,10.93527 20.17742,13.94524 14.90514,7.12456 112.76297,90.89726 116.92097,94.45713 l 0.49684,0.43413 z m -163.8553,-163.38258 -0.0675,0.0145 c -0.8152,0.27495 -1.64005,0.61743 -2.47454,1.06603 -2.12242,1.23486 -3.65152,3.18845 -4.5632,5.81252 -4.50048,12.85991 5.88006,37.5957 15.10292,50.50867 1.29274,1.8137 2.56619,3.62258 3.83964,5.42181 12.7345,17.99229 24.76956,34.98608 43.54329,45.12544 4.57766,2.46972 67.37222,36.34637 67.37222,36.34637 l 1.16732,0.6319 -1.01779,0.84896 c -0.19295,0.14954 -18.40231,15.2621 -21.24827,18.24313 -21.05533,22.09724 -29.5064,47.54693 -35.00056,69.53322 -2.4649,9.87888 -2.41666,30.55314 0.11094,46.10466 0.79108,5.13238 7.50563,19.02456 12.11706,25.30015 2.80738,3.95059 5.62923,5.74982 8.35943,5.34463 3.80587,-0.56437 9.86923,-5.83664 17.14332,-27.71199 2.96656,-8.9045 25.73429,-63.56152 29.47264,-71.71353 8.79355,-19.18856 15.37786,-41.32921 15.44057,-41.56075 l 0.1013,-0.35213 13.05285,-6.86408 13.37604,-31.45516 c -7.73717,-6.61326 -101.87594,-87.00457 -116.03342,-93.777 -6.45889,-3.09197 -13.60275,-8.71638 -20.51025,-14.15265 -4.4426,-3.48752 -8.63919,-6.79173 -12.3486,-9.17463 -1.60628,-1.03226 -3.3428,-2.6096 -5.34945,-4.42813 -5.89452,-5.34462 -13.05285,-11.84211 -21.58593,-9.11191 z"
         id="path5030"
         style="stroke-width:4.82367" /><path
         fill="#010002"
         d="m 470.72637,349.24133 -0.58849,-2.6289 c -0.35695,0.082 -35.33822,7.96388 -42.34701,8.59096 l -0.68979,0.0723 c -7.93012,0.72355 -28.98544,2.66267 -54.94162,-10.81949 l -3.35245,-1.72688 C 350.8726,333.48239 336.71512,326.189 335.1619,306.36854 l -2.67714,0.20259 c 1.65935,21.3158 16.40531,28.91309 35.08739,38.54114 l 3.33316,1.72687 c 26.66525,13.83911 48.28977,11.85658 56.42731,11.10892 l 0.68013,-0.0579 c 7.20175,-0.65119 41.27134,-8.33048 42.71362,-8.64884 z"
         id="path5034"
         style="stroke-width:4.82367" /><path
         fill="#010002"
         d="m 471.62839,347.43245 c -0.19295,-0.0579 -40.99156,-7.82882 -74.09159,-20.78038 -16.42943,-6.4203 -25.51722,-15.19938 -29.49193,-20.36071 C 349.33385,281.9897 331.92039,227.7234 331.46215,225.0945 l -2.66749,-0.1013 c -0.33766,2.7302 15.45986,55.78576 34.05994,79.91376 10.87256,14.10924 22.26124,20.41378 40.51884,26.66044 4.11459,1.40851 66.36407,18.15147 67.6134,18.45536 z"
         id="path5038"
         style="stroke-width:4.82367" /><path
         fill="#010002"
         d="m 471.59463,350.04206 -0.58849,-2.61926 c -5.20957,1.15769 -49.12427,16.83944 -62.7415,29.06263 -22.01523,19.73364 -30.39877,63.59528 -30.2203,68.42378 0.0241,0.32318 0.0482,1.09015 0.6512,1.55322 l 1.62557,-2.13689 -0.81037,1.07086 1.23968,-0.46308 c -0.52578,-3.04856 7.58281,-46.97773 29.29898,-66.45089 13.02391,-11.67811 56.60579,-27.3454 61.54523,-28.44037 z"
         id="path5042"
         style="stroke-width:4.82367" /><ellipse
         transform="rotate(77.455035)"
         fill="#a62934"
         cx="517.20087"
         cy="-279.28882"
         rx="6.6371965"
         ry="5.6097813"
         id="ellipse5046"
         style="stroke-width:4.82354" /><path
         fill="#010002"
         d="m 386.66907,451.97588 c -3.73835,0.8345 -7.56352,-1.9777 -8.51861,-6.28524 -0.95509,-4.29307 1.30239,-8.46072 5.05039,-9.30004 3.73834,-0.82967 7.55869,1.97771 8.5186,6.28042 0.95991,4.30754 -1.30722,8.48002 -5.05038,9.30486 z m -0.58849,-2.62407 c 2.30089,-0.50167 3.65634,-3.23669 3.01479,-6.10195 -0.63672,-2.84114 -3.01479,-4.74649 -5.31086,-4.24 -2.30089,0.50648 -3.65152,3.25115 -3.01962,6.10194 0.6319,2.85079 3.02927,4.76096 5.31569,4.24001 z"
         id="path5048"
         style="stroke-width:4.82367" /><ellipse
         transform="rotate(77.473057)"
         fill="#a62934"
         cx="373.85236"
         cy="-264.58926"
         rx="6.8207126"
         ry="5.6051397"
         id="ellipse5052"
         style="stroke-width:4.8237" /><path
         fill="#010002"
         d="m 341.16737,315.52869 c -3.74317,0.83932 -7.58763,-2.05971 -8.56201,-6.45407 -0.96956,-4.38955 1.27344,-8.64885 5.01179,-9.47852 3.73835,-0.83932 7.57799,2.06453 8.56202,6.45407 0.97438,4.40402 -1.2831,8.64885 -5.0118,9.47852 z m -0.59331,-2.61926 c 2.30572,-0.50648 3.63705,-3.3235 2.97621,-6.27077 -0.6512,-2.95209 -3.04856,-4.92979 -5.35428,-4.42331 -2.29607,0.50649 -3.62258,3.32351 -2.96656,6.2756 0.6512,2.95691 3.05821,4.93944 5.34463,4.41848 z"
         id="path5054"
         style="stroke-width:4.82367" /><path
         fill="#8c182a"
         d="m 450.08105,495.77964 c 0,0 13.80535,-35.83505 19.04386,-47.94247 5.11309,-11.77458 20.10024,-48.39589 20.10024,-48.39589 l 9.32415,-27.13798 12.82615,-6.21289 13.40015,-31.97129 -58.74749,-49.26898 -23.25974,-19.58411 -26.29384,-20.27871 -15.894,-9.12639 -14.53372,-11.2681 -21.7644,-16.93108 c 0,0 -2.71573,-2.70608 -5.36875,-3.81553 -9.16498,-3.83482 -14.88585,2.81703 -14.88585,2.81703 l 33.24957,34.73525 134.24278,96.46379 -8.48967,19.53587 -11.58163,4.2593 -39.84353,86.03018 -14.5096,29.69452 -6.40101,21.71135 -0.8345,12.62837 c 0,0 5.2771,3.76729 8.52343,1.84747 6.48301,-3.79623 11.6974,-17.78971 11.6974,-17.78971 z"
         id="path5058"
         style="stroke-width:4.82367" /><path
         fill="#010002"
         d="m 512.7309,337.60181 -0.70908,-0.47754 c -1.3651,-0.90685 -20.51025,-14.67361 -42.68467,-30.61585 -38.09736,-27.39845 -85.51405,-61.49216 -87.52552,-62.63055 -4.96356,-2.79773 -25.63299,-25.33392 -33.4184,-33.81876 -3.01962,-3.28492 -3.6274,-3.94094 -3.81552,-4.0953 l -1.10462,1.40369 0.54507,-0.70425 -0.57884,0.68013 c 0.20742,0.18813 1.71723,1.84265 3.63223,3.92165 8.57166,9.34827 28.64296,31.2381 33.86217,34.17089 1.92465,1.09015 51.30457,36.59237 87.35669,62.51478 21.22898,15.28139 38.37231,27.60587 42.06724,30.20583 -1.62558,3.3814 -6.86408,15.81682 -8.00247,18.54219 l -11.57199,4.25931 -0.15436,0.32801 c -0.30389,0.67049 -30.50007,66.45572 -34.71596,74.96467 -15.40198,31.16092 -32.33307,69.95289 -25.46899,77.69006 l 1.33616,-1.19145 c -4.77543,-5.38322 4.60661,-32.97944 25.73429,-75.71235 4.06635,-8.21471 32.2366,-69.51875 34.58572,-74.66561 l 11.60093,-4.2593 0.14954,-0.3666 c 3.04856,-7.26445 7.81917,-18.42642 8.42695,-19.40563 z"
         id="path5062"
         style="stroke-width:4.82367" /><path
         fill="#ded428"
         d="m 713.11103,206.21464 c 17.76076,5.40734 4.31719,41.27616 -8.54754,58.63656 -14.70738,19.85905 -27.54317,39.09103 -48.56473,49.97806 -4.62107,2.37807 -68.00412,35.15491 -68.00412,35.15491 0,0 18.14666,15.58529 21.00227,18.68691 20.15812,21.90911 28.5899,47.17068 33.98759,70.54619 2.24783,9.739 1.95359,30.56761 -0.91168,46.45678 -0.96473,5.29157 -8.07482,19.37187 -12.71519,25.44969 -10.29854,13.95489 -19.31881,0.42931 -26.67973,-23.07162 -2.77361,-8.82249 -24.43672,-63.57116 -28.18471,-72.11871 -8.57167,-19.61787 -14.75079,-41.95629 -14.75079,-41.95629 l -12.87438,-7.05221 -13.19274,-32.5839 c 0,0 103.26998,-85.37899 118.35843,-92.27201 10.60243,-4.84779 23.54916,-16.76226 33.16274,-22.69538 6.87855,-4.2593 17.92476,-19.92176 31.52751,-11.42728"
         id="path5068"
         style="stroke-width:4.82367" /><path
         fill="#010002"
         d="m 532.59478,334.07088 0.50166,-0.41483 c 4.23036,-3.48752 103.53046,-85.53817 118.56102,-92.40226 6.33348,-2.8942 13.48699,-8.32565 20.41378,-13.57863 4.53425,-3.4441 8.81767,-6.69526 12.63802,-9.05403 1.50498,-0.92615 3.21739,-2.42631 5.19027,-4.16765 6.11641,-5.33016 14.22018,-12.42578 23.75658,-8.9865 1.00332,0.32318 1.915,0.74766 2.74467,1.2638 0.2653,0.14471 0.52578,0.30389 0.78626,0.46789 l -0.0241,0.0482 c 2.00182,1.48569 3.46339,3.58399 4.35577,6.28524 4.45708,13.51111 -6.56984,38.80162 -16.2413,51.86412 -1.32651,1.78958 -2.64337,3.57434 -3.93611,5.34463 -13.16863,17.93923 -25.61852,34.87997 -44.93733,44.89391 -4.2593,2.19477 -58.14936,30.06112 -66.82714,34.55196 3.88788,3.3428 17.56299,15.17527 20.06165,17.89582 20.95403,22.77738 29.04332,48.64673 34.20948,70.94174 2.32983,10.12006 1.91982,31.10785 -0.9165,46.81855 -0.95991,5.33981 -8.05071,19.52622 -12.86956,25.83559 -3.31386,4.48601 -6.73867,6.47819 -10.18277,5.89452 -6.33348,-1.0612 -12.23765,-10.6169 -18.0743,-29.23627 -2.78808,-8.93826 -24.55248,-63.83165 -28.13647,-72.04636 -7.906,-18.08877 -13.84876,-38.70996 -14.69773,-41.70064 l -12.82132,-7.03291 z M 712.84573,207.07326 c -8.48001,-2.88456 -15.75893,3.49716 -21.75476,8.73567 -2.04041,1.77993 -3.80105,3.31868 -5.43145,4.33165 -3.74799,2.31054 -8.00247,5.5424 -12.49813,8.95756 -7.0088,5.31569 -14.2443,10.81467 -20.75626,13.78123 -14.28289,6.53125 -109.80606,85.26322 -117.66382,91.73659 l 12.82614,31.68187 12.92744,7.08115 0.1013,0.3666 c 0.0627,0.22189 6.26112,22.49278 14.72184,41.83088 3.59364,8.21954 25.39663,63.24798 28.21366,72.21518 6.88338,21.99595 12.85991,27.37916 16.65131,28.01107 2.72055,0.46307 5.57134,-1.29757 8.45108,-5.20475 4.72237,-6.17912 11.67328,-19.97 12.55119,-25.07344 2.80255,-15.5081 3.21739,-36.19201 0.92614,-46.10465 -5.10826,-22.0683 -13.11074,-47.67235 -33.78017,-70.13619 -2.78808,-3.02444 -20.73696,-18.46019 -20.91544,-18.6049 l -1.00814,-0.87308 1.17697,-0.60778 c 0,0 63.37822,-32.77203 67.99447,-35.16457 18.95703,-9.81135 31.27669,-26.5929 44.32955,-44.35366 1.30239,-1.77993 2.6096,-3.55987 3.93611,-5.34945 9.43993,-12.74896 20.24977,-37.29663 15.98565,-50.24336 -0.88273,-2.63855 -2.37325,-4.61626 -4.46672,-5.88488 -0.82967,-0.4679 -1.6497,-0.82967 -2.46007,-1.10462 z"
         id="path5070"
         style="stroke-width:4.82367" /><path
         fill="#010002"
         d="m 588.55419,350.50031 0.63672,-2.60479 c 0.35213,0.0917 35.19351,8.58614 42.19266,9.33381 l 0.68978,0.0868 c 7.91565,0.86827 28.93238,3.16916 55.12974,-9.8644 l 3.3814,-1.66899 c 18.09359,-8.92862 32.37166,-15.98083 34.26736,-35.7627 l 2.66749,0.25565 c -2.02594,21.27722 -16.90697,28.61402 -35.75788,37.91406 l -3.36209,1.66416 c -26.90162,13.37605 -48.48755,11.01245 -56.61544,10.12489 l -0.68013,-0.0723 c -7.17763,-0.77661 -41.10251,-9.04439 -42.54961,-9.40616 z"
         id="path5074"
         style="stroke-width:4.82367" /><path
         fill="#010002"
         d="m 587.69558,348.68178 c 0.19294,-0.0482 41.11697,-7.10527 74.44854,-19.47316 16.54037,-6.13089 25.7777,-14.75079 29.84888,-19.83976 19.12586,-23.95918 37.48958,-77.92159 37.98641,-80.54567 l 2.67714,-0.0482 c 0.28942,2.73502 -16.43907,55.50598 -35.45398,79.3108 -11.11857,13.90665 -22.61338,20.01824 -40.98674,25.94653 -4.13389,1.33616 -66.66796,16.98415 -67.9173,17.26875 z"
         id="path5078"
         style="stroke-width:4.82367" /><path
         fill="#010002"
         d="m 587.67628,351.29139 0.6319,-2.59996 c 5.1951,1.24451 48.83003,17.69323 62.23019,30.14795 21.65828,20.12435 29.27968,64.13071 29.00956,68.94956 -0.0241,0.31836 -0.0675,1.09497 -0.68014,1.53392 l -1.59181,-2.15618 0.80073,1.08533 -1.22039,-0.48719 c 0.55955,-3.03891 -6.76761,-47.10315 -28.1413,-66.95256 -12.8165,-11.9 -56.11377,-28.32942 -61.03874,-29.52087 z"
         id="path5082"
         style="stroke-width:4.82367" /><ellipse
         transform="rotate(103.51512)"
         fill="#ded428"
         cx="277.35556"
         cy="-758.49609"
         rx="6.642139"
         ry="5.6050582"
         id="ellipse5086"
         style="stroke-width:4.82363" /><path
         fill="#010002"
         d="m 665.92106,445.31439 c 1.02744,-4.26895 4.91049,-7.02809 8.62954,-6.12124 3.71906,0.89721 5.92347,5.10345 4.89121,9.37722 -1.04192,4.29307 -4.9105,7.04256 -8.62955,6.13571 -3.7287,-0.89238 -5.92829,-5.10344 -4.8912,-9.39169 z m 10.90632,2.63373 c 0.68496,-2.84597 -0.62226,-5.60511 -2.90385,-6.14536 -2.29607,-0.55472 -4.71755,1.30239 -5.39769,4.14836 -0.68496,2.84114 0.61743,5.59546 2.90867,6.14536 2.29125,0.54989 4.70791,-1.3024 5.39287,-4.14836 z"
         id="path5088"
         style="stroke-width:4.82367" /><ellipse
         transform="rotate(103.5568)"
         fill="#ded428"
         cx="133.53171"
         cy="-773.47211"
         rx="6.820405"
         ry="5.6193571"
         id="ellipse5092"
         style="stroke-width:4.82348" /><path
         fill="#010002"
         d="m 713.85388,309.51839 c 1.04674,-4.37989 4.93944,-7.20656 8.67296,-6.30936 3.71905,0.8972 5.89453,5.19027 4.83814,9.55569 -1.05638,4.38472 -4.94426,7.20657 -8.66331,6.31901 -3.7287,-0.90202 -5.90417,-5.18544 -4.84779,-9.56534 z m 10.89667,2.6289 c 0.70426,-2.93761 -0.57401,-5.77393 -2.86043,-6.32865 -2.29125,-0.5499 -4.72238,1.38921 -5.43628,4.32683 -0.70908,2.93279 0.57402,5.76429 2.87008,6.32383 2.29125,0.55473 4.72238,-1.38439 5.42663,-4.32201 z"
         id="path5094"
         style="stroke-width:4.82367" /><path
         fill="#e2c137"
         d="m 606.62849,497.38593 c 0,0 -13.1638,-36.06177 -18.19972,-48.26566 -4.89602,-11.85658 -19.24645,-48.73838 -19.24645,-48.73838 l -8.83696,-27.29233 -12.72485,-6.44442 -12.83579,-32.19801 59.59646,-48.22707 23.61188,-19.17409 26.63149,-19.82047 16.05318,-8.84661 14.73631,-11.0028 22.049,-16.54519 c 0,0 2.76397,-2.66267 5.44111,-3.72388 9.22768,-3.68046 14.82796,3.07751 14.82796,3.07751 l -33.85252,34.14194 -135.90695,94.10983 8.14236,19.68058 11.49963,4.45708 38.33372,86.71996 13.98865,29.94536 6.01029,21.81264 0.61743,12.63802 c 0,0 -5.32533,3.68046 -8.54755,1.70758 -6.41065,-3.92647 -11.38868,-18.01159 -11.38868,-18.01159 z"
         id="path5098"
         style="stroke-width:4.82367" /><path
         fill="#010002"
         d="m 546.76672,338.14688 0.72355,-0.47272 c 1.36993,-0.88273 20.76109,-14.30701 43.20081,-29.85852 38.57007,-26.72314 86.57043,-59.98718 88.60602,-61.08698 5.00697,-2.71573 26.07194,-24.8805 34.01171,-33.23027 3.07267,-3.22704 3.69493,-3.88306 3.88787,-4.02777 l 1.08051,1.42781 -0.54025,-0.7139 0.57401,0.68978 c -0.21706,0.1833 -1.75581,1.8137 -3.70458,3.86859 -8.74049,9.18909 -29.19286,30.71714 -34.45066,33.5631 -1.95359,1.05639 -51.94129,35.69517 -88.44684,60.98086 -21.49428,14.90997 -38.84985,26.93056 -42.59302,29.46298 1.56769,3.41999 6.58914,15.92777 7.68893,18.67244 l 11.49964,4.46189 0.13988,0.33283 c 0.29907,0.66567 29.33757,66.97668 33.39428,75.558 14.86656,31.44069 31.11268,70.49795 24.11353,78.129 l -1.31686,-1.21074 c 4.87191,-5.30604 -4.03259,-33.06144 -24.40778,-76.1513 -3.92164,-8.28707 -31.00173,-70.08312 -33.26886,-75.26857 l -11.52375,-4.46672 -0.13989,-0.35213 c -2.92314,-7.33198 -7.50081,-18.58078 -8.08447,-19.56963 z"
         id="path5102"
         style="stroke-width:4.82367" /><path
         fill="#d07536"
         d="m 365.28091,175.89787 c 1.33133,-18.5229 39.28398,-13.38569 59.0755,-4.69826 22.62784,9.92712 44.22342,18.16113 59.51928,36.25472 3.34763,3.96506 49.38958,58.48219 49.38958,58.48219 0,0 11.15715,-21.1518 13.55451,-24.62002 16.88285,-24.51872 39.64094,-38.35783 61.22204,-48.81555 9.01062,-4.36543 29.37616,-8.69708 45.51134,-9.43028 5.36875,-0.23636 20.67426,3.55987 27.63482,6.73384 15.88435,6.93644 4.72237,18.74962 -16.55967,31.1368 -8.00247,4.66932 -56.56719,37.9623 -64.068,43.5047 -17.22533,12.72967 -37.61982,23.70834 -37.61982,23.70834 l -4.01812,14.12371 -28.8359,20.10024 c 0,0 -106.20278,-81.71299 -116.2746,-94.89609 -7.07151,-9.25662 -21.56664,-19.2368 -29.49193,-27.28751 -5.68229,-5.75464 -23.4141,-13.05285 -18.14665,-28.204"
         id="path5108"
         style="stroke-width:4.82367" /><path
         fill="#010002"
         d="m 530.06235,323.48292 -0.52096,-0.40036 c -4.3413,-3.33798 -106.40537,-81.93006 -116.4386,-95.05527 -4.23519,-5.52793 -11.11374,-11.30669 -17.78006,-16.8925 -4.37507,-3.65634 -8.48966,-7.11492 -11.64434,-10.31301 -1.24451,-1.25898 -3.0775,-2.59514 -5.20957,-4.13871 -6.56019,-4.76096 -15.28139,-11.09444 -14.05617,-21.16145 0.10129,-1.03709 0.31353,-2.03559 0.6319,-2.95691 0.0916,-0.28942 0.17847,-0.58366 0.28459,-0.87791 l 0.0482,0.029 c 1.00332,-2.28642 2.72055,-4.18695 5.16133,-5.65335 12.18459,-7.34645 39.2888,-2.22371 54.17465,4.31719 2.04042,0.8972 4.06636,1.77511 6.08748,2.64819 20.4186,8.85627 39.69881,17.23016 53.75499,33.84288 3.08715,3.65635 42.23607,50.00701 48.54061,57.47887 2.40701,-4.52942 10.9015,-20.5006 12.99015,-23.54434 17.54851,-25.48828 40.96744,-39.1248 61.56934,-49.11462 9.34345,-4.5246 29.91159,-8.78873 45.85382,-9.5171 5.42181,-0.24601 20.81414,3.51645 28.04483,6.81102 5.11309,2.23818 7.80952,5.13239 8.00729,8.6199 0.37142,6.40101 -7.63105,14.29254 -24.48496,24.11836 -8.09412,4.71273 -56.77943,38.12147 -63.99565,43.44681 -15.8747,11.73117 -34.65808,22.11171 -37.38345,23.5974 l -4.00365,14.061 z M 366.17811,175.96058 c -0.92615,8.91897 6.9075,14.59643 13.34227,19.27056 2.18995,1.60146 4.0953,2.97621 5.43628,4.33166 3.09198,3.13539 7.18245,6.56502 11.51411,10.19242 6.73384,5.65334 13.70887,11.49481 18.055,17.17709 9.5364,12.47402 107.52446,88.11883 115.58964,94.3269 l 28.04,-19.53587 4.02777,-14.17677 0.33283,-0.1833 c 0.20742,-0.1013 20.53919,-11.09927 37.51369,-23.63599 7.21139,-5.32533 56.0173,-38.82573 64.14036,-43.55293 19.91694,-11.60575 23.82894,-18.61937 23.61188,-22.45901 -0.15919,-2.75914 -2.50349,-5.14204 -6.95574,-7.0908 -7.0715,-3.22221 -22.05382,-6.93644 -27.23445,-6.65667 -15.74446,0.70426 -35.99423,4.90568 -45.14956,9.33863 -20.39449,9.8837 -43.55776,23.37551 -60.87474,48.52131 -2.32983,3.39104 -13.38569,24.32095 -13.50145,24.54284 l -0.62226,1.15768 -0.85379,-1.00814 c 0,0 -46.03712,-54.50749 -49.39922,-58.4822 -13.77158,-16.29918 -32.87332,-24.58625 -53.08933,-33.36533 -2.03076,-0.86826 -4.0567,-1.751 -6.10676,-2.64338 -14.5289,-6.37689 -40.86133,-11.46104 -52.52496,-4.4233 -2.3829,1.44228 -3.97471,3.33316 -4.75132,5.65334 -0.2653,0.91168 -0.43413,1.78958 -0.52578,2.6482 -0.01,0.01 -0.0145,0.0289 -0.0145,0.0531 z"
         id="path5110"
         style="stroke-width:4.82367" /><path
         fill="#010002"
         d="m 533.64151,265.27568 -2.68678,-0.0482 c 0.005,-0.36177 0.5499,-36.22577 -0.2846,-43.21527 l -0.0675,-0.68014 c -0.9165,-7.91564 -3.3428,-28.91309 -21.86088,-51.5554 l -2.37807,-2.92314 c -12.72485,-15.65764 -22.7822,-28.02071 -42.48207,-25.46417 l -0.34731,-2.66749 c 21.19039,-2.74949 31.65776,10.13454 44.91321,26.44337 l 2.37324,2.9135 c 19.01009,23.25009 21.50875,44.81673 22.44937,52.94462 l 0.0772,0.68013 c 0.84896,7.16798 0.32318,42.09136 0.29424,43.57223 z"
         id="path5114"
         style="stroke-width:4.82367" /><path
         fill="#010002"
         d="m 532.05935,266.51054 c -0.0868,-0.17365 -16.06765,-38.50255 -35.52634,-68.25495 -9.66182,-14.76044 -20.11471,-21.84641 -25.9803,-24.68273 -27.62516,-13.33263 -84.31295,-19.24645 -86.97562,-19.14998 l -0.64637,-2.59513 c 2.60961,-0.88756 57.78276,3.69493 85.21498,16.95038 16.03871,7.74199 24.54284,17.59675 34.40243,34.19983 2.22371,3.72388 31.37316,61.21722 31.92305,62.37972 z"
         id="path5118"
         style="stroke-width:4.82367" /><path
         fill="#010002"
         d="m 534.61107,265.95099 -2.68678,-0.0338 c 0.0723,-5.33981 6.40583,-51.54093 15.57563,-67.37222 14.80385,-25.5944 56.0173,-42.80044 60.77344,-43.60117 0.31836,-0.0579 1.07568,-0.1833 1.64969,0.30872 l -1.74617,2.03076 0.88274,-1.02262 -0.2026,1.30722 c -3.09679,0.11094 -44.42601,17.06132 -59.02244,42.31324 -8.76461,15.14151 -15.16563,61.00498 -15.22351,66.06983 z"
         id="path5122"
         style="stroke-width:4.82367" /><ellipse
         transform="rotate(0.67039711)"
         fill="#d07536"
         cx="610.8111"
         cy="154.68155"
         rx="6.6419859"
         ry="5.6097527"
         id="ellipse5126"
         style="stroke-width:4.82352" /><path
         fill="#010002"
         d="m 608.89561,168.77813 c -4.40401,-0.0627 -7.94459,-3.22704 -7.90117,-7.05221 0.0531,-3.83482 3.66599,-6.91714 8.07482,-6.85443 4.40402,0.0531 7.93977,3.21738 7.89153,7.04738 -0.0434,3.83482 -3.66117,6.9075 -8.06518,6.85926 z m 0.13989,-11.22468 c -2.9135,-0.029 -5.32534,1.85711 -5.34945,4.21106 -0.0386,2.34431 2.32501,4.28825 5.24333,4.32201 2.91832,0.0386 5.32533,-1.84746 5.35427,-4.20142 0.0241,-2.3443 -2.32501,-4.29306 -5.24815,-4.33165 z"
         id="path5128"
         style="stroke-width:4.82367" /><ellipse
         transform="rotate(0.71050234)"
         fill="#d07536"
         cx="467.67334"
         cy="139.46864"
         rx="6.8253369"
         ry="5.6049762"
         id="ellipse5132"
         style="stroke-width:4.82356" /><path
         fill="#010002"
         d="m 465.83999,152.21847 c -4.50531,-0.0531 -8.12789,-3.21739 -8.07965,-7.05221 0.0531,-3.82517 3.75281,-6.9075 8.24847,-6.83997 4.50531,0.0482 8.13271,3.21257 8.08448,7.04256 -0.0579,3.83482 -3.74799,6.9075 -8.2533,6.84962 z m 0.13988,-11.21022 c -3.02926,-0.0434 -5.50381,1.84265 -5.53275,4.1966 -0.0289,2.35395 2.39737,4.29789 5.42663,4.32201 3.01962,0.0482 5.50381,-1.83782 5.52793,-4.1966 0.0338,-2.33948 -2.39254,-4.29789 -5.42181,-4.32201 z"
         id="path5134"
         style="stroke-width:4.82367" /><path
         fill="#985021"
         d="m 672.8382,214.99855 c 0,0 -32.2366,20.86238 -43.0175,28.48378 -10.47702,7.40916 -43.24904,29.59805 -43.24904,29.59805 l -24.63931,14.68808 -3.45858,13.82464 -28.53684,19.66611 -60.2766,-47.38293 -23.93023,-18.76408 -25.23745,-21.56181 -12.18942,-13.68475 -14.00794,-11.92412 -21.03121,-17.82347 c 0,0 -3.20292,-2.10312 -4.83814,-4.47636 -5.63405,-8.18577 -0.29424,-15.15116 -0.29424,-15.15116 l 40.81308,25.42558 121.94724,111.59564 17.37969,-12.31966 1.79923,-12.20389 76.02106,-56.63955 26.09124,-20.30283 19.93141,-10.70373 12.19424,-3.40551 c 0,0 4.76097,4.38471 3.55505,7.95423 -2.40219,7.13904 -15.02574,15.10774 -15.02574,15.10774 z"
         id="path5138"
         style="stroke-width:4.82367" /><path
         fill="#010002"
         d="m 530.87755,308.7659 -0.62225,-0.60296 c -1.16251,-1.13838 -18.56149,-17.0565 -38.70997,-35.48293 -34.62914,-31.6674 -77.71899,-71.08162 -79.24327,-72.82296 -3.75764,-4.28342 -30.0563,-19.89283 -39.95447,-25.7777 -3.83965,-2.2816 -4.61143,-2.73503 -4.79473,-2.89421 l 1.13838,-1.3651 -0.56437,0.68014 0.54025,-0.70426 c 0.22672,0.15919 2.16101,1.3024 4.58732,2.74467 10.90632,6.48302 36.44283,21.63417 40.38377,26.13466 1.46158,1.66416 46.34102,42.70878 79.10822,72.67343 19.30433,17.65464 34.87996,31.89894 38.189,34.98127 2.98103,-2.29125 14.07065,-9.95606 16.50178,-11.64435 l 1.78959,-12.18941 0.29424,-0.22672 c 0.58849,-0.43413 58.79091,-43.48057 66.2483,-49.34133 27.3454,-21.47499 61.82982,-45.99853 70.82115,-40.87097 l -0.88756,1.5484 c -6.25148,-3.56952 -31.33457,11.28257 -68.82897,40.71661 -7.20656,5.66299 -61.4391,45.80558 -65.98782,49.16768 l -1.79441,12.22319 -0.32318,0.21224 c -6.48784,4.48601 -16.42943,11.44657 -17.26875,12.23765 z"
         id="path5142"
         style="stroke-width:4.82367" /></g><g
       aria-label="Leituras Presidente Figueiredo"
       transform="scale(0.99398184,1.0060546)"
       id="text5154"
       style="font-size:29.3333px;line-height:1.2;letter-spacing:1.5px;word-spacing:0px;fill:#8c182a;fill-opacity:1;stroke-width:4.79464"><path
         d="m 481.09873,631.50964 h -12.81866 v -21.55997 h 4.95733 v 16.60265 h 7.86133 z"
         style="font-style:normal;font-variant:normal;font-weight:bold;font-stretch:normal;font-size:29.3333px;font-family:'The Bold Font';-inkscape-font-specification:'The Bold Font Bold';text-align:center;text-anchor:middle;fill:#8c182a;fill-opacity:1"
         id="path64" /><path
         d="m 498.116,614.93633 h -8.85866 v 3.256 h 7.18666 v 4.95732 h -7.18666 v 3.40267 h 8.85866 v 4.95732 H 484.30002 V 610.00833 L 498.116,609.979 Z"
         style="font-style:normal;font-variant:normal;font-weight:bold;font-stretch:normal;font-size:29.3333px;font-family:'The Bold Font';-inkscape-font-specification:'The Bold Font Bold';text-align:center;text-anchor:middle;fill:#8c182a;fill-opacity:1"
         id="path66" /><path
         d="m 507.12529,631.50964 h -4.95732 v -21.55997 h 4.95732 z"
         style="font-style:normal;font-variant:normal;font-weight:bold;font-stretch:normal;font-size:29.3333px;font-family:'The Bold Font';-inkscape-font-specification:'The Bold Font Bold';text-align:center;text-anchor:middle;fill:#8c182a;fill-opacity:1"
         id="path68" /><path
         d="m 523.90792,609.891 v 4.98666 h -4.136 v 16.63198 h -4.95733 v -16.63198 h -4.10666 V 609.891 Z"
         style="font-style:normal;font-variant:normal;font-weight:bold;font-stretch:normal;font-size:29.3333px;font-family:'The Bold Font';-inkscape-font-specification:'The Bold Font Bold';text-align:center;text-anchor:middle;fill:#8c182a;fill-opacity:1"
         id="path70" /><path
         d="m 535.70385,631.50964 q -1.64267,0 -3.10933,-0.58666 -1.46667,-0.616 -2.61066,-1.73067 -1.17334,-1.17333 -1.81867,-2.63999 -0.616,-1.46667 -0.64533,-3.13867 v -13.46398 h 4.95733 v 13.43465 q 0,1.29066 0.96799,2.25866 0.968,0.90934 2.288,0.90934 0.64533,0 1.232,-0.264 0.58667,-0.264 1.02667,-0.704 0.44,-0.44 0.67466,-1.02667 0.23467,-0.58666 0.23467,-1.26133 v -13.34665 h 4.95733 v 13.31732 q 0.0293,1.67199 -0.616,3.16799 -0.616,1.496 -1.73067,2.61067 -1.08533,1.11466 -2.58133,1.78933 -1.46666,0.64533 -3.13866,0.67466 z"
         style="font-style:normal;font-variant:normal;font-weight:bold;font-stretch:normal;font-size:29.3333px;font-family:'The Bold Font';-inkscape-font-specification:'The Bold Font Bold';text-align:center;text-anchor:middle;fill:#8c182a;fill-opacity:1"
         id="path72" /><path
         d="m 554.83314,625.93632 q -0.38134,0.0587 -0.76267,0.088 -0.38133,0.0293 -0.792,0.0587 v 5.42666 h -4.95733 v -21.47197 h 4.95733 q 1.848,0.0293 3.46133,0.67466 1.61333,0.64534 2.816,1.73067 1.232,1.08533 1.90666,2.52266 0.704,1.43733 0.704,3.08 0,1.73066 -0.73333,3.22666 -0.73333,1.46667 -2.05333,2.552 l 4.75199,7.68532 h -5.83733 z m -1.55467,-4.84 q 0.792,-0.0293 1.496,-0.264 0.73333,-0.264 1.26133,-0.67466 0.55733,-0.41067 0.85067,-0.93867 0.32266,-0.55733 0.32266,-1.17333 0,-0.616 -0.32266,-1.144 -0.29334,-0.528 -0.85067,-0.93867 -0.528,-0.41066 -1.26133,-0.64533 -0.704,-0.264 -1.496,-0.29333 z"
         style="font-style:normal;font-variant:normal;font-weight:bold;font-stretch:normal;font-size:29.3333px;font-family:'The Bold Font';-inkscape-font-specification:'The Bold Font Bold';text-align:center;text-anchor:middle;fill:#8c182a;fill-opacity:1"
         id="path74" /><path
         d="m 580.12241,631.50964 -0.85066,-2.61066 h -6.77599 l -0.88,2.61066 h -5.25066 l 7.33332,-21.53064 h 4.69333 l 6.95199,21.53064 z m -5.92532,-7.56799 h 3.49066 l -1.70133,-5.22133 z"
         style="font-style:normal;font-variant:normal;font-weight:bold;font-stretch:normal;font-size:29.3333px;font-family:'The Bold Font';-inkscape-font-specification:'The Bold Font Bold';text-align:center;text-anchor:middle;fill:#8c182a;fill-opacity:1"
         id="path76" /><path
         d="m 594.70503,631.92031 q -1.02667,0 -2.05333,-0.29333 -0.99733,-0.264 -1.90667,-0.85067 -1.58399,-1.02666 -2.46399,-2.64 -0.88,-1.64266 -0.88,-3.57866 h 4.95733 q 0,0.88 0.38133,1.37867 0.38133,0.46933 0.67466,0.64533 0.528,0.352 1.144,0.38133 0.616,0.0293 1.20267,-0.23466 0.41066,-0.176 0.64533,-0.44 0.264,-0.264 0.38133,-0.49867 0.14667,-0.264 0.176,-0.49867 0.0293,-0.23466 0.0293,-0.38133 0,-0.14667 -0.0293,-0.38133 -0.0293,-0.23467 -0.176,-0.49867 -0.11733,-0.264 -0.38133,-0.49866 -0.23467,-0.264 -0.64533,-0.46934 -0.32267,-0.14666 -0.704,-0.264 -0.352,-0.11733 -0.76267,-0.264 -0.73333,-0.23466 -1.52533,-0.528 -0.792,-0.29333 -1.584,-0.79199 -1.02666,-0.64534 -1.73066,-1.61334 -0.704,-0.96799 -1.02667,-2.08266 -0.29333,-1.11467 -0.20533,-2.288 0.11733,-1.20266 0.67467,-2.288 0.528,-0.99733 1.31999,-1.73066 0.792,-0.73333 1.76,-1.144 0.968,-0.44 2.08267,-0.528 1.11466,-0.088 2.25866,0.20534 1.11467,0.26399 2.024,0.85066 0.90933,0.55733 1.55466,1.37867 0.67467,0.792 1.02667,1.78933 0.352,0.99733 0.352,2.08266 h -4.95733 q 0,-0.67466 -0.44,-0.93866 -0.41066,-0.264 -0.73333,-0.352 -0.0587,0 -0.29333,-0.0293 -0.20534,-0.0587 -0.49867,0 -0.264,0.0293 -0.55733,0.20534 -0.29334,0.14666 -0.46934,0.49866 -0.23466,0.46934 -0.088,0.99733 0.14667,0.49867 0.58667,0.792 0.41067,0.23467 0.90933,0.44 0.49867,0.176 1.056,0.352 0.49867,0.14667 0.99733,0.32267 0.528,0.176 1.056,0.41067 1.936,0.87999 3.02133,2.58133 1.11467,1.70133 1.11467,3.78399 0,2.05333 -1.11467,3.75466 -1.08533,1.70133 -3.02133,2.58133 -0.76266,0.352 -1.55466,0.49867 -0.792,0.176 -1.584,0.176 z"
         style="font-style:normal;font-variant:normal;font-weight:bold;font-stretch:normal;font-size:29.3333px;font-family:'The Bold Font';-inkscape-font-specification:'The Bold Font Bold';text-align:center;text-anchor:middle;fill:#8c182a;fill-opacity:1"
         id="path78" /><path
         d="m 376.16439,654.52941 q 0,1.848 -0.704,3.49066 -0.67466,1.61333 -1.90666,2.84533 -1.20267,1.232 -2.816,1.96533 -1.61333,0.704 -3.46133,0.73334 v 3.43199 h -4.95733 v -21.53064 h 4.95733 q 1.848,0.0293 3.46133,0.76267 1.61333,0.73333 2.816,1.96533 1.232,1.232 1.90666,2.87466 0.704,1.61333 0.704,3.46133 z m -8.88799,4.07733 q 0.82133,-0.0293 1.52533,-0.352 0.73334,-0.352 1.26134,-0.88 0.528,-0.55733 0.82133,-1.29066 0.32266,-0.73334 0.32266,-1.55467 0,-0.82133 -0.32266,-1.55466 -0.29333,-0.73334 -0.82133,-1.26134 -0.528,-0.55733 -1.26134,-0.88 -0.704,-0.352 -1.52533,-0.38133 z"
         style="font-style:normal;font-variant:normal;font-weight:bold;font-stretch:normal;font-size:29.3333px;font-family:'The Bold Font';-inkscape-font-specification:'The Bold Font Bold';text-align:center;text-anchor:middle;fill:#8c182a;fill-opacity:1"
         id="path80" /><path
         d="m 387.10967,661.42274 q -0.38133,0.0587 -0.76266,0.088 -0.38134,0.0293 -0.792,0.0587 v 5.42666 h -4.95733 v -21.47197 h 4.95733 q 1.848,0.0293 3.46133,0.67466 1.61333,0.64534 2.81599,1.73067 1.232,1.08533 1.90667,2.52266 0.704,1.43733 0.704,3.08 0,1.73066 -0.73333,3.22666 -0.73334,1.46667 -2.05334,2.552 l 4.752,7.68532 H 390.571 Z m -1.55466,-4.84 q 0.792,-0.0293 1.496,-0.264 0.73333,-0.264 1.26133,-0.67466 0.55733,-0.41067 0.85066,-0.93867 0.32267,-0.55733 0.32267,-1.17333 0,-0.616 -0.32267,-1.144 -0.29333,-0.528 -0.85066,-0.93867 -0.528,-0.41066 -1.26133,-0.64533 -0.704,-0.264 -1.496,-0.29333 z"
         style="font-style:normal;font-variant:normal;font-weight:bold;font-stretch:normal;font-size:29.3333px;font-family:'The Bold Font';-inkscape-font-specification:'The Bold Font Bold';text-align:center;text-anchor:middle;fill:#8c182a;fill-opacity:1"
         id="path82" /><path
         d="m 413.57228,650.42275 h -8.85866 v 3.25599 h 7.18666 v 4.95733 h -7.18666 v 3.40266 h 8.85866 v 4.95733 H 399.7563 v -21.50131 l 13.81598,-0.0293 z"
         style="font-style:normal;font-variant:normal;font-weight:bold;font-stretch:normal;font-size:29.3333px;font-family:'The Bold Font';-inkscape-font-specification:'The Bold Font Bold';text-align:center;text-anchor:middle;fill:#8c182a;fill-opacity:1"
         id="path84" /><path
         d="m 424.01891,667.40673 q -1.02667,0 -2.05333,-0.29333 -0.99733,-0.264 -1.90667,-0.85067 -1.58399,-1.02667 -2.46399,-2.64 -0.88,-1.64266 -0.88,-3.57866 h 4.95733 q 0,0.88 0.38133,1.37867 0.38133,0.46933 0.67466,0.64533 0.528,0.352 1.144,0.38133 0.616,0.0293 1.20267,-0.23467 0.41066,-0.176 0.64533,-0.43999 0.264,-0.264 0.38133,-0.49867 0.14667,-0.264 0.176,-0.49867 0.0293,-0.23466 0.0293,-0.38133 0,-0.14667 -0.0293,-0.38133 -0.0293,-0.23467 -0.176,-0.49867 -0.11733,-0.264 -0.38133,-0.49866 -0.23467,-0.264 -0.64533,-0.46934 -0.32267,-0.14666 -0.704,-0.264 -0.352,-0.11733 -0.76267,-0.264 -0.73333,-0.23466 -1.52533,-0.528 -0.792,-0.29333 -1.584,-0.792 -1.02666,-0.64533 -1.73066,-1.61333 -0.704,-0.968 -1.02667,-2.08266 -0.29333,-1.11467 -0.20533,-2.288 0.11733,-1.20266 0.67467,-2.288 0.528,-0.99733 1.31999,-1.73066 0.792,-0.73333 1.76,-1.144 0.968,-0.44 2.08267,-0.528 1.11466,-0.088 2.25866,0.20533 1.11467,0.264 2.024,0.85067 0.90933,0.55733 1.55466,1.37866 0.67467,0.792 1.02667,1.78934 0.352,0.99733 0.352,2.08266 h -4.95733 q 0,-0.67467 -0.44,-0.93867 -0.41066,-0.26399 -0.73333,-0.35199 -0.0587,0 -0.29333,-0.0293 -0.20534,-0.0587 -0.49867,0 -0.264,0.0293 -0.55733,0.20534 -0.29334,0.14666 -0.46934,0.49866 -0.23466,0.46933 -0.088,0.99733 0.14667,0.49867 0.58667,0.792 0.41067,0.23467 0.90933,0.44 0.49867,0.176 1.056,0.352 0.49867,0.14667 0.99733,0.32267 0.528,0.176 1.056,0.41066 1.936,0.88 3.02133,2.58133 1.11467,1.70134 1.11467,3.784 0,2.05333 -1.11467,3.75466 -1.08533,1.70133 -3.02133,2.58133 -0.76266,0.352 -1.55466,0.49867 -0.792,0.176 -1.584,0.176 z"
         style="font-style:normal;font-variant:normal;font-weight:bold;font-stretch:normal;font-size:29.3333px;font-family:'The Bold Font';-inkscape-font-specification:'The Bold Font Bold';text-align:center;text-anchor:middle;fill:#8c182a;fill-opacity:1"
         id="path86" /><path
         d="m 439.83352,666.99606 h -4.95732 v -21.55997 h 4.95732 z"
         style="font-style:normal;font-variant:normal;font-weight:bold;font-stretch:normal;font-size:29.3333px;font-family:'The Bold Font';-inkscape-font-specification:'The Bold Font Bold';text-align:center;text-anchor:middle;fill:#8c182a;fill-opacity:1"
         id="path88" /><path
         d="m 448.54949,645.37742 q 2.14133,0.11733 4.01866,1.02667 1.90667,0.90933 3.28533,2.37599 1.408,1.46667 2.2,3.40267 0.82133,1.93599 0.82133,4.13599 0,2.17067 -0.792,4.07733 -0.792,1.87733 -2.19999,3.31466 -1.37867,1.43733 -3.256,2.31733 -1.87733,0.85067 -4.07733,0.968 h -4.95733 v -21.64797 h 4.95733 z m 0,16.63198 q 1.144,-0.11733 2.112,-0.58666 0.99733,-0.49867 1.70133,-1.232 0.73333,-0.76267 1.144,-1.76 0.41066,-0.99733 0.41066,-2.112 0,-1.144 -0.41066,-2.17066 -0.41067,-1.056 -1.144,-1.848 -0.73333,-0.82133 -1.70133,-1.32 -0.968,-0.528 -2.112,-0.64533 z"
         style="font-style:normal;font-variant:normal;font-weight:bold;font-stretch:normal;font-size:29.3333px;font-family:'The Bold Font';-inkscape-font-specification:'The Bold Font Bold';text-align:center;text-anchor:middle;fill:#8c182a;fill-opacity:1"
         id="path90" /><path
         d="m 475.01209,650.42275 h -8.85865 v 3.25599 h 7.18665 v 4.95733 h -7.18665 v 3.40266 h 8.85865 v 4.95733 h -13.81598 v -21.50131 l 13.81598,-0.0293 z"
         style="font-style:normal;font-variant:normal;font-weight:bold;font-stretch:normal;font-size:29.3333px;font-family:'The Bold Font';-inkscape-font-specification:'The Bold Font Bold';text-align:center;text-anchor:middle;fill:#8c182a;fill-opacity:1"
         id="path92" /><path
         d="m 491.47204,645.46542 h 4.95733 v 21.53064 h -5.368 l -7.03999,-12.55465 v 12.55465 h -4.95733 v -21.47197 h 5.39733 l 7.01066,12.52532 z"
         style="font-style:normal;font-variant:normal;font-weight:bold;font-stretch:normal;font-size:29.3333px;font-family:'The Bold Font';-inkscape-font-specification:'The Bold Font Bold';text-align:center;text-anchor:middle;fill:#8c182a;fill-opacity:1"
         id="path94" /><path
         d="m 513.00667,645.37742 v 4.98666 h -4.136 v 16.63198 h -4.95733 v -16.63198 h -4.10666 v -4.98666 z"
         style="font-style:normal;font-variant:normal;font-weight:bold;font-stretch:normal;font-size:29.3333px;font-family:'The Bold Font';-inkscape-font-specification:'The Bold Font Bold';text-align:center;text-anchor:middle;fill:#8c182a;fill-opacity:1"
         id="path96" /><path
         d="m 530.11192,650.42275 h -8.85865 v 3.25599 h 7.18665 v 4.95733 h -7.18665 v 3.40266 h 8.85865 v 4.95733 h -13.81598 v -21.50131 l 13.81598,-0.0293 z"
         style="font-style:normal;font-variant:normal;font-weight:bold;font-stretch:normal;font-size:29.3333px;font-family:'The Bold Font';-inkscape-font-specification:'The Bold Font Bold';text-align:center;text-anchor:middle;fill:#8c182a;fill-opacity:1"
         id="path98" /><path
         d="m 553.64515,650.42275 h -8.03733 v 3.25599 h 6.36533 v 4.95733 h -6.36533 v 8.35999 h -4.95732 v -21.53064 h 12.99465 z"
         style="font-style:normal;font-variant:normal;font-weight:bold;font-stretch:normal;font-size:29.3333px;font-family:'The Bold Font';-inkscape-font-specification:'The Bold Font Bold';text-align:center;text-anchor:middle;fill:#8c182a;fill-opacity:1"
         id="path100" /><path
         d="m 562.15577,666.99606 h -4.95733 v -21.55997 h 4.95733 z"
         style="font-style:normal;font-variant:normal;font-weight:bold;font-stretch:normal;font-size:29.3333px;font-family:'The Bold Font';-inkscape-font-specification:'The Bold Font Bold';text-align:center;text-anchor:middle;fill:#8c182a;fill-opacity:1"
         id="path102" /><path
         d="m 584.10106,654.94008 v 12.05598 h -4.98666 v -0.528 q -0.82133,0.29334 -1.70133,0.44 -0.85067,0.11734 -1.70133,0.11734 -2.08267,0 -4.07733,-0.792 -1.99467,-0.792 -3.57867,-2.376 -1.58399,-1.584 -2.37599,-3.54933 -0.76267,-1.99466 -0.76267,-4.07733 0,-2.08266 0.76267,-4.07733 0.792,-1.99466 2.37599,-3.57866 1.584,-1.584 3.57867,-2.376 1.99466,-0.792 4.07733,-0.792 2.08266,0 4.07732,0.792 1.99467,0.792 3.57867,2.376 l -3.52,3.52 q -0.85067,-0.85067 -1.936,-1.26134 -1.08533,-0.44 -2.19999,-0.44 -1.11467,0 -2.2,0.44 -1.08533,0.41067 -1.936,1.26134 -0.85067,0.85066 -1.29067,1.93599 -0.43999,1.08534 -0.43999,2.2 0,1.11467 0.43999,2.2 0.44,1.08533 1.29067,1.936 0.76267,0.76266 1.70133,1.20266 0.968,0.41067 1.96533,0.49867 1.02667,0.0587 2.024,-0.20533 0.99733,-0.264 1.848,-0.88 v -1.08534 h -4.312 v -4.95732 z"
         style="font-style:normal;font-variant:normal;font-weight:bold;font-stretch:normal;font-size:29.3333px;font-family:'The Bold Font';-inkscape-font-specification:'The Bold Font Bold';text-align:center;text-anchor:middle;fill:#8c182a;fill-opacity:1"
         id="path104" /><path
         d="m 596.13165,666.99606 q -1.64266,0 -3.10933,-0.58666 -1.46666,-0.616 -2.61066,-1.73067 -1.17333,-1.17333 -1.81867,-2.64 -0.616,-1.46666 -0.64533,-3.13866 v -13.46398 h 4.95733 v 13.43465 q 0,1.29066 0.968,2.25866 0.968,0.90933 2.28799,0.90933 0.64534,0 1.232,-0.26399 0.58667,-0.264 1.02667,-0.704 0.44,-0.44 0.67466,-1.02667 0.23467,-0.58667 0.23467,-1.26133 v -13.34665 h 4.95733 v 13.31732 q 0.0293,1.67199 -0.616,3.16799 -0.616,1.496 -1.73067,2.61067 -1.08533,1.11466 -2.58133,1.78933 -1.46666,0.64533 -3.13866,0.67466 z"
         style="font-style:normal;font-variant:normal;font-weight:bold;font-stretch:normal;font-size:29.3333px;font-family:'The Bold Font';-inkscape-font-specification:'The Bold Font Bold';text-align:center;text-anchor:middle;fill:#8c182a;fill-opacity:1"
         id="path106" /><path
         d="m 622.24226,650.42275 h -8.85865 v 3.25599 h 7.18665 v 4.95733 h -7.18665 v 3.40266 h 8.85865 v 4.95733 h -13.81598 v -21.50131 l 13.81598,-0.0293 z"
         style="font-style:normal;font-variant:normal;font-weight:bold;font-stretch:normal;font-size:29.3333px;font-family:'The Bold Font';-inkscape-font-specification:'The Bold Font Bold';text-align:center;text-anchor:middle;fill:#8c182a;fill-opacity:1"
         id="path108" /><path
         d="m 631.25156,666.99606 h -4.95733 v -21.55997 h 4.95733 z"
         style="font-style:normal;font-variant:normal;font-weight:bold;font-stretch:normal;font-size:29.3333px;font-family:'The Bold Font';-inkscape-font-specification:'The Bold Font Bold';text-align:center;text-anchor:middle;fill:#8c182a;fill-opacity:1"
         id="path110" /><path
         d="m 642.19685,661.42274 q -0.38133,0.0587 -0.76266,0.088 -0.38134,0.0293 -0.792,0.0587 v 5.42666 h -4.95733 v -21.47197 h 4.95733 q 1.84799,0.0293 3.46133,0.67466 1.61333,0.64534 2.81599,1.73067 1.232,1.08533 1.90667,2.52266 0.704,1.43733 0.704,3.08 0,1.73066 -0.73334,3.22666 -0.73333,1.46667 -2.05333,2.552 l 4.752,7.68532 h -5.83733 z m -1.55466,-4.84 q 0.792,-0.0293 1.49599,-0.264 0.73334,-0.264 1.26134,-0.67466 0.55733,-0.41067 0.85066,-0.93867 0.32267,-0.55733 0.32267,-1.17333 0,-0.616 -0.32267,-1.144 -0.29333,-0.528 -0.85066,-0.93867 -0.528,-0.41066 -1.26134,-0.64533 -0.70399,-0.264 -1.49599,-0.29333 z"
         style="font-style:normal;font-variant:normal;font-weight:bold;font-stretch:normal;font-size:29.3333px;font-family:'The Bold Font';-inkscape-font-specification:'The Bold Font Bold';text-align:center;text-anchor:middle;fill:#8c182a;fill-opacity:1"
         id="path112" /><path
         d="m 668.65947,650.42275 h -8.85866 v 3.25599 h 7.18666 v 4.95733 h -7.18666 v 3.40266 h 8.85866 v 4.95733 h -13.81599 v -21.50131 l 13.81599,-0.0293 z"
         style="font-style:normal;font-variant:normal;font-weight:bold;font-stretch:normal;font-size:29.3333px;font-family:'The Bold Font';-inkscape-font-specification:'The Bold Font Bold';text-align:center;text-anchor:middle;fill:#8c182a;fill-opacity:1"
         id="path114" /><path
         d="m 676.9941,645.37742 q 2.14133,0.11733 4.01866,1.02667 1.90667,0.90933 3.28533,2.37599 1.408,1.46667 2.2,3.40267 0.82133,1.93599 0.82133,4.13599 0,2.17067 -0.792,4.07733 -0.792,1.87733 -2.19999,3.31466 -1.37867,1.43733 -3.256,2.31733 -1.87733,0.85067 -4.07733,0.968 h -4.95733 v -21.64797 h 4.95733 z m 0,16.63198 q 1.144,-0.11733 2.112,-0.58666 0.99733,-0.49867 1.70133,-1.232 0.73333,-0.76267 1.144,-1.76 0.41066,-0.99733 0.41066,-2.112 0,-1.144 -0.41066,-2.17066 -0.41067,-1.056 -1.144,-1.848 -0.73333,-0.82133 -1.70133,-1.32 -0.968,-0.528 -2.112,-0.64533 z"
         style="font-style:normal;font-variant:normal;font-weight:bold;font-stretch:normal;font-size:29.3333px;font-family:'The Bold Font';-inkscape-font-specification:'The Bold Font Bold';text-align:center;text-anchor:middle;fill:#8c182a;fill-opacity:1"
         id="path116" /><path
         d="m 699.26202,645.43609 q 2.22933,0 4.19466,0.85066 1.96533,0.85067 3.432,2.31733 1.46666,1.43734 2.31733,3.40267 0.85066,1.96533 0.85066,4.19466 0,2.22933 -0.85066,4.19466 -0.85067,1.96533 -2.31733,3.432 -1.46667,1.43733 -3.432,2.28799 -1.96533,0.85067 -4.19466,0.85067 -2.22933,0 -4.19466,-0.85067 -1.96534,-0.85066 -3.432,-2.28799 -1.43733,-1.46667 -2.288,-3.432 -0.85066,-1.96533 -0.85066,-4.19466 0,-2.22933 0.85066,-4.19466 0.85067,-1.96533 2.288,-3.40267 1.46666,-1.46666 3.432,-2.31733 1.96533,-0.85066 4.19466,-0.85066 z m 0,16.57331 q 1.20266,0 2.25866,-0.44 1.056,-0.46933 1.848,-1.26133 0.792,-0.792 1.232,-1.848 0.46933,-1.056 0.46933,-2.25866 0,-1.20267 -0.46933,-2.25867 -0.44,-1.05599 -1.232,-1.84799 -0.792,-0.792 -1.848,-1.232 -1.056,-0.46934 -2.25866,-0.46934 -1.20267,0 -2.25867,0.46934 -1.056,0.44 -1.84799,1.232 -0.792,0.792 -1.26134,1.84799 -0.44,1.056 -0.44,2.25867 0,1.20266 0.44,2.25866 0.46934,1.056 1.26134,1.848 0.79199,0.792 1.84799,1.26133 1.056,0.44 2.25867,0.44 z"
         style="font-style:normal;font-variant:normal;font-weight:bold;font-stretch:normal;font-size:29.3333px;font-family:'The Bold Font';-inkscape-font-specification:'The Bold Font Bold';text-align:center;text-anchor:middle;fill:#8c182a;fill-opacity:1"
         id="path118" /></g><g
       aria-label="Projeto"
       id="text86"
       style="font-size:18.6667px;line-height:1.25;font-family:'Roboto Condensed';-inkscape-font-specification:'Roboto Condensed, ';word-spacing:0px"><path
         d="m 492.10679,583.89154 h 5.82423 q 2.59766,0 3.98308,1.15755 1.39454,1.14844 1.39454,3.28126 0,2.14193 -1.39454,3.29948 -1.38542,1.14844 -3.98308,1.14844 h -2.3151 v 4.72136 h -3.50913 z m 3.50913,2.54297 v 3.80079 h 1.9414 q 1.02084,0 1.57683,-0.49219 0.55599,-0.5013 0.55599,-1.41276 0,-0.91146 -0.55599,-1.40365 -0.55599,-0.49219 -1.57683,-0.49219 z"
         style="font-style:normal;font-variant:normal;font-weight:bold;font-stretch:normal;font-size:18.6667px;font-family:sans-serif;-inkscape-font-specification:'sans-serif Bold'"
         id="path121" /><path
         d="m 513.22532,590.07123 q -0.42838,-0.20052 -0.85677,-0.29166 -0.41927,-0.10026 -0.84766,-0.10026 -1.25781,0 -1.94141,0.8112 -0.67448,0.80208 -0.67448,2.30599 v 4.70313 h -3.26303 v -10.20835 h 3.26303 v 1.67709 q 0.62891,-1.00261 1.44011,-1.45834 0.82031,-0.46484 1.95964,-0.46484 0.16406,0 0.35547,0.0182 0.1914,0.009 0.55599,0.0547 z"
         style="font-style:normal;font-variant:normal;font-weight:bold;font-stretch:normal;font-size:18.6667px;font-family:sans-serif;-inkscape-font-specification:'sans-serif Bold'"
         id="path123" /><path
         d="m 519.7058,589.37853 q -1.08463,0 -1.65885,0.78385 -0.56511,0.77474 -0.56511,2.24219 0,1.46745 0.56511,2.25131 0.57422,0.77474 1.65885,0.77474 1.06641,0 1.63152,-0.77474 0.5651,-0.78386 0.5651,-2.25131 0,-1.46745 -0.5651,-2.24219 -0.56511,-0.78385 -1.63152,-0.78385 z m 0,-2.33334 q 2.63412,0 4.11069,1.42188 1.48568,1.42187 1.48568,3.9375 0,2.51563 -1.48568,3.93751 -1.47657,1.42188 -4.11069,1.42188 -2.64323,0 -4.13803,-1.42188 -1.48567,-1.42188 -1.48567,-3.93751 0,-2.51563 1.48567,-3.9375 1.4948,-1.42188 4.13803,-1.42188 z"
         style="font-style:normal;font-variant:normal;font-weight:bold;font-stretch:normal;font-size:18.6667px;font-family:sans-serif;-inkscape-font-specification:'sans-serif Bold'"
         id="path125" /><path
         d="m 527.67196,587.29128 h 3.26303 v 10.02606 q 0,2.05079 -0.98438,3.12631 -0.98437,1.08464 -2.85287,1.08464 h -1.61328 v -2.14193 h 0.5651 q 0.92969,0 1.27605,-0.41928 0.34635,-0.41927 0.34635,-1.64974 z m 0,-3.97396 h 3.26303 v 2.66146 h -3.26303 z"
         style="font-style:normal;font-variant:normal;font-weight:bold;font-stretch:normal;font-size:18.6667px;font-family:sans-serif;-inkscape-font-specification:'sans-serif Bold'"
         id="path127" /><path
         d="m 544.26053,592.36811 v 0.92969 h -7.62892 q 0.11849,1.14844 0.82943,1.72266 0.71094,0.57422 1.98699,0.57422 1.02995,0 2.10547,-0.30078 1.08464,-0.3099 2.22396,-0.92969 v 2.51563 q -1.15755,0.4375 -2.31511,0.65625 -1.15755,0.22787 -2.31511,0.22787 -2.77083,0 -4.3112,-1.40365 -1.53125,-1.41276 -1.53125,-3.95574 0,-2.4974 1.5039,-3.92839 1.51303,-1.43099 4.15626,-1.43099 2.40626,0 3.84636,1.44922 1.44922,1.44922 1.44922,3.8737 z m -3.35417,-1.08463 q 0,-0.92969 -0.54687,-1.4948 -0.53777,-0.57422 -1.41277,-0.57422 -0.94792,0 -1.54036,0.53776 -0.59245,0.52865 -0.73829,1.53126 z"
         style="font-style:normal;font-variant:normal;font-weight:bold;font-stretch:normal;font-size:18.6667px;font-family:sans-serif;-inkscape-font-specification:'sans-serif Bold'"
         id="path129" /><path
         d="m 550.2944,584.39284 v 2.89844 h 3.36329 v 2.33334 h -3.36329 v 4.32943 q 0,0.71094 0.28255,0.96615 0.28255,0.2461 1.1211,0.2461 h 1.67708 v 2.33333 h -2.79818 q -1.93229,0 -2.74349,-0.80208 -0.80209,-0.8112 -0.80209,-2.7435 v -4.32943 h -1.6224 v -2.33334 h 1.6224 v -2.89844 z"
         style="font-style:normal;font-variant:normal;font-weight:bold;font-stretch:normal;font-size:18.6667px;font-family:sans-serif;-inkscape-font-specification:'sans-serif Bold'"
         id="path131" /><path
         d="m 560.51186,589.37853 q -1.08463,0 -1.65885,0.78385 -0.56511,0.77474 -0.56511,2.24219 0,1.46745 0.56511,2.25131 0.57422,0.77474 1.65885,0.77474 1.06641,0 1.63152,-0.77474 0.5651,-0.78386 0.5651,-2.25131 0,-1.46745 -0.5651,-2.24219 -0.56511,-0.78385 -1.63152,-0.78385 z m 0,-2.33334 q 2.63412,0 4.11069,1.42188 1.48568,1.42187 1.48568,3.9375 0,2.51563 -1.48568,3.93751 -1.47657,1.42188 -4.11069,1.42188 -2.64323,0 -4.13802,-1.42188 -1.48568,-1.42188 -1.48568,-3.93751 0,-2.51563 1.48568,-3.9375 1.49479,-1.42188 4.13802,-1.42188 z"
         style="font-style:normal;font-variant:normal;font-weight:bold;font-stretch:normal;font-size:18.6667px;font-family:sans-serif;-inkscape-font-specification:'sans-serif Bold'"
         id="path133" /></g></g></g></svg>
