<?xml version="1.0" encoding="UTF-8" standalone="no"?>
<svg
   xmlns:dc="http://purl.org/dc/elements/1.1/"
   xmlns:cc="http://creativecommons.org/ns#"
   xmlns:rdf="http://www.w3.org/1999/02/22-rdf-syntax-ns#"
   xmlns:svg="http://www.w3.org/2000/svg"
   xmlns="http://www.w3.org/2000/svg"
   xmlns:sodipodi="http://sodipodi.sourceforge.net/DTD/sodipodi-0.dtd"
   xmlns:inkscape="http://www.inkscape.org/namespaces/inkscape"
   version="1.1"
   id="Layer_1"
   x="0px"
   y="0px"
   width="320"
   height="90"
   viewBox="0 0 319.99999 90.000002"
   enable-background="new 0 0 301.334 92.004"
   xml:space="preserve"
   sodipodi:docname="3 - Logo - Memória Viva.svg"
   inkscape:version="1.0.2 (1.0.2+r75+1)"
   inkscape:export-filename="/home/user/Dropbox/Quarentena/PPF - Logos/4 - Memória Viva/4 - PNG/4 - Logo - Memória Viva - Horizontal - Colorido (PNG).png"
   inkscape:export-xdpi="96"
   inkscape:export-ydpi="96"><metadata
   id="metadata6057"><rdf:RDF><cc:Work
       rdf:about=""><dc:format>image/svg+xml</dc:format><dc:type
         rdf:resource="http://purl.org/dc/dcmitype/StillImage" /><dc:title /></cc:Work></rdf:RDF></metadata><defs
   id="defs6055" /><sodipodi:namedview
   pagecolor="#ffffff"
   bordercolor="#666666"
   borderopacity="1"
   objecttolerance="10"
   gridtolerance="10"
   guidetolerance="10"
   inkscape:pageopacity="1"
   inkscape:pageshadow="2"
   inkscape:window-width="1294"
   inkscape:window-height="704"
   id="namedview6053"
   showgrid="false"
   inkscape:zoom="1.375587"
   inkscape:cx="-23.289318"
   inkscape:cy="54.162524"
   inkscape:window-x="72"
   inkscape:window-y="27"
   inkscape:window-maximized="1"
   inkscape:current-layer="layer2"
   inkscape:document-rotation="0" />



















































<g
   inkscape:groupmode="layer"
   id="layer2"
   inkscape:label="Logo - Memória Viva"
   style="display:inline;opacity:1"><g
     id="g455"><rect
       style="display:inline;fill:#ffffff;stroke-width:5.11208;stop-color:#000000"
       id="rect144"
       width="320"
       height="90"
       x="0"
       y="0" /><g
       id="g2900"
       transform="translate(-2.4999998,-2.4842762)"><g
         id="g1976"
         transform="translate(5.2723633,1.457359)"><g
           aria-label="MEMÓRIA VIVA"
           transform="matrix(0.988,0,0,1,103.3867,49.2275)"
           id="text1926"
           style="font-size:29px;font-family:TheBoldFont;fill:#985021"><path
             d="m 15.66,-21.315 h 5.046 L 21.953,0 H 17.052 L 16.53,-8.7 13.572,0 H 8.671 L 5.539,-9.048 4.959,0 h -4.93 l 1.363,-21.315 h 5.046 l 4.669,13.34 z"
             style="font-size:29px;font-family:TheBoldFont;fill:#985021"
             id="path394" /><path
             d="m 36.771983,-16.385 h -8.758 v 3.219 h 7.105 v 4.901 h -7.105 v 3.364 h 8.758 V 0 h -13.659 v -21.257 l 13.659,-0.029 z"
             style="font-size:29px;font-family:TheBoldFont;fill:#985021"
             id="path396" /><path
             d="m 53.504955,-21.315 h 5.046 L 59.797955,0 h -4.901 l -0.522,-8.7 -2.958,8.7 h -4.901 l -3.132,-9.048 -0.58,9.048 h -4.93 l 1.363,-21.315 h 5.046 l 4.669,13.34 z"
             style="font-size:29px;font-family:TheBoldFont;fill:#985021"
             id="path398" /><path
             d="m 70.498935,-21.315 q 2.204,0 4.147,0.841 1.943,0.841 3.393,2.291 1.45,1.45 2.291,3.393 0.841,1.943 0.841,4.147 0,2.204 -0.841,4.147 -0.841,1.943 -2.291,3.393 -1.45,1.421 -3.393,2.262 -1.943,0.841 -4.147,0.841 -2.204,0 -4.147,-0.841 -1.943,-0.841 -3.393,-2.262 -1.421,-1.45 -2.262,-3.393 -0.841,-1.943 -0.841,-4.147 0,-2.204 0.841,-4.147 0.841,-1.943 2.262,-3.393 1.45,-1.45 3.393,-2.291 1.943,-0.841 4.147,-0.841 z m 0,16.414 q 1.189,0 2.233,-0.435 1.044,-0.464 1.827,-1.247 0.783,-0.783 1.218,-1.827 0.464,-1.044 0.464,-2.233 0,-1.189 -0.464,-2.233 -0.435,-1.044 -1.218,-1.827 -0.783,-0.783 -1.827,-1.218 -1.044,-0.464 -2.233,-0.464 -1.189,0 -2.233,0.464 -1.044,0.435 -1.827,1.218 -0.783,0.783 -1.247,1.827 -0.435,1.044 -0.435,2.233 0,1.189 0.435,2.233 0.464,1.044 1.247,1.827 0.783,0.783 1.827,1.247 1.044,0.435 2.233,0.435 z m 0.145,-23.084 h 4.379 l -2.349,4.93 h -4.408 z"
             style="font-size:29px;font-family:TheBoldFont;fill:#985021"
             id="path400" /><path
             d="m 89.058883,-5.51 q -0.377,0.058 -0.754,0.087 -0.377,0.029 -0.783,0.058 V 0 h -4.901 v -21.228 h 4.901 q 1.827,0.029 3.422,0.667 1.595,0.638 2.784,1.711 1.218,1.073 1.885,2.494 0.696,1.421 0.696,3.045 0,1.711 -0.725,3.19 -0.725,1.45 -2.03,2.523 l 4.698,7.598 h -5.771 z m -1.537,-4.785 q 0.783,-0.029 1.479,-0.261 0.725,-0.261 1.247,-0.667 0.551,-0.406 0.841,-0.928 0.319,-0.551 0.319,-1.16 0,-0.609 -0.319,-1.131 -0.29,-0.522 -0.841,-0.928 -0.522,-0.406 -1.247,-0.638 -0.696,-0.261 -1.479,-0.29 z"
             style="font-size:29px;font-family:TheBoldFont;fill:#985021"
             id="path402" /><path
             d="m 105.29885,0 h -4.901 v -21.315 h 4.901 z"
             style="font-size:29px;font-family:TheBoldFont;fill:#985021"
             id="path404" /><path
             d="m 120.37883,0 -0.841,-2.581 h -6.699 l -0.87,2.581 h -5.191 l 7.25,-21.286 h 4.64 L 125.54083,0 Z m -5.858,-7.482 h 3.451 l -1.682,-5.162 z"
             style="font-size:29px;font-family:TheBoldFont;fill:#985021"
             id="path406" /><path
             d="m 142.85373,-21.46 h 5.191 l -7.25,21.46 h -4.64 l -6.873,-21.46 h 5.162 l 4.089,13.166 z"
             style="font-size:29px;font-family:TheBoldFont;fill:#985021"
             id="path408" /><path
             d="m 153.11969,0 h -4.901 v -21.315 h 4.901 z"
             style="font-size:29px;font-family:TheBoldFont;fill:#985021"
             id="path410" /><path
             d="m 166.95267,-21.46 h 5.191 l -7.25,21.46 h -4.64 l -6.873,-21.46 h 5.162 l 4.089,13.166 z"
             style="font-size:29px;font-family:TheBoldFont;fill:#985021"
             id="path412" /><path
             d="m 184.49761,0 -0.841,-2.581 h -6.699 l -0.87,2.581 h -5.191 l 7.25,-21.286 h 4.64 L 189.65961,0 Z m -5.858,-7.482 h 3.451 l -1.682,-5.162 z"
             style="font-size:29px;font-family:TheBoldFont;fill:#985021"
             id="path414" /></g><g
           id="g1966"><g
             id="g1932"><path
               fill="#d07536"
               d="m 235.967,7.946 c 0.137,-1.932 4.05,-1.396 6.09,-0.489 2.333,1.035 4.56,1.896 6.136,3.782 0.346,0.415 5.093,6.103 5.093,6.103 0,0 1.15,-2.206 1.397,-2.567 1.741,-2.561 4.087,-4.004 6.313,-5.096 0.928,-0.455 3.029,-0.907 4.691,-0.984 0.554,-0.023 2.132,0.373 2.85,0.703 1.638,0.725 0.486,1.957 -1.708,3.251 -0.824,0.486 -5.831,3.961 -6.604,4.538 -1.776,1.328 -3.879,2.475 -3.879,2.475 l -0.414,1.473 -2.973,2.1 c 0,0 -10.949,-8.527 -11.988,-9.904 -0.729,-0.966 -2.223,-2.006 -3.041,-2.848 -0.585,-0.601 -2.413,-1.361 -1.871,-2.941"
               id="path1928" /><path
               fill="#010002"
               d="m 252.955,23.348 -0.054,-0.042 c -0.447,-0.349 -10.971,-8.549 -12.005,-9.919 -0.436,-0.577 -1.146,-1.181 -1.833,-1.763 -0.45,-0.381 -0.875,-0.742 -1.2,-1.076 -0.127,-0.131 -0.317,-0.27 -0.537,-0.432 -0.676,-0.497 -1.574,-1.158 -1.449,-2.207 0.01,-0.109 0.033,-0.213 0.066,-0.311 0.007,-0.029 0.018,-0.061 0.027,-0.092 l 0.006,0.004 c 0.104,-0.238 0.28,-0.438 0.532,-0.591 1.256,-0.766 4.051,-0.23 5.585,0.451 0.211,0.093 0.42,0.185 0.628,0.275 2.104,0.925 4.094,1.798 5.542,3.533 0.318,0.38 4.354,5.218 5.004,5.997 0.248,-0.473 1.123,-2.139 1.339,-2.457 1.81,-2.658 4.226,-4.083 6.349,-5.125 0.963,-0.472 3.082,-0.917 4.727,-0.994 0.56,-0.025 2.146,0.367 2.893,0.712 0.526,0.233 0.805,0.535 0.825,0.899 0.038,0.668 -0.787,1.492 -2.524,2.518 -0.834,0.49 -5.854,3.978 -6.598,4.532 -1.637,1.226 -3.574,2.309 -3.854,2.463 l -0.414,1.468 z M 236.059,7.953 c -0.096,0.931 0.712,1.522 1.375,2.011 0.228,0.168 0.423,0.311 0.562,0.453 0.319,0.327 0.74,0.686 1.188,1.064 0.693,0.588 1.412,1.197 1.86,1.791 0.983,1.303 11.086,9.195 11.917,9.844 l 2.891,-2.039 0.416,-1.479 0.034,-0.02 c 0.021,-0.011 2.118,-1.157 3.867,-2.466 0.745,-0.557 5.776,-4.053 6.614,-4.546 2.053,-1.21 2.456,-1.943 2.434,-2.343 -0.017,-0.288 -0.258,-0.538 -0.717,-0.74 -0.73,-0.336 -2.273,-0.724 -2.809,-0.695 -1.623,0.075 -3.711,0.513 -4.655,0.975 -2.103,1.032 -4.49,2.439 -6.276,5.064 -0.239,0.354 -1.38,2.537 -1.391,2.559 l -0.065,0.123 -0.088,-0.105 c 0,0 -4.746,-5.689 -5.093,-6.104 -1.42,-1.701 -3.39,-2.566 -5.473,-3.481 -0.211,-0.09 -0.42,-0.183 -0.63,-0.276 -1.498,-0.664 -4.213,-1.195 -5.415,-0.461 -0.246,0.15 -0.41,0.348 -0.49,0.59 -0.027,0.095 -0.045,0.187 -0.056,0.275 0.002,0.001 0,0.004 0,0.006 z"
               id="path1930" /></g><g
             id="g1936"><path
               fill="#010002"
               d="m 253.324,17.274 -0.276,-0.005 c 0,-0.038 0.058,-3.78 -0.028,-4.509 l -0.008,-0.072 c -0.095,-0.824 -0.345,-3.017 -2.254,-5.381 l -0.245,-0.305 c -1.312,-1.633 -2.349,-2.924 -4.381,-2.658 l -0.036,-0.277 c 2.186,-0.287 3.265,1.059 4.631,2.76 l 0.246,0.304 c 1.961,2.427 2.217,4.677 2.313,5.524 l 0.009,0.071 c 0.087,0.75 0.033,4.393 0.029,4.548 z"
               id="path1934" /></g><g
             id="g1940"><path
               fill="#010002"
               d="m 253.161,17.403 c -0.01,-0.02 -1.656,-4.02 -3.662,-7.123 -0.997,-1.54 -2.074,-2.279 -2.68,-2.576 -2.847,-1.391 -8.691,-2.008 -8.966,-1.998 l -0.066,-0.27 c 0.269,-0.094 5.956,0.384 8.784,1.768 1.653,0.809 2.531,1.836 3.547,3.568 0.229,0.389 3.234,6.389 3.292,6.51 z"
               id="path1938" /></g><g
             id="g1944"><path
               fill="#010002"
               d="m 253.424,17.344 -0.276,-0.003 c 0.007,-0.557 0.661,-5.379 1.604,-7.031 1.527,-2.67 5.776,-4.465 6.268,-4.549 0.032,-0.006 0.109,-0.02 0.17,0.033 l -0.181,0.211 0.09,-0.105 -0.021,0.135 c -0.318,0.013 -4.58,1.781 -6.086,4.416 -0.901,1.579 -1.561,6.364 -1.568,6.893 z"
               id="path1942" /></g><g
             id="g1950"><path
               id="ellipse1946"
               transform="matrix(0.9999,0.0107,-0.0107,0.9999,0.0842,-2.7909)"
               style="fill:#d07536"
               d="m 261.776,6.4780002 a 0.685,0.58499998 0 0 1 -0.685,0.5849999 0.685,0.58499998 0 0 1 -0.685,-0.5849999 0.685,0.58499998 0 0 1 0.685,-0.585 0.685,0.58499998 0 0 1 0.685,0.585 z" /><path
               fill="#010002"
               d="m 261.083,7.204 c -0.454,-0.007 -0.819,-0.336 -0.815,-0.736 0.007,-0.4 0.378,-0.721 0.834,-0.715 0.453,0.006 0.818,0.336 0.813,0.734 -0.005,0.403 -0.378,0.722 -0.832,0.717 z m 0.014,-1.171 c -0.3,-0.003 -0.548,0.193 -0.552,0.438 -0.003,0.246 0.24,0.448 0.542,0.453 0.301,0.003 0.549,-0.193 0.551,-0.439 0.004,-0.245 -0.24,-0.449 -0.541,-0.452 z"
               id="path1948" /></g><g
             id="g1956"><path
               id="ellipse1952"
               transform="matrix(0.9999,0.0125,-0.0125,0.9999,0.0786,-3.0765)"
               style="fill:#d07536"
               d="m 247.046,4.75 a 0.704,0.58499998 0 0 1 -0.704,0.585 0.704,0.58499998 0 0 1 -0.704,-0.585 0.704,0.58499998 0 0 1 0.704,-0.585 0.704,0.58499998 0 0 1 0.704,0.585 z" /><path
               fill="#010002"
               d="M 246.334,5.476 C 245.87,5.471 245.495,5.14 245.501,4.74 c 0.006,-0.398 0.387,-0.719 0.851,-0.713 0.465,0.005 0.838,0.336 0.833,0.734 -0.005,0.401 -0.387,0.72 -0.851,0.715 z m 0.015,-1.17 c -0.312,-0.004 -0.567,0.192 -0.57,0.438 -0.004,0.246 0.247,0.448 0.56,0.452 0.311,0.005 0.566,-0.193 0.569,-0.438 0.002,-0.244 -0.248,-0.448 -0.559,-0.452 z"
               id="path1954" /></g><g
             id="g1960"><path
               fill="#985021"
               d="m 267.675,12.028 c 0,0 -3.323,2.176 -4.435,2.972 -1.081,0.772 -4.459,3.089 -4.459,3.089 l -2.541,1.531 -0.356,1.443 -2.942,2.053 -6.213,-4.945 -2.468,-1.957 -2.603,-2.25 -1.258,-1.428 -1.442,-1.244 -2.169,-1.86 c 0,0 -0.33,-0.22 -0.499,-0.467 -0.581,-0.855 -0.03,-1.581 -0.03,-1.581 l 4.207,2.654 12.573,11.644 1.792,-1.285 0.185,-1.273 7.838,-5.911 2.69,-2.117 2.056,-1.118 1.257,-0.354 c 0,0 0.49,0.457 0.366,0.829 -0.246,0.741 -1.549,1.575 -1.549,1.575 z"
               id="path1958" /></g><g
             id="g1964"><path
               fill="#010002"
               d="m 253.039,21.812 -0.063,-0.063 c -0.12,-0.118 -1.914,-1.778 -3.991,-3.702 -3.57,-3.305 -8.014,-7.417 -8.171,-7.6 -0.387,-0.446 -3.098,-2.074 -4.119,-2.689 -0.396,-0.236 -0.474,-0.285 -0.493,-0.301 l 0.118,-0.143 -0.06,0.07 0.056,-0.074 c 0.024,0.018 0.223,0.137 0.474,0.287 1.124,0.676 3.757,2.259 4.163,2.728 0.15,0.173 4.778,4.456 8.156,7.583 1.99,1.843 3.596,3.329 3.938,3.65 0.307,-0.238 1.45,-1.039 1.701,-1.215 l 0.184,-1.271 0.031,-0.023 c 0.061,-0.046 6.06,-4.537 6.83,-5.149 2.819,-2.241 6.374,-4.8 7.301,-4.266 l -0.091,0.163 c -0.644,-0.375 -3.23,1.176 -7.097,4.25 -0.743,0.588 -6.333,4.778 -6.803,5.129 l -0.185,1.276 -0.033,0.022 c -0.669,0.468 -1.694,1.193 -1.78,1.277 z"
               id="path1962" /></g></g><g
           aria-label="Projeto"
           transform="translate(103.3867,20.5273)"
           id="text1968"
           style="font-size:12px;font-family:Arial-BoldItalicMT"><path
             d="m 2.3613281,-7.7753906 v 3.2871094 h 1.4882813 q 0.8261718,0 1.2773437,-0.4277344 0.4511719,-0.4277344 0.4511719,-1.21875 0,-0.7851563 -0.4511719,-1.2128906 Q 4.6757812,-7.7753906 3.8496094,-7.7753906 Z M 1.1777344,-8.7480469 h 2.671875 q 1.4707031,0 2.2207031,0.6679688 0.7558594,0.6621094 0.7558594,1.9453125 0,1.2949219 -0.7558594,1.9570312 -0.75,0.6621094 -2.2207031,0.6621094 H 2.3613281 V 0 H 1.1777344 Z"
             style="font-size:12px;font-family:Arial-BoldItalicMT"
             id="path419" /><path
             d="m 11.958984,-5.5546875 q -0.18164,-0.1054687 -0.398437,-0.1523437 -0.210938,-0.052734 -0.46875,-0.052734 -0.914063,0 -1.4062501,0.5976562 -0.4863281,0.5917969 -0.4863281,1.7050781 V 0 H 8.1152344 v -6.5625 h 1.0839844 v 1.0195313 q 0.3398437,-0.5976563 0.8847652,-0.8847657 0.544922,-0.2929687 1.324219,-0.2929687 0.111328,0 0.246094,0.017578 0.134766,0.011719 0.298828,0.041016 z"
             style="font-size:12px;font-family:Arial-BoldItalicMT"
             id="path421" /><path
             d="m 15.369141,-5.8066406 q -0.867188,0 -1.371094,0.6796875 -0.503906,0.6738281 -0.503906,1.8515625 0,1.1777343 0.498047,1.8574219 0.503906,0.67382808 1.376953,0.67382808 0.861328,0 1.365234,-0.67968748 0.503906,-0.6796875 0.503906,-1.8515625 0,-1.1660156 -0.503906,-1.8457031 -0.503906,-0.6855469 -1.365234,-0.6855469 z m 0,-0.9140625 q 1.40625,0 2.208984,0.9140625 0.802734,0.9140625 0.802734,2.53125 0,1.6113281 -0.802734,2.53124998 -0.802734,0.91406249 -2.208984,0.91406249 -1.41211,0 -2.214844,-0.91406249 -0.796875,-0.91992188 -0.796875,-2.53124998 0,-1.6171875 0.796875,-2.53125 0.802734,-0.9140625 2.214844,-0.9140625 z"
             style="font-size:12px;font-family:Arial-BoldItalicMT"
             id="path423" /><path
             d="m 20.167969,-6.5625 h 1.078125 v 6.6796875 q 0,1.2539062 -0.480469,1.8164062 -0.474609,0.5625001 -1.535156,0.5625001 H 18.820312 V 1.5820312 h 0.28711 q 0.615234,0 0.83789,-0.2871093 0.222657,-0.28125 0.222657,-1.1777344 z m 0,-2.5546875 h 1.078125 v 1.3652344 h -1.078125 z"
             style="font-size:12px;font-family:Arial-BoldItalicMT"
             id="path425" /><path
             d="m 29.115234,-3.5507813 v 0.5273438 h -4.957031 q 0.07031,1.1132813 0.667969,1.6992188 0.603515,0.58007808 1.675781,0.58007808 0.621094,0 1.201172,-0.15234376 0.585937,-0.15234372 1.160156,-0.45703122 v 1.01953122 q -0.580078,0.24609376 -1.189453,0.375 -0.609375,0.12890625 -1.236328,0.12890625 -1.570313,0 -2.490234,-0.91406249 -0.914063,-0.91406248 -0.914063,-2.47265628 0,-1.6113281 0.867188,-2.5546875 0.873046,-0.9492187 2.349609,-0.9492187 1.324219,0 2.091797,0.8554687 0.773437,0.8496094 0.773437,2.3144531 z m -1.078125,-0.3164062 q -0.01172,-0.8847656 -0.498047,-1.4121094 -0.480468,-0.5273437 -1.277343,-0.5273437 -0.902344,0 -1.447266,0.5097656 -0.539062,0.5097656 -0.621094,1.4355469 z"
             style="font-size:12px;font-family:Arial-BoldItalicMT"
             id="path427" /><path
             d="M 31.951172,-8.4257813 V -6.5625 h 2.220703 v 0.8378906 h -2.220703 v 3.5625 q 0,0.8027344 0.216797,1.03125 0.222656,0.22851565 0.896484,0.22851565 h 1.107422 V 0 h -1.107422 q -1.248047,0 -1.722656,-0.46289063 -0.47461,-0.46875 -0.47461,-1.69921877 v -3.5625 H 30.076172 V -6.5625 h 0.791015 v -1.8632813 z"
             style="font-size:12px;font-family:Arial-BoldItalicMT"
             id="path429" /><path
             d="m 38.132812,-5.8066406 q -0.867187,0 -1.371093,0.6796875 -0.503907,0.6738281 -0.503907,1.8515625 0,1.1777343 0.498047,1.8574219 0.503907,0.67382808 1.376953,0.67382808 0.861329,0 1.365235,-0.67968748 0.503906,-0.6796875 0.503906,-1.8515625 0,-1.1660156 -0.503906,-1.8457031 -0.503906,-0.6855469 -1.365235,-0.6855469 z m 0,-0.9140625 q 1.40625,0 2.208985,0.9140625 0.802734,0.9140625 0.802734,2.53125 0,1.6113281 -0.802734,2.53124998 -0.802735,0.91406249 -2.208985,0.91406249 -1.412109,0 -2.214843,-0.91406249 -0.796875,-0.91992188 -0.796875,-2.53124998 0,-1.6171875 0.796875,-2.53125 0.802734,-0.9140625 2.214843,-0.9140625 z"
             style="font-size:12px;font-family:Arial-BoldItalicMT"
             id="path431" /></g><g
           aria-label="20 Anos da BibliotecaComunitária Paulo Freire"
           transform="translate(103.3867,67.3867)"
           id="text1974"><path
             d="M 3.0416051,-1.315707 H 8.4979195 V 0 H 1.160918 v -1.315707 q 0.8900371,-0.9209949 2.4224488,-2.4688856 1.5401512,-1.55563 1.9348633,-2.0045183 0.7507269,-0.8436004 1.0448261,-1.4240594 0.3018387,-0.5881984 0.3018387,-1.1531785 0,-0.9209949 -0.6501141,-1.5014539 -0.6423746,-0.5804593 -1.6794613,-0.5804593 -0.735248,0 -1.5556301,0.255402 -0.8126425,0.2554022 -1.7413769,0.7739456 v -1.5788486 q 0.9442133,-0.379233 1.7645953,-0.572719 0.820382,-0.193487 1.5014539,-0.193487 1.7955531,0 2.8635977,0.897777 1.0680445,0.8977764 1.0680445,2.3992303 0,0.7120297 -0.2708809,1.3544043 -0.2631414,0.6346351 -0.9674316,1.5014539 -0.1934863,0.2244441 -1.2305731,1.3002281 -1.0370867,1.0680445 -2.9255132,2.9951684 z"
             style="font-size:15.8504px;font-family:Arial-BoldMT"
             id="path434" /><path
             d="m 15.122891,-10.525656 q -1.207355,0 -1.818772,1.1918755 -0.603677,1.1841364 -0.603677,3.5678879 0,2.3760121 0.603677,3.5678879 0.611417,1.1841363 1.818772,1.1841363 1.215094,0 1.818771,-1.1841363 0.611417,-1.1918758 0.611417,-3.5678879 0,-2.3837515 -0.611417,-3.5678879 -0.603677,-1.1918755 -1.818771,-1.1918755 z m 0,-1.238313 q 1.942603,0 2.964211,1.540151 1.029347,1.5324122 1.029347,4.4579254 0,2.9177739 -1.029347,4.457925 -1.021608,1.53241174 -2.964211,1.53241174 -1.942603,0 -2.97195,-1.53241174 -1.021608,-1.5401511 -1.021608,-4.457925 0,-2.9255132 1.021608,-4.4579254 1.029347,-1.540151 2.97195,-1.540151 z"
             style="font-size:15.8504px;font-family:Arial-BoldMT"
             id="path436" /><path
             d="m 30.625015,-10.014852 -2.120611,5.7504133 h 4.24896 z m -0.882298,-1.540151 h 1.772335 L 35.918801,0 H 34.293515 L 33.24095,-2.9642105 H 28.032298 L 26.979732,0 h -1.648503 z"
             style="font-size:15.8504px;font-family:Arial-BoldMT"
             id="path438" /><path
             d="M 44.749518,-5.2318703 V 0 h -1.424059 v -5.1854336 q 0,-1.230573 -0.479846,-1.8419898 -0.479846,-0.6114168 -1.439538,-0.6114168 -1.153179,0 -1.818772,0.735248 -0.665593,0.7352481 -0.665593,2.0045184 V 0 h -1.431799 v -8.6681875 h 1.431799 v 1.3466649 q 0.510804,-0.7816848 1.199615,-1.1686575 0.696551,-0.3869726 1.602067,-0.3869726 1.493715,0 2.259921,0.9287344 0.766205,0.9209949 0.766205,2.716548 z"
             style="font-size:15.8504px;font-family:Arial-BoldMT"
             id="path440" /><path
             d="m 50.948817,-7.669798 q -1.145439,0 -1.811032,0.8977765 -0.665593,0.8900371 -0.665593,2.4456672 0,1.5556301 0.657854,2.4534066 0.665593,0.89003715 1.818771,0.89003715 1.1377,0 1.803293,-0.89777655 0.665593,-0.8977766 0.665593,-2.4456672 0,-1.5401512 -0.665593,-2.4379277 -0.665593,-0.905516 -1.803293,-0.905516 z m 0,-1.2073547 q 1.857469,0 2.917774,1.2073547 1.060305,1.2073547 1.060305,3.3434437 0,2.1283496 -1.060305,3.34344375 -1.060305,1.20735469 -2.917774,1.20735469 -1.865208,0 -2.925513,-1.20735469 -1.052566,-1.21509415 -1.052566,-3.34344375 0,-2.136089 1.052566,-3.3434437 1.060305,-1.2073547 2.925513,-1.2073547 z"
             style="font-size:15.8504px;font-family:Arial-BoldMT"
             id="path442" /><path
             d="m 62.8134,-8.4127855 v 1.3466648 q -0.603677,-0.3095781 -1.253791,-0.4643672 -0.650114,-0.154789 -1.346665,-0.154789 -1.060305,0 -1.594327,0.325057 -0.526283,0.325057 -0.526283,0.9751711 0,0.495325 0.379233,0.7816847 0.379233,0.2786204 1.524672,0.5340223 l 0.487586,0.1083524 q 1.516933,0.325057 2.151568,0.9209949 0.642375,0.5881984 0.642375,1.6485035 0,1.2073547 -0.959693,1.91164491 -0.951952,0.70429023 -2.623674,0.70429023 -0.696551,0 -1.455017,-0.13931016 -0.750727,-0.1315707 -1.586588,-0.40245156 V -1.7878137 q 0.789424,0.410191 1.55563,0.6191563 0.766206,0.20122576 1.516933,0.20122576 1.006129,0 1.54789,-0.34053596 0.541762,-0.3482754 0.541762,-0.9751711 0,-0.580459 -0.394712,-0.8900371 -0.386973,-0.3095781 -1.710419,-0.5959379 l -0.495325,-0.1160918 q -1.323447,-0.2786203 -1.911645,-0.8513398 -0.588199,-0.580459 -0.588199,-1.5865879 0,-1.2228336 0.866819,-1.8884266 0.866819,-0.6655929 2.461146,-0.6655929 0.789424,0 1.485975,0.1160918 0.696551,0.1160918 1.284749,0.3482754 z"
             style="font-size:15.8504px;font-family:Arial-BoldMT"
             id="path444" /><path
             d="m 76.287787,-7.3524805 v -4.6901085 h 1.424059 V 0 h -1.424059 v -1.3002281 q -0.448888,0.77394529 -1.1377,1.15317849 -0.681072,0.37149375 -1.640764,0.37149375 -1.571109,0 -2.561759,-1.25379144 -0.98291,-1.2537914 -0.98291,-3.297007 0,-2.0432156 0.98291,-3.297007 0.99065,-1.2537914 2.561759,-1.2537914 0.959692,0 1.640764,0.3792332 0.688812,0.3714937 1.1377,1.145439 z m -4.852637,3.0261262 q 0,1.571109 0.642374,2.4688856 0.650114,0.89003706 1.780075,0.89003706 1.12996,0 1.780074,-0.89003706 0.650114,-0.8977766 0.650114,-2.4688856 0,-1.571109 -0.650114,-2.4611461 -0.650114,-0.8977765 -1.780074,-0.8977765 -1.129961,0 -1.780075,0.8977765 -0.642374,0.8900371 -0.642374,2.4611461 z"
             style="font-size:15.8504px;font-family:Arial-BoldMT"
             id="path446" /><path
             d="m 84.584479,-4.3573121 q -1.725899,0 -2.391491,0.3947121 -0.665593,0.3947121 -0.665593,1.3466648 0,0.7584665 0.495325,1.2073547 0.503064,0.44114886 1.362143,0.44114886 1.184137,0 1.896166,-0.83586096 0.719769,-0.8436004 0.719769,-2.2367019 v -0.3173176 z m 2.840379,-0.5881984 V 0 h -1.42406 v -1.315707 q -0.487585,0.78942419 -1.215094,1.16865739 -0.727508,0.37149375 -1.780074,0.37149375 -1.331186,0 -2.12061,-0.7429875 -0.781685,-0.75072694 -0.781685,-2.00451834 0,-1.4627567 0.975171,-2.2057442 0.982911,-0.7429874 2.925514,-0.7429874 h 1.996778 v -0.1393102 q 0,-0.9829106 -0.650114,-1.5169328 -0.642374,-0.5417617 -1.811032,-0.5417617 -0.742987,0 -1.447277,0.1780074 -0.704291,0.1780074 -1.354405,0.5340223 v -1.3157071 q 0.781685,-0.3018386 1.516933,-0.4488883 0.735248,-0.154789 1.431799,-0.154789 1.880687,0 2.809421,0.9751711 0.928735,0.9751711 0.928735,2.9564711 z"
             style="font-size:15.8504px;font-family:Arial-BoldMT"
             id="path448" /><path
             d="m 97.021786,-5.5182301 v 4.2334809 h 2.507583 q 1.261531,0 1.865211,-0.5185434 0.61141,-0.5262828 0.61141,-1.6020668 0,-1.0835234 -0.61141,-1.5943273 -0.60368,-0.5185434 -1.865211,-0.5185434 z m 0,-4.7520239 v 3.4827536 h 2.314096 q 1.145438,0 1.702678,-0.4256699 0.56498,-0.4334094 0.56498,-1.315707 0,-0.8745582 -0.56498,-1.3079676 -0.55724,-0.4334091 -1.702678,-0.4334091 z m -1.56337,-1.284749 h 3.993558 q 1.787816,0 2.755246,0.742987 0.96743,0.742988 0.96743,2.1128707 0,1.0603051 -0.49532,1.6872008 -0.49533,0.6268957 -1.45502,0.7816847 1.15318,0.2476625 1.78781,1.0370868 0.64238,0.7816847 0.64238,1.9580816 0,1.5478906 -1.05257,2.39149101 Q 101.54937,0 99.606763,0 h -4.148347 z"
             style="font-size:15.8504px;font-family:Arial-BoldMT"
             id="path450" /><path
             d="m 106.27043,-8.6681875 h 1.42406 V 0 h -1.42406 z m 0,-3.3744015 h 1.42406 v 1.803293 h -1.42406 z"
             style="font-size:15.8504px;font-family:Arial-BoldMT"
             id="path452" /><path
             d="m 116.8967,-4.3263543 q 0,-1.571109 -0.65011,-2.4611461 -0.64238,-0.8977765 -1.77234,-0.8977765 -1.12996,0 -1.78007,0.8977765 -0.64238,0.8900371 -0.64238,2.4611461 0,1.571109 0.64238,2.4688856 0.65011,0.89003706 1.78007,0.89003706 1.12996,0 1.77234,-0.89003706 0.65011,-0.8977766 0.65011,-2.4688856 z m -4.8449,-3.0261262 q 0.44889,-0.7739453 1.12996,-1.145439 0.68881,-0.3792332 1.64077,-0.3792332 1.57885,0 2.56176,1.2537914 0.99065,1.2537914 0.99065,3.297007 0,2.0432156 -0.99065,3.297007 -0.98291,1.25379144 -2.56176,1.25379144 -0.95196,0 -1.64077,-0.37149375 -0.68107,-0.3792332 -1.12996,-1.15317849 V 0 H 110.62 v -12.042589 h 1.4318 z"
             style="font-size:15.8504px;font-family:Arial-BoldMT"
             id="path454" /><path
             d="m 120.73547,-12.042589 h 1.42406 V 0 h -1.42406 z"
             style="font-size:15.8504px;font-family:Arial-BoldMT"
             id="path456" /><path
             d="m 125.13921,-8.6681875 h 1.42406 V 0 h -1.42406 z m 0,-3.3744015 h 1.42406 v 1.803293 h -1.42406 z"
             style="font-size:15.8504px;font-family:Arial-BoldMT"
             id="path458" /><path
             d="m 132.90189,-7.669798 q -1.14544,0 -1.81103,0.8977765 -0.66559,0.8900371 -0.66559,2.4456672 0,1.5556301 0.65785,2.4534066 0.66559,0.89003715 1.81877,0.89003715 1.1377,0 1.8033,-0.89777655 0.66559,-0.8977766 0.66559,-2.4456672 0,-1.5401512 -0.66559,-2.4379277 -0.6656,-0.905516 -1.8033,-0.905516 z m 0,-1.2073547 q 1.85747,0 2.91778,1.2073547 1.0603,1.2073547 1.0603,3.3434437 0,2.1283496 -1.0603,3.34344375 -1.06031,1.20735469 -2.91778,1.20735469 -1.86521,0 -2.92551,-1.20735469 -1.05257,-1.21509415 -1.05257,-3.34344375 0,-2.136089 1.05257,-3.3434437 1.0603,-1.2073547 2.92551,-1.2073547 z"
             style="font-size:15.8504px;font-family:Arial-BoldMT"
             id="path460" /><path
             d="m 140.64908,-11.129334 v 2.4611465 h 2.93325 v 1.1067418 h -2.93325 v 4.7055875 q 0,1.0603051 0.28636,1.3621437 0.29409,0.3018387 1.18413,0.3018387 h 1.46276 V 0 h -1.46276 q -1.6485,0 -2.2754,-0.6114168 -0.62689,-0.6191562 -0.62689,-2.2444414 v -4.7055875 h -1.04483 v -1.1067418 h 1.04483 v -2.4611465 z"
             style="font-size:15.8504px;font-family:Arial-BoldMT"
             id="path462" /><path
             d="m 152.86967,-4.6901086 v 0.6965508 h -6.54757 q 0.0929,1.4704961 0.88229,2.2444414 0.79717,0.76620585 2.21349,0.76620585 0.82038,0 1.58659,-0.20122575 0.77394,-0.2012258 1.53241,-0.6036774 v 1.34666487 q -0.76621,0.32505703 -1.57111,0.495325 -0.8049,0.17026797 -1.63303,0.17026797 -2.07417,0 -3.28926,-1.20735469 -1.20736,-1.20735465 -1.20736,-3.26604925 0,-2.1283496 1.14544,-3.3744015 1.15318,-1.2537914 3.10352,-1.2537914 1.74912,0 2.76299,1.1299601 1.0216,1.1222207 1.0216,3.057084 z m -1.42406,-0.4179305 q -0.0155,-1.1686574 -0.65785,-1.8652082 -0.63463,-0.6965507 -1.6872,-0.6965507 -1.19188,0 -1.91164,0.6733324 -0.71203,0.6733324 -0.82039,1.896166 z"
             style="font-size:15.8504px;font-family:Arial-BoldMT"
             id="path464" /><path
             d="m 161.44499,-8.335391 v 1.3311859 q -0.60368,-0.3327964 -1.2151,-0.495325 -0.60368,-0.1702679 -1.22283,-0.1702679 -1.38536,0 -2.15157,0.8822976 -0.76621,0.8745582 -0.76621,2.4611461 0,1.5865879 0.76621,2.4688856 0.76621,0.87455815 2.15157,0.87455815 0.61915,0 1.22283,-0.16252855 0.61142,-0.1702679 1.2151,-0.5030644 v 1.31570702 q -0.59594,0.27862031 -1.23832,0.41793046 -0.63463,0.13931016 -1.3544,0.13931016 -1.95808,0 -3.11126,-1.23057304 -1.15318,-1.230573 -1.15318,-3.3202254 0,-2.1206101 1.16092,-3.3357043 1.16866,-1.2150941 3.19639,-1.2150941 0.65786,0 1.28475,0.1393101 0.6269,0.1315707 1.2151,0.4024516 z"
             style="font-size:15.8504px;font-family:Arial-BoldMT"
             id="path466" /><path
             d="m 167.861,-4.3573121 q -1.7259,0 -2.39149,0.3947121 -0.6656,0.3947121 -0.6656,1.3466648 0,0.7584665 0.49533,1.2073547 0.50306,0.44114886 1.36214,0.44114886 1.18414,0 1.89617,-0.83586096 0.71977,-0.8436004 0.71977,-2.2367019 v -0.3173176 z m 2.84038,-0.5881984 V 0 h -1.42406 v -1.315707 q -0.48759,0.78942419 -1.2151,1.16865739 -0.7275,0.37149375 -1.78007,0.37149375 -1.33119,0 -2.12061,-0.7429875 -0.78169,-0.75072694 -0.78169,-2.00451834 0,-1.4627567 0.97518,-2.2057442 0.98291,-0.7429874 2.92551,-0.7429874 h 1.99678 v -0.1393102 q 0,-0.9829106 -0.65012,-1.5169328 -0.64237,-0.5417617 -1.81103,-0.5417617 -0.74299,0 -1.44728,0.1780074 -0.70429,0.1780074 -1.3544,0.5340223 v -1.3157071 q 0.78168,-0.3018386 1.51693,-0.4488883 0.73525,-0.154789 1.4318,-0.154789 1.88069,0 2.80942,0.9751711 0.92874,0.9751711 0.92874,2.9564711 z"
             style="font-size:15.8504px;font-family:Arial-BoldMT"
             id="path468" /><path
             d="M 10.208339,5.0540335 V 6.702537 Q 9.4189144,5.9672889 8.5211379,5.6035346 7.6311008,5.2397804 6.6249719,5.2397804 q -1.9813,0 -3.0338657,1.2150941 -1.0525656,1.2073547 -1.0525656,3.4982328 0,2.2831387 1.0525656,3.4982327 1.0525657,1.207355 3.0338657,1.207355 1.0061289,0 1.896166,-0.363755 0.8977765,-0.363754 1.6872011,-1.099002 v 1.633025 q -0.8203824,0.55724 -1.7413773,0.835861 -0.9132555,0.27862 -1.9348633,0.27862 -2.6236746,0 -4.1328679,-1.602067 -1.50919339,-1.609806 -1.50919339,-4.3882697 0,-2.7862031 1.50919339,-4.3882699 1.5091933,-1.6098063 4.1328679,-1.6098063 1.0370867,0 1.9503422,0.2786203 0.9209949,0.2708809 1.7258984,0.8203821 z"
             style="font-size:15.8504px;font-family:Arial-BoldMT"
             id="path470" /><path
             d="m 15.920055,8.0492018 q -1.145439,0 -1.811032,0.8977766 -0.665593,0.8900371 -0.665593,2.4456676 0,1.55563 0.657854,2.453406 0.665593,0.890037 1.818771,0.890037 1.1377,0 1.803293,-0.897776 0.665593,-0.897777 0.665593,-2.445667 0,-1.5401516 -0.665593,-2.4379282 -0.665593,-0.905516 -1.803293,-0.905516 z m 0,-1.2073547 q 1.857469,0 2.917774,1.2073547 1.060305,1.2073547 1.060305,3.3434442 0,2.128349 -1.060305,3.343443 -1.060305,1.207355 -2.917774,1.207355 -1.865208,0 -2.925513,-1.207355 -1.052566,-1.215094 -1.052566,-3.343443 0,-2.1360895 1.052566,-3.3434442 1.060305,-1.2073547 2.925513,-1.2073547 z"
             style="font-size:15.8504px;font-family:Arial-BoldMT"
             id="path472" /><path
             d="m 29.007471,8.7147948 q 0.534022,-0.9596922 1.27701,-1.4163199 0.742987,-0.4566278 1.749116,-0.4566278 1.354405,0 2.089653,0.9519528 0.735248,0.9442133 0.735248,2.6933301 V 15.719 h -1.431799 v -5.185434 q 0,-1.2460517 -0.441149,-1.849729 -0.441149,-0.6036774 -1.346665,-0.6036774 -1.106742,0 -1.749116,0.7352481 -0.642375,0.735248 -0.642375,2.0045183 V 15.719 h -1.431799 v -5.185434 q 0,-1.2537911 -0.441148,-1.849729 -0.441149,-0.6036774 -1.362144,-0.6036774 -1.091263,0 -1.733638,0.7429875 -0.642374,0.7352481 -0.642374,1.9967789 V 15.719 H 22.204492 V 7.0508124 h 1.431799 v 1.3466648 q 0.487585,-0.7971637 1.168657,-1.1763969 0.681072,-0.3792332 1.617546,-0.3792332 0.944213,0 1.602067,0.4798461 0.665593,0.4798461 0.98291,1.3931016 z"
             style="font-size:15.8504px;font-family:Arial-BoldMT"
             id="path474" /><path
             d="M 37.551827,12.298162 V 7.0508124 h 1.424059 v 5.1931726 q 0,1.230573 0.479846,1.84973 0.479846,0.611417 1.439539,0.611417 1.153178,0 1.818771,-0.735249 0.673333,-0.735248 0.673333,-2.004518 V 7.0508124 h 1.424059 V 15.719 h -1.424059 v -1.331186 q -0.518544,0.789424 -1.207355,1.176397 -0.681072,0.379233 -1.586588,0.379233 -1.493714,0 -2.26766,-0.928734 -0.773945,-0.928735 -0.773945,-2.716548 z m 3.583367,-5.4563149 z"
             style="font-size:15.8504px;font-family:Arial-BoldMT"
             id="path476" /><path
             d="M 54.950118,10.48713 V 15.719 h -1.424059 v -5.185434 q 0,-1.2305728 -0.479846,-1.8419896 -0.479847,-0.6114168 -1.439539,-0.6114168 -1.153178,0 -1.818771,0.7352481 -0.665593,0.735248 -0.665593,2.0045183 V 15.719 H 47.690511 V 7.0508124 h 1.431799 v 1.3466648 q 0.510804,-0.7816847 1.199615,-1.1686574 0.696551,-0.3869727 1.602067,-0.3869727 1.493714,0 2.25992,0.9287344 0.766206,0.9209949 0.766206,2.7165485 z"
             style="font-size:15.8504px;font-family:Arial-BoldMT"
             id="path478" /><path
             d="m 57.790498,7.0508124 h 1.424059 V 15.719 h -1.424059 z m 0,-3.3744016 h 1.424059 v 1.8032926 h -1.424059 z"
             style="font-size:15.8504px;font-family:Arial-BoldMT"
             id="path480" /><path
             d="m 63.602826,4.5896663 v 2.4611461 h 2.933253 v 1.1067418 h -2.933253 v 4.7055878 q 0,1.060305 0.28636,1.362143 0.294099,0.301839 1.184136,0.301839 h 1.462757 V 15.719 h -1.462757 q -1.648503,0 -2.275399,-0.611417 -0.626896,-0.619156 -0.626896,-2.244441 V 8.1575542 H 61.126201 V 7.0508124 h 1.044826 V 4.5896663 Z"
             style="font-size:15.8504px;font-family:Arial-BoldMT"
             id="path482" /><path
             d="m 72.34841,11.361688 q -1.725898,0 -2.391491,0.394712 -0.665593,0.394712 -0.665593,1.346665 0,0.758466 0.495325,1.207354 0.503064,0.441149 1.362144,0.441149 1.184136,0 1.896166,-0.835861 0.719769,-0.8436 0.719769,-2.236702 v -0.317317 z m 2.840379,-0.588199 V 15.719 H 73.76473 v -1.315707 q -0.487586,0.789424 -1.215094,1.168657 -0.727509,0.371494 -1.780075,0.371494 -1.331186,0 -2.12061,-0.742987 -0.781685,-0.750727 -0.781685,-2.004519 0,-1.462756 0.975172,-2.205744 0.98291,-0.742987 2.925513,-0.742987 h 1.996779 v -0.139311 q 0,-0.9829102 -0.650114,-1.5169325 -0.642375,-0.5417617 -1.811032,-0.5417617 -0.742988,0 -1.447278,0.1780075 -0.70429,0.1780074 -1.354404,0.5340222 v -1.315707 q 0.781684,-0.3018387 1.516932,-0.4488883 0.735248,-0.1547891 1.431799,-0.1547891 1.880687,0 2.809422,0.9751711 0.928734,0.9751711 0.928734,2.9564708 z M 72.588333,3.0417757 h 1.540151 L 71.605422,5.95181 h -1.184136 z"
             style="font-size:15.8504px;font-family:Arial-BoldMT"
             id="path484" /><path
             d="m 83.144946,8.3819983 q -0.239923,-0.1393101 -0.526283,-0.2012258 -0.27862,-0.069655 -0.619156,-0.069655 -1.207355,0 -1.857469,0.7894242 -0.642374,0.7816847 -0.642374,2.2521813 V 15.719 H 78.067865 V 7.0508124 h 1.431799 v 1.3466648 q 0.448888,-0.7894242 1.168657,-1.1686574 0.719769,-0.3869727 1.749116,-0.3869727 0.14705,0 0.325057,0.023218 0.178008,0.015479 0.394712,0.054176 z"
             style="font-size:15.8504px;font-family:Arial-BoldMT"
             id="path486" /><path
             d="m 84.638658,7.0508124 h 1.424059 V 15.719 h -1.424059 z m 0,-3.3744016 h 1.424059 v 1.8032926 h -1.424059 z"
             style="font-size:15.8504px;font-family:Arial-BoldMT"
             id="path488" /><path
             d="m 92.981787,11.361688 q -1.725898,0 -2.391491,0.394712 -0.665593,0.394712 -0.665593,1.346665 0,0.758466 0.495325,1.207354 0.503064,0.441149 1.362144,0.441149 1.184136,0 1.896166,-0.835861 0.719769,-0.8436 0.719769,-2.236702 v -0.317317 z m 2.840379,-0.588199 V 15.719 h -1.424059 v -1.315707 q -0.487586,0.789424 -1.215094,1.168657 -0.727509,0.371494 -1.780075,0.371494 -1.331185,0 -2.12061,-0.742987 -0.781684,-0.750727 -0.781684,-2.004519 0,-1.462756 0.975171,-2.205744 0.98291,-0.742987 2.925513,-0.742987 h 1.996779 v -0.139311 q 0,-0.9829102 -0.650114,-1.5169325 -0.642375,-0.5417617 -1.811032,-0.5417617 -0.742988,0 -1.447278,0.1780075 -0.70429,0.1780074 -1.354404,0.5340222 v -1.315707 q 0.781684,-0.3018387 1.516932,-0.4488883 0.735249,-0.1547891 1.431799,-0.1547891 1.880687,0 2.809422,0.9751711 0.928734,0.9751711 0.928734,2.9564708 z"
             style="font-size:15.8504px;font-family:Arial-BoldMT"
             id="path490" /><path
             d="m 105.41909,5.4487456 v 4.3418332 h 1.96583 q 1.09126,0 1.6872,-0.5649801 0.59593,-0.5649801 0.59593,-1.6098062 0,-1.0370868 -0.59593,-1.6020668 -0.59594,-0.5649801 -1.6872,-0.5649801 z m -1.56337,-1.2847492 h 3.5292 q 1.9426,0 2.93325,0.8822976 0.99839,0.8745582 0.99839,2.5694985 0,1.7104191 -0.99839,2.5849775 -0.99065,0.874558 -2.93325,0.874558 h -1.96583 V 15.719 h -1.56337 z"
             style="font-size:15.8504px;font-family:Arial-BoldMT"
             id="path492" /><path
             d="m 116.57938,11.361688 q -1.7259,0 -2.39149,0.394712 -0.66559,0.394712 -0.66559,1.346665 0,0.758466 0.49532,1.207354 0.50307,0.441149 1.36215,0.441149 1.18413,0 1.89616,-0.835861 0.71977,-0.8436 0.71977,-2.236702 v -0.317317 z m 2.84038,-0.588199 V 15.719 h -1.42406 v -1.315707 q -0.48758,0.789424 -1.21509,1.168657 -0.72751,0.371494 -1.78008,0.371494 -1.33118,0 -2.12061,-0.742987 -0.78168,-0.750727 -0.78168,-2.004519 0,-1.462756 0.97517,-2.205744 0.98291,-0.742987 2.92551,-0.742987 h 1.99678 v -0.139311 q 0,-0.9829102 -0.65011,-1.5169325 -0.64238,-0.5417617 -1.81103,-0.5417617 -0.74299,0 -1.44728,0.1780075 -0.70429,0.1780074 -1.35441,0.5340222 v -1.315707 q 0.78169,-0.3018387 1.51694,-0.4488883 0.73524,-0.1547891 1.4318,-0.1547891 1.88068,0 2.80942,0.9751711 0.92873,0.9751711 0.92873,2.9564708 z"
             style="font-size:15.8504px;font-family:Arial-BoldMT"
             id="path494" /><path
             d="M 122.20596,12.298162 V 7.0508124 h 1.42406 v 5.1931726 q 0,1.230573 0.47985,1.84973 0.47985,0.611417 1.43954,0.611417 1.15318,0 1.81877,-0.735249 0.67333,-0.735248 0.67333,-2.004518 V 7.0508124 h 1.42406 V 15.719 h -1.42406 v -1.331186 q -0.51854,0.789424 -1.20735,1.176397 -0.68108,0.379233 -1.58659,0.379233 -1.49372,0 -2.26766,-0.928734 -0.77395,-0.928735 -0.77395,-2.716548 z m 3.58337,-5.4563149 z"
             style="font-size:15.8504px;font-family:Arial-BoldMT"
             id="path496" /><path
             d="m 132.39882,3.6764108 h 1.42406 V 15.719 h -1.42406 z"
             style="font-size:15.8504px;font-family:Arial-BoldMT"
             id="path498" /><path
             d="m 140.16149,8.0492018 q -1.14544,0 -1.81103,0.8977766 -0.66559,0.8900371 -0.66559,2.4456676 0,1.55563 0.65785,2.453406 0.66559,0.890037 1.81877,0.890037 1.1377,0 1.80329,-0.897776 0.6656,-0.897777 0.6656,-2.445667 0,-1.5401516 -0.6656,-2.4379282 -0.66559,-0.905516 -1.80329,-0.905516 z m 0,-1.2073547 q 1.85747,0 2.91777,1.2073547 1.06031,1.2073547 1.06031,3.3434442 0,2.128349 -1.06031,3.343443 -1.0603,1.207355 -2.91777,1.207355 -1.86521,0 -2.92551,-1.207355 -1.05257,-1.215094 -1.05257,-3.343443 0,-2.1360895 1.05257,-3.3434442 1.0603,-1.2073547 2.92551,-1.2073547 z"
             style="font-size:15.8504px;font-family:Arial-BoldMT"
             id="path500" /><path
             d="m 151.60041,4.1639964 h 6.64046 v 1.315707 h -5.07709 v 3.4053594 h 4.58176 V 10.20077 h -4.58176 V 15.719 h -1.56337 z"
             style="font-size:15.8504px;font-family:Arial-BoldMT"
             id="path502" /><path
             d="m 164.52529,8.3819983 q -0.23993,-0.1393101 -0.52629,-0.2012258 -0.27862,-0.069655 -0.61915,-0.069655 -1.20736,0 -1.85747,0.7894242 Q 160.88,9.6822264 160.88,11.152723 V 15.719 h -1.43179 V 7.0508124 H 160.88 v 1.3466648 q 0.44889,-0.7894242 1.16866,-1.1686574 0.71977,-0.3869727 1.74912,-0.3869727 0.14705,0 0.32505,0.023218 0.17801,0.015479 0.39472,0.054176 z"
             style="font-size:15.8504px;font-family:Arial-BoldMT"
             id="path504" /><path
             d="m 173.08513,11.028891 v 0.696551 h -6.54758 q 0.0929,1.470496 0.8823,2.244441 0.79716,0.766206 2.21348,0.766206 0.82038,0 1.58659,-0.201225 0.77394,-0.201226 1.53241,-0.603678 v 1.346665 q -0.7662,0.325057 -1.57111,0.495325 -0.8049,0.170268 -1.63302,0.170268 -2.07418,0 -3.28927,-1.207355 -1.20735,-1.207354 -1.20735,-3.266049 0,-2.1283495 1.14543,-3.3744015 1.15318,-1.2537914 3.10353,-1.2537914 1.74911,0 2.76298,1.1299602 1.02161,1.1222207 1.02161,3.0570837 z m -1.42406,-0.41793 q -0.0155,-1.1686576 -0.65786,-1.8652084 -0.63463,-0.6965508 -1.6872,-0.6965508 -1.19187,0 -1.91164,0.6733325 -0.71203,0.6733324 -0.82038,1.8961657 z"
             style="font-size:15.8504px;font-family:Arial-BoldMT"
             id="path506" /><path
             d="m 175.42244,7.0508124 h 1.42406 V 15.719 h -1.42406 z m 0,-3.3744016 h 1.42406 v 1.8032926 h -1.42406 z"
             style="font-size:15.8504px;font-family:Arial-BoldMT"
             id="path508" /><path
             d="m 184.84909,8.3819983 q -0.23992,-0.1393101 -0.52628,-0.2012258 -0.27862,-0.069655 -0.61916,-0.069655 -1.20735,0 -1.85746,0.7894242 -0.64238,0.7816847 -0.64238,2.2521813 V 15.719 h -1.4318 V 7.0508124 h 1.4318 v 1.3466648 q 0.44889,-0.7894242 1.16866,-1.1686574 0.71977,-0.3869727 1.74911,-0.3869727 0.14705,0 0.32506,0.023218 0.17801,0.015479 0.39471,0.054176 z"
             style="font-size:15.8504px;font-family:Arial-BoldMT"
             id="path510" /><path
             d="m 193.40893,11.028891 v 0.696551 h -6.54757 q 0.0929,1.470496 0.88229,2.244441 0.79717,0.766206 2.21349,0.766206 0.82038,0 1.58659,-0.201225 0.77394,-0.201226 1.53241,-0.603678 v 1.346665 q -0.76621,0.325057 -1.57111,0.495325 -0.8049,0.170268 -1.63303,0.170268 -2.07417,0 -3.28926,-1.207355 -1.20736,-1.207354 -1.20736,-3.266049 0,-2.1283495 1.14544,-3.3744015 1.15318,-1.2537914 3.10352,-1.2537914 1.74912,0 2.76299,1.1299602 1.0216,1.1222207 1.0216,3.0570837 z m -1.42405,-0.41793 q -0.0155,-1.1686576 -0.65786,-1.8652084 -0.63463,-0.6965508 -1.6872,-0.6965508 -1.19187,0 -1.91164,0.6733325 -0.71203,0.6733324 -0.82039,1.8961657 z"
             style="font-size:15.8504px;font-family:Arial-BoldMT"
             id="path512" /></g></g><g
         id="g2274"
         transform="matrix(0.99614156,0,0,0.99614156,4.7461353,0.58781123)"
         style="display:inline"><g
           id="g2192"><g
             id="g2158"><path
               fill="#b02635"
               d="m 11.917,18.628 c -3.702,1.057 -1.047,8.537 1.558,12.184 2.977,4.17 5.566,8.202 9.885,10.535 0.95,0.512 13.969,7.535 13.969,7.535 0,0 -3.817,3.165 -4.421,3.799 -4.257,4.465 -6.097,9.674 -7.3,14.498 -0.503,2.012 -0.518,6.33 0.021,9.633 0.181,1.1 1.602,4.045 2.542,5.32 2.084,2.93 4.004,0.16 5.615,-4.684 0.605,-1.822 5.297,-13.092 6.103,-14.848 1.848,-4.036 3.21,-8.643 3.21,-8.643 l 2.693,-1.416 2.854,-6.705 c 0,0 -21.096,-18.072 -24.198,-19.556 -2.181,-1.042 -4.822,-3.56 -6.79,-4.825 -1.411,-0.907 -3.646,-4.193 -6.495,-2.483"
               id="path2154" /><path
               fill="#010002"
               d="m 45.937,52.676 -2.683,1.411 c -0.187,0.615 -1.494,4.871 -3.198,8.59 -0.773,1.688 -5.482,12.988 -6.095,14.83 -1.276,3.838 -2.537,5.799 -3.852,5.996 -0.717,0.105 -1.42,-0.318 -2.09,-1.26 -0.978,-1.328 -2.393,-4.291 -2.575,-5.402 -0.529,-3.266 -0.54,-7.621 -0.019,-9.707 1.15,-4.605 2.922,-9.938 7.349,-14.582 0.528,-0.554 3.405,-2.957 4.225,-3.637 C 35.215,47.954 24.145,41.981 23.272,41.511 19.303,39.366 16.785,35.81 14.12,32.043 13.857,31.67 13.591,31.296 13.323,30.919 11.366,28.177 9.172,22.894 10.143,20.11 c 0.194,-0.555 0.506,-0.986 0.927,-1.287 l -0.006,-0.01 c 0.056,-0.032 0.11,-0.064 0.166,-0.092 0.174,-0.104 0.365,-0.189 0.572,-0.255 1.99,-0.677 3.645,0.823 4.891,1.951 0.405,0.368 0.755,0.685 1.063,0.881 0.782,0.505 1.66,1.194 2.587,1.924 1.416,1.116 2.882,2.267 4.183,2.891 3.09,1.478 23.377,18.844 24.239,19.583 l 0.103,0.089 z M 11.968,18.806 c -0.005,0 -0.009,0.002 -0.014,0.002 -0.169,0.057 -0.34,0.129 -0.513,0.221 -0.44,0.256 -0.757,0.662 -0.946,1.205 -0.933,2.666 1.219,7.795 3.131,10.471 0.268,0.377 0.532,0.752 0.796,1.124 2.64,3.73 5.135,7.253 9.027,9.355 0.949,0.513 13.967,7.535 13.967,7.535 l 0.242,0.132 -0.211,0.176 c -0.04,0.03 -3.815,3.164 -4.405,3.781 -4.365,4.581 -6.117,9.857 -7.256,14.416 -0.511,2.047 -0.501,6.334 0.023,9.557 0.164,1.064 1.556,3.945 2.512,5.246 0.582,0.818 1.167,1.191 1.733,1.107 0.789,-0.117 2.046,-1.209 3.554,-5.744 0.615,-1.846 5.335,-13.178 6.11,-14.867 1.823,-3.979 3.188,-8.568 3.201,-8.617 l 0.021,-0.073 2.706,-1.423 2.773,-6.52 C 46.815,44.518 27.299,27.853 24.364,26.449 c -1.339,-0.641 -2.82,-1.807 -4.252,-2.934 -0.921,-0.724 -1.791,-1.409 -2.56,-1.902 -0.333,-0.215 -0.693,-0.541 -1.109,-0.918 -1.222,-1.108 -2.707,-2.457 -4.475,-1.889 z"
               id="path2156" /></g><g
             id="g2162"><path
               fill="#010002"
               d="m 37.209,48.988 -0.122,-0.544 c -0.074,0.016 -7.326,1.65 -8.779,1.78 l -0.143,0.015 c -1.644,0.15 -6.009,0.552 -11.39,-2.242 L 16.08,47.638 C 12.362,45.722 9.427,44.209 9.105,40.101 L 8.55,40.142 c 0.344,4.42 3.401,5.994 7.274,7.99 l 0.691,0.358 c 5.528,2.87 10.011,2.458 11.698,2.304 l 0.141,-0.013 c 1.493,-0.134 8.556,-1.725 8.855,-1.793 z"
               id="path2160" /></g><g
             id="g2166"><path
               fill="#010002"
               d="M 37.396,48.614 C 37.356,48.601 28.898,46.991 22.036,44.305 18.63,42.974 16.746,41.155 15.922,40.084 12.043,35.047 8.433,23.797 8.338,23.252 L 7.785,23.231 c -0.07,0.566 3.205,11.566 7.061,16.568 2.254,2.924 4.615,4.232 8.4,5.526 0.853,0.292 13.758,3.763 14.017,3.827 z"
               id="path2164" /></g><g
             id="g2170"><path
               fill="#010002"
               d="m 37.389,49.155 -0.122,-0.543 c -1.08,0.239 -10.184,3.49 -13.007,6.024 -4.564,4.091 -6.302,13.185 -6.265,14.185 0.005,0.068 0.01,0.227 0.135,0.322 l 0.337,-0.443 -0.168,0.223 0.257,-0.096 c -0.109,-0.633 1.572,-9.74 6.074,-13.777 2.7,-2.42 11.734,-5.668 12.759,-5.895 z"
               id="path2168" /></g><g
             id="g2176"><path
               id="ellipse2172"
               transform="matrix(0.2171,0.9762,-0.9762,0.2171,82.2418,34.8056)"
               style="fill:#a62934"
               d="m 20.8,68.672997 a 1.377,1.163 0 0 1 -1.377,1.163 1.377,1.163 0 0 1 -1.377,-1.163 1.377,1.163 0 0 1 1.377,-1.163 1.377,1.163 0 0 1 1.377,1.163 z" /><path
               fill="#010002"
               d="m 19.782,70.288 c -0.775,0.172 -1.568,-0.41 -1.766,-1.303 -0.198,-0.891 0.27,-1.754 1.047,-1.928 0.775,-0.172 1.567,0.41 1.766,1.301 0.199,0.893 -0.27,1.758 -1.047,1.93 z m -0.121,-0.545 c 0.477,-0.104 0.758,-0.67 0.625,-1.264 -0.132,-0.59 -0.625,-0.984 -1.101,-0.879 -0.477,0.105 -0.757,0.674 -0.626,1.264 0.131,0.592 0.628,0.987 1.102,0.879 z"
               id="path2174" /></g><g
             id="g2182"><path
               id="ellipse2178"
               transform="matrix(0.2169,0.9762,-0.9762,0.2169,47.2049,21.8528)"
               style="fill:#a62934"
               d="m 11.395,40.349998 a 1.414,1.163 0 0 1 -1.4140001,1.163 1.414,1.163 0 0 1 -1.414,-1.163 1.414,1.163 0 0 1 1.414,-1.163 1.414,1.163 0 0 1 1.4140001,1.163 z" /><path
               fill="#010002"
               d="M 10.35,42.001 C 9.574,42.175 8.777,41.573 8.575,40.663 8.374,39.752 8.839,38.87 9.614,38.697 c 0.775,-0.174 1.571,0.429 1.775,1.339 0.202,0.912 -0.266,1.793 -1.039,1.965 z m -0.123,-0.543 c 0.478,-0.106 0.754,-0.69 0.617,-1.301 -0.135,-0.612 -0.632,-1.022 -1.11,-0.916 -0.476,0.105 -0.751,0.689 -0.615,1.301 0.136,0.612 0.634,1.022 1.108,0.916 z"
               id="path2180" /></g><g
             id="g2186"><path
               fill="#8c182a"
               d="m 32.929,79.368 c 0,0 2.862,-7.428 3.948,-9.939 1.06,-2.441 4.167,-10.033 4.167,-10.033 l 1.933,-5.626 2.659,-1.288 2.778,-6.628 -12.18,-10.214 -4.822,-4.059 -5.451,-4.205 -3.295,-1.892 -3.013,-2.335 -4.512,-3.51 c 0,0 -0.563,-0.561 -1.113,-0.791 -1.9,-0.796 -3.086,0.584 -3.086,0.584 l 6.893,7.2 27.83,19.998 -1.76,4.05 -2.401,0.883 -8.26,17.836 -3.008,6.156 -1.327,4.5 -0.173,2.619 c 0,0 1.094,0.781 1.767,0.383 1.345,-0.788 2.426,-3.689 2.426,-3.689 z"
               id="path2184" /></g><g
             id="g2190"><path
               fill="#010002"
               d="M 45.917,46.576 45.77,46.477 C 45.487,46.289 41.518,43.436 36.921,40.13 29.023,34.45 19.193,27.383 18.776,27.147 17.747,26.567 13.462,21.895 11.848,20.135 11.222,19.454 11.096,19.319 11.057,19.287 l -0.229,0.291 0.113,-0.146 -0.12,0.141 c 0.043,0.039 0.356,0.381 0.753,0.813 1.777,1.938 5.938,6.477 7.02,7.084 0.399,0.227 10.636,7.586 18.11,12.96 4.401,3.169 7.955,5.723 8.721,6.263 -0.337,0.701 -1.423,3.278 -1.659,3.844 l -2.399,0.882 -0.032,0.068 c -0.063,0.139 -6.323,13.778 -7.197,15.542 -3.193,6.459 -6.703,14.502 -5.28,16.105 l 0.277,-0.246 c -0.99,-1.117 0.955,-6.838 5.335,-15.697 0.843,-1.703 6.683,-14.412 7.17,-15.479 l 2.405,-0.883 0.031,-0.076 c 0.632,-1.506 1.621,-3.82 1.747,-4.022 z"
               id="path2188" /></g></g><g
           id="g2232"><g
             id="g2198"><path
               fill="#ded428"
               d="m 87.458,19.339 c 3.682,1.121 0.895,8.556 -1.772,12.156 -3.049,4.117 -5.71,8.103 -10.068,10.36 -0.958,0.493 -14.098,7.288 -14.098,7.288 0,0 3.762,3.232 4.354,3.874 4.179,4.542 5.927,9.78 7.046,14.626 0.466,2.018 0.405,6.336 -0.189,9.631 -0.2,1.096 -1.674,4.016 -2.636,5.275 -2.135,2.893 -4.005,0.09 -5.531,-4.783 -0.575,-1.828 -5.066,-13.178 -5.843,-14.951 -1.777,-4.067 -3.058,-8.698 -3.058,-8.698 l -2.669,-1.462 -2.735,-6.754 c 0,0 21.409,-17.701 24.537,-19.13 2.198,-1.005 4.882,-3.474 6.875,-4.704 1.426,-0.883 3.716,-4.131 6.536,-2.369"
               id="path2194" /><path
               fill="#010002"
               d="m 50.035,45.845 0.104,-0.086 c 0.877,-0.723 21.463,-17.734 24.579,-19.156 1.313,-0.601 2.796,-1.727 4.232,-2.816 0.94,-0.714 1.828,-1.387 2.62,-1.877 0.312,-0.192 0.667,-0.503 1.076,-0.863 1.268,-1.106 2.948,-2.576 4.925,-1.864 0.208,0.067 0.397,0.155 0.569,0.263 0.055,0.029 0.109,0.063 0.163,0.096 L 88.3,19.55 c 0.415,0.309 0.718,0.744 0.903,1.303 0.924,2.801 -1.362,8.045 -3.367,10.752 -0.275,0.371 -0.548,0.741 -0.816,1.109 -2.73,3.719 -5.311,7.23 -9.316,9.307 -0.883,0.455 -12.055,6.232 -13.854,7.162 0.806,0.693 3.641,3.146 4.159,3.711 4.344,4.721 6.021,10.084 7.092,14.707 0.483,2.098 0.398,6.449 -0.19,9.705 -0.199,1.107 -1.669,4.049 -2.668,5.357 -0.687,0.93 -1.397,1.342 -2.111,1.221 -1.313,-0.219 -2.537,-2.201 -3.747,-6.061 -0.578,-1.852 -5.09,-13.232 -5.833,-14.936 -1.639,-3.75 -2.871,-8.025 -3.047,-8.645 L 52.847,52.784 Z M 87.402,19.517 c -1.758,-0.599 -3.267,0.725 -4.51,1.811 -0.423,0.369 -0.788,0.688 -1.126,0.898 -0.777,0.479 -1.659,1.148 -2.591,1.857 -1.453,1.101 -2.953,2.241 -4.303,2.857 -2.961,1.354 -22.764,17.676 -24.393,19.018 l 2.659,6.567 2.68,1.468 0.021,0.076 c 0.013,0.047 1.298,4.663 3.052,8.672 0.745,1.705 5.265,13.113 5.849,14.971 1.427,4.561 2.666,5.676 3.452,5.807 0.564,0.096 1.155,-0.268 1.752,-1.078 0.979,-1.281 2.42,-4.141 2.602,-5.199 0.581,-3.215 0.667,-7.502 0.192,-9.557 C 71.679,63.109 70.02,57.802 65.735,53.144 65.157,52.517 61.436,49.318 61.399,49.287 L 61.19,49.106 61.434,48.98 c 0,0 13.139,-6.793 14.096,-7.29 3.93,-2.034 6.484,-5.513 9.19,-9.195 0.27,-0.368 0.541,-0.738 0.816,-1.109 1.957,-2.642 4.198,-7.732 3.314,-10.415 -0.183,-0.547 -0.492,-0.957 -0.926,-1.221 -0.172,-0.096 -0.342,-0.172 -0.51,-0.229 0.002,0 -0.007,-0.002 -0.012,-0.004 z"
               id="path2196" /></g><g
             id="g2202"><path
               fill="#010002"
               d="m 61.636,49.251 0.132,-0.541 c 0.073,0.02 7.296,1.781 8.747,1.936 l 0.143,0.017 c 1.641,0.18 5.998,0.657 11.429,-2.044 l 0.701,-0.346 c 3.751,-1.852 6.711,-3.314 7.104,-7.415 l 0.553,0.054 c -0.42,4.41 -3.505,5.932 -7.413,7.859 l -0.697,0.346 C 76.758,51.89 72.283,51.4 70.598,51.215 L 70.456,51.2 c -1.487,-0.161 -8.52,-1.876 -8.82,-1.949 z"
               id="path2200" /></g><g
             id="g2206"><path
               fill="#010002"
               d="m 61.458,48.874 c 0.04,-0.011 8.524,-1.473 15.434,-4.037 3.429,-1.271 5.344,-3.059 6.188,-4.113 3.965,-4.968 7.772,-16.154 7.875,-16.699 l 0.555,-0.01 c 0.06,0.568 -3.408,11.508 -7.35,16.443 -2.305,2.883 -4.688,4.15 -8.497,5.378 -0.857,0.278 -13.821,3.521 -14.08,3.58 z"
               id="path2204" /></g><g
             id="g2210"><path
               fill="#010002"
               d="m 61.454,49.415 0.131,-0.54 c 1.077,0.259 10.123,3.668 12.901,6.251 4.49,4.171 6.07,13.295 6.014,14.293 -0.005,0.066 -0.014,0.227 -0.141,0.318 l -0.33,-0.447 0.166,0.225 -0.253,-0.1 C 80.058,68.784 78.539,59.649 74.108,55.534 71.451,53.066 62.475,49.661 61.454,49.415 Z"
               id="path2208" /></g><g
             id="g2216"><path
               id="ellipse2212"
               transform="matrix(-0.2337,0.9723,-0.9723,-0.2337,164.8831,8.5413)"
               style="fill:#ded428"
               d="m 80.452996,69.246002 a 1.377,1.1619999 0 0 1 -1.377,1.162 1.377,1.1619999 0 0 1 -1.377,-1.162 1.377,1.1619999 0 0 1 1.377,-1.162 1.377,1.1619999 0 0 1 1.377,1.162 z" /><path
               fill="#010002"
               d="m 77.675,68.905 c 0.213,-0.885 1.018,-1.457 1.789,-1.268 0.771,0.186 1.228,1.057 1.014,1.943 -0.216,0.891 -1.018,1.461 -1.789,1.273 -0.773,-0.184 -1.229,-1.057 -1.014,-1.948 z m 2.261,0.547 c 0.142,-0.59 -0.129,-1.162 -0.602,-1.273 -0.476,-0.115 -0.978,0.27 -1.119,0.859 -0.141,0.589 0.128,1.16 0.603,1.275 0.474,0.114 0.976,-0.271 1.118,-0.861 z"
               id="path2214" /></g><g
             id="g2222"><path
               id="ellipse2218"
               transform="matrix(-0.2344,0.9721,-0.9721,-0.2344,149.8231,-35.8096)"
               style="fill:#ded428"
               d="m 90.426001,41.091 a 1.414,1.165 0 0 1 -1.414,1.165 1.414,1.165 0 0 1 -1.414,-1.165 1.414,1.165 0 0 1 1.414,-1.165 1.414,1.165 0 0 1 1.414,1.165 z" /><path
               fill="#010002"
               d="m 87.611,40.755 c 0.217,-0.909 1.024,-1.495 1.798,-1.309 0.771,0.186 1.222,1.076 1.003,1.982 -0.219,0.908 -1.025,1.494 -1.796,1.309 -0.772,-0.187 -1.223,-1.075 -1.005,-1.982 z m 2.26,0.545 c 0.146,-0.61 -0.119,-1.198 -0.593,-1.313 -0.475,-0.114 -0.979,0.289 -1.127,0.897 -0.147,0.608 0.119,1.196 0.595,1.311 0.475,0.115 0.979,-0.286 1.125,-0.895 z"
               id="path2220" /></g><g
             id="g2226"><path
               fill="#e2c137"
               d="m 65.383,79.702 c 0,0 -2.729,-7.477 -3.773,-10.006 -1.015,-2.459 -3.99,-10.105 -3.99,-10.105 l -1.832,-5.658 -2.638,-1.336 -2.661,-6.674 12.355,-9.999 4.895,-3.974 5.521,-4.109 3.328,-1.834 3.055,-2.281 4.571,-3.43 c 0,0 0.573,-0.553 1.128,-0.773 1.913,-0.762 3.074,0.639 3.074,0.639 l -7.018,7.078 -28.175,19.51 1.688,4.079 2.384,0.925 7.947,17.977 2.9,6.209 1.246,4.521 0.128,2.621 c 0,0 -1.104,0.762 -1.772,0.354 -1.329,-0.814 -2.361,-3.734 -2.361,-3.734 z"
               id="path2224" /></g><g
             id="g2230"><path
               fill="#010002"
               d="m 52.973,46.688 0.15,-0.098 c 0.284,-0.183 4.304,-2.965 8.956,-6.189 7.996,-5.541 17.947,-12.436 18.369,-12.664 1.038,-0.563 5.405,-5.158 7.051,-6.889 0.637,-0.67 0.766,-0.805 0.806,-0.836 l 0.224,0.297 -0.112,-0.148 0.119,0.142 c -0.045,0.038 -0.364,0.376 -0.768,0.802 -1.812,1.905 -6.052,6.368 -7.142,6.959 -0.405,0.219 -10.768,7.399 -18.336,12.641 -4.456,3.092 -8.054,5.584 -8.83,6.108 0.325,0.709 1.366,3.302 1.594,3.872 l 2.384,0.924 0.029,0.069 c 0.062,0.138 6.082,13.886 6.923,15.665 3.082,6.518 6.45,14.615 4.999,16.197 l -0.273,-0.252 c 1.01,-1.1 -0.836,-6.854 -5.06,-15.787 C 63.243,65.784 57.629,52.972 57.159,51.897 L 54.77,50.971 54.741,50.898 c -0.606,-1.52 -1.555,-3.852 -1.676,-4.056 z"
               id="path2228" /></g></g><g
           id="g2272"><g
             id="g2238"><path
               fill="#d07536"
               d="m 15.349,13.054 c 0.276,-3.84 8.144,-2.775 12.247,-0.975 4.691,2.058 9.168,3.766 12.339,7.516 0.694,0.822 10.239,12.124 10.239,12.124 0,0 2.313,-4.384 2.81,-5.104 3.5,-5.082 8.218,-7.951 12.692,-10.119 1.868,-0.906 6.09,-1.804 9.435,-1.955 1.113,-0.05 4.286,0.737 5.729,1.396 3.293,1.438 0.979,3.887 -3.433,6.456 -1.659,0.967 -11.727,7.869 -13.282,9.018 -3.571,2.639 -7.799,4.916 -7.799,4.916 l -0.833,2.928 -5.978,4.166 c 0,0 -22.017,-16.939 -24.105,-19.672 -1.466,-1.92 -4.471,-3.988 -6.114,-5.658 -1.178,-1.193 -4.854,-2.706 -3.762,-5.846"
               id="path2234" /><path
               fill="#010002"
               d="M 49.51,43.648 49.402,43.565 C 48.502,42.873 27.343,26.58 25.263,23.859 c -0.878,-1.146 -2.304,-2.344 -3.686,-3.501 -0.907,-0.759 -1.76,-1.475 -2.414,-2.139 -0.258,-0.261 -0.638,-0.537 -1.08,-0.857 -1.36,-0.988 -3.168,-2.301 -2.914,-4.387 0.021,-0.216 0.065,-0.422 0.131,-0.613 0.019,-0.061 0.037,-0.121 0.059,-0.182 l 0.01,0.005 c 0.208,-0.474 0.564,-0.868 1.07,-1.171 2.526,-1.523 8.145,-0.461 11.231,0.895 0.423,0.185 0.843,0.367 1.262,0.549 4.233,1.836 8.23,3.571 11.144,7.016 0.64,0.757 8.756,10.367 10.063,11.916 0.499,-0.939 2.26,-4.25 2.693,-4.882 3.638,-5.284 8.493,-8.11 12.764,-10.181 1.937,-0.938 6.201,-1.823 9.506,-1.974 1.124,-0.051 4.315,0.729 5.814,1.413 1.06,0.463 1.619,1.063 1.66,1.787 0.077,1.326 -1.582,2.963 -5.076,5 -1.678,0.977 -11.771,7.902 -13.267,9.006 -3.291,2.432 -7.185,4.584 -7.75,4.892 l -0.83,2.915 z M 15.535,13.065 c -0.192,1.849 1.432,3.026 2.766,3.996 0.454,0.331 0.849,0.616 1.127,0.897 0.641,0.651 1.489,1.362 2.387,2.114 1.396,1.172 2.842,2.382 3.743,3.561 1.977,2.586 22.291,18.268 23.963,19.555 l 5.813,-4.051 0.835,-2.939 0.069,-0.037 c 0.043,-0.021 4.258,-2.301 7.777,-4.9 1.495,-1.105 11.613,-8.049 13.297,-9.029 4.129,-2.406 4.94,-3.861 4.895,-4.656 -0.033,-0.572 -0.519,-1.067 -1.442,-1.471 -1.466,-0.668 -4.572,-1.438 -5.646,-1.379 -3.264,0.146 -7.462,1.016 -9.36,1.936 -4.228,2.049 -9.03,4.846 -12.62,10.059 -0.483,0.703 -2.775,5.041 -2.799,5.087 l -0.129,0.241 -0.177,-0.21 c 0,0 -9.544,-11.3 -10.241,-12.124 C 36.938,16.336 32.978,14.618 28.787,12.799 28.366,12.618 27.946,12.435 27.521,12.25 24.509,10.928 19.05,9.874 16.632,11.334 c -0.494,0.298 -0.824,0.69 -0.985,1.172 -0.055,0.189 -0.09,0.371 -0.109,0.548 -0.002,0.004 -0.003,0.008 -0.003,0.011 z"
               id="path2236" /></g><g
             id="g2242"><path
               fill="#010002"
               d="m 50.252,31.582 -0.557,-0.009 c 10e-4,-0.076 0.114,-7.51 -0.059,-8.959 L 49.622,22.472 C 49.432,20.832 48.929,16.478 45.09,11.784 L 44.597,11.179 C 41.959,7.933 39.874,5.37 35.79,5.899 L 35.718,5.347 c 4.393,-0.57 6.563,2.1 9.311,5.481 l 0.492,0.604 c 3.941,4.821 4.459,9.292 4.654,10.976 l 0.016,0.141 c 0.175,1.487 0.067,8.725 0.061,9.033 z"
               id="path2240" /></g><g
             id="g2246"><path
               fill="#010002"
               d="M 49.924,31.839 C 49.906,31.802 46.593,23.856 42.559,17.689 40.556,14.628 38.389,13.16 37.173,12.571 31.446,9.808 19.694,8.582 19.142,8.601 L 19.008,8.063 c 0.541,-0.183 11.979,0.767 17.666,3.515 3.325,1.605 5.088,3.648 7.132,7.089 0.461,0.772 6.504,12.692 6.618,12.933 z"
               id="path2244" /></g><g
             id="g2250"><path
               fill="#010002"
               d="M 50.453,31.722 49.896,31.716 C 49.911,30.608 51.224,21.03 53.125,17.748 56.194,12.442 64.738,8.876 65.724,8.71 65.79,8.698 65.947,8.671 66.066,8.774 l -0.362,0.42 0.183,-0.211 -0.042,0.271 c -0.642,0.024 -9.21,3.538 -12.236,8.772 -1.817,3.139 -3.144,12.647 -3.156,13.696 z"
               id="path2248" /></g><g
             id="g2256"><path
               id="ellipse2252"
               transform="matrix(0.9999,0.0121,-0.0121,0.9999,0.127,-0.7937)"
               style="fill:#d07536"
               d="m 67.247003,10.135 a 1.377,1.163 0 0 1 -1.377,1.163 1.377,1.163 0 0 1 -1.377,-1.163 1.377,1.163 0 0 1 1.377,-1.1629998 1.377,1.163 0 0 1 1.377,1.1629998 z" /><path
               fill="#010002"
               d="m 65.853,11.577 c -0.913,-0.012 -1.647,-0.668 -1.638,-1.462 0.011,-0.795 0.76,-1.433 1.674,-1.421 0.913,0.012 1.646,0.667 1.636,1.461 -0.009,0.795 -0.759,1.432 -1.672,1.422 z m 0.029,-2.326 c -0.604,-0.007 -1.104,0.384 -1.109,0.872 -0.008,0.487 0.482,0.89 1.087,0.897 0.605,0.008 1.104,-0.383 1.11,-0.871 0.005,-0.487 -0.483,-0.891 -1.088,-0.898 z"
               id="path2254" /></g><g
             id="g2262"><path
               id="ellipse2258"
               transform="matrix(0.9999,0.0121,-0.0121,0.9999,0.0836,-0.4368)"
               style="fill:#d07536"
               d="m 37.627002,6.704 a 1.415,1.163 0 0 1 -1.415,1.163 1.415,1.163 0 0 1 -1.415,-1.163 1.415,1.163 0 0 1 1.415,-1.163 1.415,1.163 0 0 1 1.415,1.163 z" /><path
               fill="#010002"
               d="M 36.195,8.144 C 35.261,8.133 34.51,7.477 34.52,6.683 c 0.011,-0.794 0.778,-1.432 1.71,-1.419 0.934,0.011 1.686,0.667 1.676,1.46 -0.011,0.795 -0.776,1.431 -1.711,1.42 z m 0.03,-2.325 c -0.628,-0.008 -1.141,0.383 -1.147,0.871 -0.006,0.488 0.497,0.891 1.125,0.896 0.626,0.01 1.141,-0.381 1.146,-0.871 0.006,-0.485 -0.496,-0.89 -1.124,-0.896 z"
               id="path2260" /></g><g
             id="g2266"><path
               fill="#985021"
               d="m 79.108,21.159 c 0,0 -6.683,4.325 -8.918,5.906 C 68.018,28.6 61.224,33.2 61.224,33.2 l -5.108,3.045 -0.717,2.867 -5.916,4.076 -12.496,-9.822 -4.961,-3.891 -5.232,-4.47 -2.527,-2.837 -2.904,-2.471 -4.36,-3.696 c 0,0 -0.664,-0.435 -1.003,-0.927 -1.168,-1.697 -0.061,-3.141 -0.061,-3.141 l 8.461,5.271 25.281,23.136 3.603,-2.554 0.373,-2.53 15.76,-11.741 5.409,-4.209 4.132,-2.22 2.528,-0.706 c 0,0 0.987,0.909 0.737,1.649 -0.497,1.478 -3.115,3.13 -3.115,3.13 z"
               id="path2264" /></g><g
             id="g2270"><path
               fill="#010002"
               d="M 49.679,40.598 49.55,40.473 C 49.309,40.237 45.702,36.937 41.525,33.117 34.346,26.552 25.413,18.381 25.097,18.021 24.318,17.132 18.866,13.896 16.814,12.677 16.018,12.204 15.858,12.109 15.82,12.077 l 0.236,-0.284 -0.117,0.142 0.112,-0.146 c 0.047,0.033 0.448,0.27 0.951,0.569 2.261,1.344 7.555,4.485 8.372,5.418 0.303,0.345 9.607,8.854 16.4,15.067 4.002,3.659 7.231,6.613 7.917,7.252 0.618,-0.475 2.917,-2.065 3.421,-2.414 l 0.371,-2.527 0.061,-0.047 c 0.122,-0.09 12.188,-9.015 13.734,-10.23 5.669,-4.451 12.818,-9.535 14.682,-8.473 l -0.184,0.322 C 80.48,15.985 75.28,19.064 67.507,25.167 66.013,26.34 54.77,34.662 53.827,35.36 l -0.372,2.533 -0.067,0.045 c -1.345,0.93 -3.406,2.372 -3.58,2.537 z"
               id="path2268" /></g></g></g></g></g></g></svg>
