<?xml version="1.0" encoding="UTF-8" standalone="no"?>
<svg
   xmlns:dc="http://purl.org/dc/elements/1.1/"
   xmlns:cc="http://creativecommons.org/ns#"
   xmlns:rdf="http://www.w3.org/1999/02/22-rdf-syntax-ns#"
   xmlns:svg="http://www.w3.org/2000/svg"
   xmlns="http://www.w3.org/2000/svg"
   xmlns:sodipodi="http://sodipodi.sourceforge.net/DTD/sodipodi-0.dtd"
   xmlns:inkscape="http://www.inkscape.org/namespaces/inkscape"
   version="1.1"
   id="Layer_1"
   x="0px"
   y="0px"
   width="320"
   height="90"
   viewBox="0 0 320.00001 90"
   enable-background="new 0 0 304.666 89.666"
   xml:space="preserve"
   sodipodi:docname="3 - Logo - Rede.svg"
   inkscape:version="1.0.2 (1.0.2+r75+1)"
   inkscape:export-filename="/home/user/Dropbox/Quarentena/PPF - Logos/5 - Rede/5 - PNG/4 - Logo - Rede - Horizontal - Colorido (PNG).png"
   inkscape:export-xdpi="96"
   inkscape:export-ydpi="96"><metadata
   id="metadata6057"><rdf:RDF><cc:Work
       rdf:about=""><dc:format>image/svg+xml</dc:format><dc:type
         rdf:resource="http://purl.org/dc/dcmitype/StillImage" /><dc:title /></cc:Work></rdf:RDF></metadata><defs
   id="defs6055" /><sodipodi:namedview
   pagecolor="#ffffff"
   bordercolor="#666666"
   borderopacity="1"
   objecttolerance="10"
   gridtolerance="10"
   guidetolerance="10"
   inkscape:pageopacity="0"
   inkscape:pageshadow="2"
   inkscape:window-width="1294"
   inkscape:window-height="704"
   id="namedview6053"
   showgrid="false"
   inkscape:zoom="3.7297716"
   inkscape:cx="83.233389"
   inkscape:cy="64.164362"
   inkscape:window-x="72"
   inkscape:window-y="27"
   inkscape:window-maximized="1"
   inkscape:current-layer="layer1"
   inkscape:document-rotation="0" />



















































<g
   inkscape:groupmode="layer"
   id="layer1"
   inkscape:label="Logo - Rede"
   style="display:inline"><g
     id="g2328"
     transform="matrix(0.99614156,0,0,0.99614156,2.2461355,0.58781123)"><g
       id="g2274"><g
         id="g2192"><g
           id="g2158"><path
             fill="#b02635"
             d="m 11.917,18.628 c -3.702,1.057 -1.047,8.537 1.558,12.184 2.977,4.17 5.566,8.202 9.885,10.535 0.95,0.512 13.969,7.535 13.969,7.535 0,0 -3.817,3.165 -4.421,3.799 -4.257,4.465 -6.097,9.674 -7.3,14.498 -0.503,2.012 -0.518,6.33 0.021,9.633 0.181,1.1 1.602,4.045 2.542,5.32 2.084,2.93 4.004,0.16 5.615,-4.684 0.605,-1.822 5.297,-13.092 6.103,-14.848 1.848,-4.036 3.21,-8.643 3.21,-8.643 l 2.693,-1.416 2.854,-6.705 c 0,0 -21.096,-18.072 -24.198,-19.556 -2.181,-1.042 -4.822,-3.56 -6.79,-4.825 -1.411,-0.907 -3.646,-4.193 -6.495,-2.483"
             id="path2154" /><path
             fill="#010002"
             d="m 45.937,52.676 -2.683,1.411 c -0.187,0.615 -1.494,4.871 -3.198,8.59 -0.773,1.688 -5.482,12.988 -6.095,14.83 -1.276,3.838 -2.537,5.799 -3.852,5.996 -0.717,0.105 -1.42,-0.318 -2.09,-1.26 -0.978,-1.328 -2.393,-4.291 -2.575,-5.402 -0.529,-3.266 -0.54,-7.621 -0.019,-9.707 1.15,-4.605 2.922,-9.938 7.349,-14.582 0.528,-0.554 3.405,-2.957 4.225,-3.637 C 35.215,47.954 24.145,41.981 23.272,41.511 19.303,39.366 16.785,35.81 14.12,32.043 13.857,31.67 13.591,31.296 13.323,30.919 11.366,28.177 9.172,22.894 10.143,20.11 c 0.194,-0.555 0.506,-0.986 0.927,-1.287 l -0.006,-0.01 c 0.056,-0.032 0.11,-0.064 0.166,-0.092 0.174,-0.104 0.365,-0.189 0.572,-0.255 1.99,-0.677 3.645,0.823 4.891,1.951 0.405,0.368 0.755,0.685 1.063,0.881 0.782,0.505 1.66,1.194 2.587,1.924 1.416,1.116 2.882,2.267 4.183,2.891 3.09,1.478 23.377,18.844 24.239,19.583 l 0.103,0.089 z M 11.968,18.806 c -0.005,0 -0.009,0.002 -0.014,0.002 -0.169,0.057 -0.34,0.129 -0.513,0.221 -0.44,0.256 -0.757,0.662 -0.946,1.205 -0.933,2.666 1.219,7.795 3.131,10.471 0.268,0.377 0.532,0.752 0.796,1.124 2.64,3.73 5.135,7.253 9.027,9.355 0.949,0.513 13.967,7.535 13.967,7.535 l 0.242,0.132 -0.211,0.176 c -0.04,0.03 -3.815,3.164 -4.405,3.781 -4.365,4.581 -6.117,9.857 -7.256,14.416 -0.511,2.047 -0.501,6.334 0.023,9.557 0.164,1.064 1.556,3.945 2.512,5.246 0.582,0.818 1.167,1.191 1.733,1.107 0.789,-0.117 2.046,-1.209 3.554,-5.744 0.615,-1.846 5.335,-13.178 6.11,-14.867 1.823,-3.979 3.188,-8.568 3.201,-8.617 l 0.021,-0.073 2.706,-1.423 2.773,-6.52 C 46.815,44.518 27.299,27.853 24.364,26.449 c -1.339,-0.641 -2.82,-1.807 -4.252,-2.934 -0.921,-0.724 -1.791,-1.409 -2.56,-1.902 -0.333,-0.215 -0.693,-0.541 -1.109,-0.918 -1.222,-1.108 -2.707,-2.457 -4.475,-1.889 z"
             id="path2156" /></g><g
           id="g2162"><path
             fill="#010002"
             d="m 37.209,48.988 -0.122,-0.544 c -0.074,0.016 -7.326,1.65 -8.779,1.78 l -0.143,0.015 c -1.644,0.15 -6.009,0.552 -11.39,-2.242 L 16.08,47.638 C 12.362,45.722 9.427,44.209 9.105,40.101 L 8.55,40.142 c 0.344,4.42 3.401,5.994 7.274,7.99 l 0.691,0.358 c 5.528,2.87 10.011,2.458 11.698,2.304 l 0.141,-0.013 c 1.493,-0.134 8.556,-1.725 8.855,-1.793 z"
             id="path2160" /></g><g
           id="g2166"><path
             fill="#010002"
             d="M 37.396,48.614 C 37.356,48.601 28.898,46.991 22.036,44.305 18.63,42.974 16.746,41.155 15.922,40.084 12.043,35.047 8.433,23.797 8.338,23.252 L 7.785,23.231 c -0.07,0.566 3.205,11.566 7.061,16.568 2.254,2.924 4.615,4.232 8.4,5.526 0.853,0.292 13.758,3.763 14.017,3.827 z"
             id="path2164" /></g><g
           id="g2170"><path
             fill="#010002"
             d="m 37.389,49.155 -0.122,-0.543 c -1.08,0.239 -10.184,3.49 -13.007,6.024 -4.564,4.091 -6.302,13.185 -6.265,14.185 0.005,0.068 0.01,0.227 0.135,0.322 l 0.337,-0.443 -0.168,0.223 0.257,-0.096 c -0.109,-0.633 1.572,-9.74 6.074,-13.777 2.7,-2.42 11.734,-5.668 12.759,-5.895 z"
             id="path2168" /></g><g
           id="g2176"><path
             id="ellipse2172"
             transform="matrix(0.2171,0.9762,-0.9762,0.2171,82.2418,34.8056)"
             style="fill:#a62934"
             d="m 20.8,68.672997 a 1.377,1.163 0 0 1 -1.377,1.163 1.377,1.163 0 0 1 -1.377,-1.163 1.377,1.163 0 0 1 1.377,-1.163 1.377,1.163 0 0 1 1.377,1.163 z" /><path
             fill="#010002"
             d="m 19.782,70.288 c -0.775,0.172 -1.568,-0.41 -1.766,-1.303 -0.198,-0.891 0.27,-1.754 1.047,-1.928 0.775,-0.172 1.567,0.41 1.766,1.301 0.199,0.893 -0.27,1.758 -1.047,1.93 z m -0.121,-0.545 c 0.477,-0.104 0.758,-0.67 0.625,-1.264 -0.132,-0.59 -0.625,-0.984 -1.101,-0.879 -0.477,0.105 -0.757,0.674 -0.626,1.264 0.131,0.592 0.628,0.987 1.102,0.879 z"
             id="path2174" /></g><g
           id="g2182"><path
             id="ellipse2178"
             transform="matrix(0.2169,0.9762,-0.9762,0.2169,47.2049,21.8528)"
             style="fill:#a62934"
             d="m 11.395,40.349998 a 1.414,1.163 0 0 1 -1.4140001,1.163 1.414,1.163 0 0 1 -1.414,-1.163 1.414,1.163 0 0 1 1.414,-1.163 1.414,1.163 0 0 1 1.4140001,1.163 z" /><path
             fill="#010002"
             d="M 10.35,42.001 C 9.574,42.175 8.777,41.573 8.575,40.663 8.374,39.752 8.839,38.87 9.614,38.697 c 0.775,-0.174 1.571,0.429 1.775,1.339 0.202,0.912 -0.266,1.793 -1.039,1.965 z m -0.123,-0.543 c 0.478,-0.106 0.754,-0.69 0.617,-1.301 -0.135,-0.612 -0.632,-1.022 -1.11,-0.916 -0.476,0.105 -0.751,0.689 -0.615,1.301 0.136,0.612 0.634,1.022 1.108,0.916 z"
             id="path2180" /></g><g
           id="g2186"><path
             fill="#8c182a"
             d="m 32.929,79.368 c 0,0 2.862,-7.428 3.948,-9.939 1.06,-2.441 4.167,-10.033 4.167,-10.033 l 1.933,-5.626 2.659,-1.288 2.778,-6.628 -12.18,-10.214 -4.822,-4.059 -5.451,-4.205 -3.295,-1.892 -3.013,-2.335 -4.512,-3.51 c 0,0 -0.563,-0.561 -1.113,-0.791 -1.9,-0.796 -3.086,0.584 -3.086,0.584 l 6.893,7.2 27.83,19.998 -1.76,4.05 -2.401,0.883 -8.26,17.836 -3.008,6.156 -1.327,4.5 -0.173,2.619 c 0,0 1.094,0.781 1.767,0.383 1.345,-0.788 2.426,-3.689 2.426,-3.689 z"
             id="path2184" /></g><g
           id="g2190"><path
             fill="#010002"
             d="M 45.917,46.576 45.77,46.477 C 45.487,46.289 41.518,43.436 36.921,40.13 29.023,34.45 19.193,27.383 18.776,27.147 17.747,26.567 13.462,21.895 11.848,20.135 11.222,19.454 11.096,19.319 11.057,19.287 l -0.229,0.291 0.113,-0.146 -0.12,0.141 c 0.043,0.039 0.356,0.381 0.753,0.813 1.777,1.938 5.938,6.477 7.02,7.084 0.399,0.227 10.636,7.586 18.11,12.96 4.401,3.169 7.955,5.723 8.721,6.263 -0.337,0.701 -1.423,3.278 -1.659,3.844 l -2.399,0.882 -0.032,0.068 c -0.063,0.139 -6.323,13.778 -7.197,15.542 -3.193,6.459 -6.703,14.502 -5.28,16.105 l 0.277,-0.246 c -0.99,-1.117 0.955,-6.838 5.335,-15.697 0.843,-1.703 6.683,-14.412 7.17,-15.479 l 2.405,-0.883 0.031,-0.076 c 0.632,-1.506 1.621,-3.82 1.747,-4.022 z"
             id="path2188" /></g></g><g
         id="g2232"><g
           id="g2198"><path
             fill="#ded428"
             d="m 87.458,19.339 c 3.682,1.121 0.895,8.556 -1.772,12.156 -3.049,4.117 -5.71,8.103 -10.068,10.36 -0.958,0.493 -14.098,7.288 -14.098,7.288 0,0 3.762,3.232 4.354,3.874 4.179,4.542 5.927,9.78 7.046,14.626 0.466,2.018 0.405,6.336 -0.189,9.631 -0.2,1.096 -1.674,4.016 -2.636,5.275 -2.135,2.893 -4.005,0.09 -5.531,-4.783 -0.575,-1.828 -5.066,-13.178 -5.843,-14.951 -1.777,-4.067 -3.058,-8.698 -3.058,-8.698 l -2.669,-1.462 -2.735,-6.754 c 0,0 21.409,-17.701 24.537,-19.13 2.198,-1.005 4.882,-3.474 6.875,-4.704 1.426,-0.883 3.716,-4.131 6.536,-2.369"
             id="path2194" /><path
             fill="#010002"
             d="m 50.035,45.845 0.104,-0.086 c 0.877,-0.723 21.463,-17.734 24.579,-19.156 1.313,-0.601 2.796,-1.727 4.232,-2.816 0.94,-0.714 1.828,-1.387 2.62,-1.877 0.312,-0.192 0.667,-0.503 1.076,-0.863 1.268,-1.106 2.948,-2.576 4.925,-1.864 0.208,0.067 0.397,0.155 0.569,0.263 0.055,0.029 0.109,0.063 0.163,0.096 L 88.3,19.55 c 0.415,0.309 0.718,0.744 0.903,1.303 0.924,2.801 -1.362,8.045 -3.367,10.752 -0.275,0.371 -0.548,0.741 -0.816,1.109 -2.73,3.719 -5.311,7.23 -9.316,9.307 -0.883,0.455 -12.055,6.232 -13.854,7.162 0.806,0.693 3.641,3.146 4.159,3.711 4.344,4.721 6.021,10.084 7.092,14.707 0.483,2.098 0.398,6.449 -0.19,9.705 -0.199,1.107 -1.669,4.049 -2.668,5.357 -0.687,0.93 -1.397,1.342 -2.111,1.221 -1.313,-0.219 -2.537,-2.201 -3.747,-6.061 -0.578,-1.852 -5.09,-13.232 -5.833,-14.936 -1.639,-3.75 -2.871,-8.025 -3.047,-8.645 L 52.847,52.784 Z M 87.402,19.517 c -1.758,-0.599 -3.267,0.725 -4.51,1.811 -0.423,0.369 -0.788,0.688 -1.126,0.898 -0.777,0.479 -1.659,1.148 -2.591,1.857 -1.453,1.101 -2.953,2.241 -4.303,2.857 -2.961,1.354 -22.764,17.676 -24.393,19.018 l 2.659,6.567 2.68,1.468 0.021,0.076 c 0.013,0.047 1.298,4.663 3.052,8.672 0.745,1.705 5.265,13.113 5.849,14.971 1.427,4.561 2.666,5.676 3.452,5.807 0.564,0.096 1.155,-0.268 1.752,-1.078 0.979,-1.281 2.42,-4.141 2.602,-5.199 0.581,-3.215 0.667,-7.502 0.192,-9.557 C 71.679,63.109 70.02,57.802 65.735,53.144 65.157,52.517 61.436,49.318 61.399,49.287 L 61.19,49.106 61.434,48.98 c 0,0 13.139,-6.793 14.096,-7.29 3.93,-2.034 6.484,-5.513 9.19,-9.195 0.27,-0.368 0.541,-0.738 0.816,-1.109 1.957,-2.642 4.198,-7.732 3.314,-10.415 -0.183,-0.547 -0.492,-0.957 -0.926,-1.221 -0.172,-0.096 -0.342,-0.172 -0.51,-0.229 0.002,0 -0.007,-0.002 -0.012,-0.004 z"
             id="path2196" /></g><g
           id="g2202"><path
             fill="#010002"
             d="m 61.636,49.251 0.132,-0.541 c 0.073,0.02 7.296,1.781 8.747,1.936 l 0.143,0.017 c 1.641,0.18 5.998,0.657 11.429,-2.044 l 0.701,-0.346 c 3.751,-1.852 6.711,-3.314 7.104,-7.415 l 0.553,0.054 c -0.42,4.41 -3.505,5.932 -7.413,7.859 l -0.697,0.346 C 76.758,51.89 72.283,51.4 70.598,51.215 L 70.456,51.2 c -1.487,-0.161 -8.52,-1.876 -8.82,-1.949 z"
             id="path2200" /></g><g
           id="g2206"><path
             fill="#010002"
             d="m 61.458,48.874 c 0.04,-0.011 8.524,-1.473 15.434,-4.037 3.429,-1.271 5.344,-3.059 6.188,-4.113 3.965,-4.968 7.772,-16.154 7.875,-16.699 l 0.555,-0.01 c 0.06,0.568 -3.408,11.508 -7.35,16.443 -2.305,2.883 -4.688,4.15 -8.497,5.378 -0.857,0.278 -13.821,3.521 -14.08,3.58 z"
             id="path2204" /></g><g
           id="g2210"><path
             fill="#010002"
             d="m 61.454,49.415 0.131,-0.54 c 1.077,0.259 10.123,3.668 12.901,6.251 4.49,4.171 6.07,13.295 6.014,14.293 -0.005,0.066 -0.014,0.227 -0.141,0.318 l -0.33,-0.447 0.166,0.225 -0.253,-0.1 C 80.058,68.784 78.539,59.649 74.108,55.534 71.451,53.066 62.475,49.661 61.454,49.415 Z"
             id="path2208" /></g><g
           id="g2216"><path
             id="ellipse2212"
             transform="matrix(-0.2337,0.9723,-0.9723,-0.2337,164.8831,8.5413)"
             style="fill:#ded428"
             d="m 80.452996,69.246002 a 1.377,1.1619999 0 0 1 -1.377,1.162 1.377,1.1619999 0 0 1 -1.377,-1.162 1.377,1.1619999 0 0 1 1.377,-1.162 1.377,1.1619999 0 0 1 1.377,1.162 z" /><path
             fill="#010002"
             d="m 77.675,68.905 c 0.213,-0.885 1.018,-1.457 1.789,-1.268 0.771,0.186 1.228,1.057 1.014,1.943 -0.216,0.891 -1.018,1.461 -1.789,1.273 -0.773,-0.184 -1.229,-1.057 -1.014,-1.948 z m 2.261,0.547 c 0.142,-0.59 -0.129,-1.162 -0.602,-1.273 -0.476,-0.115 -0.978,0.27 -1.119,0.859 -0.141,0.589 0.128,1.16 0.603,1.275 0.474,0.114 0.976,-0.271 1.118,-0.861 z"
             id="path2214" /></g><g
           id="g2222"><path
             id="ellipse2218"
             transform="matrix(-0.2344,0.9721,-0.9721,-0.2344,149.8231,-35.8096)"
             style="fill:#ded428"
             d="m 90.426001,41.091 a 1.414,1.165 0 0 1 -1.414,1.165 1.414,1.165 0 0 1 -1.414,-1.165 1.414,1.165 0 0 1 1.414,-1.165 1.414,1.165 0 0 1 1.414,1.165 z" /><path
             fill="#010002"
             d="m 87.611,40.755 c 0.217,-0.909 1.024,-1.495 1.798,-1.309 0.771,0.186 1.222,1.076 1.003,1.982 -0.219,0.908 -1.025,1.494 -1.796,1.309 -0.772,-0.187 -1.223,-1.075 -1.005,-1.982 z m 2.26,0.545 c 0.146,-0.61 -0.119,-1.198 -0.593,-1.313 -0.475,-0.114 -0.979,0.289 -1.127,0.897 -0.147,0.608 0.119,1.196 0.595,1.311 0.475,0.115 0.979,-0.286 1.125,-0.895 z"
             id="path2220" /></g><g
           id="g2226"><path
             fill="#e2c137"
             d="m 65.383,79.702 c 0,0 -2.729,-7.477 -3.773,-10.006 -1.015,-2.459 -3.99,-10.105 -3.99,-10.105 l -1.832,-5.658 -2.638,-1.336 -2.661,-6.674 12.355,-9.999 4.895,-3.974 5.521,-4.109 3.328,-1.834 3.055,-2.281 4.571,-3.43 c 0,0 0.573,-0.553 1.128,-0.773 1.913,-0.762 3.074,0.639 3.074,0.639 l -7.018,7.078 -28.175,19.51 1.688,4.079 2.384,0.925 7.947,17.977 2.9,6.209 1.246,4.521 0.128,2.621 c 0,0 -1.104,0.762 -1.772,0.354 -1.329,-0.814 -2.361,-3.734 -2.361,-3.734 z"
             id="path2224" /></g><g
           id="g2230"><path
             fill="#010002"
             d="m 52.973,46.688 0.15,-0.098 c 0.284,-0.183 4.304,-2.965 8.956,-6.189 7.996,-5.541 17.947,-12.436 18.369,-12.664 1.038,-0.563 5.405,-5.158 7.051,-6.889 0.637,-0.67 0.766,-0.805 0.806,-0.836 l 0.224,0.297 -0.112,-0.148 0.119,0.142 c -0.045,0.038 -0.364,0.376 -0.768,0.802 -1.812,1.905 -6.052,6.368 -7.142,6.959 -0.405,0.219 -10.768,7.399 -18.336,12.641 -4.456,3.092 -8.054,5.584 -8.83,6.108 0.325,0.709 1.366,3.302 1.594,3.872 l 2.384,0.924 0.029,0.069 c 0.062,0.138 6.082,13.886 6.923,15.665 3.082,6.518 6.45,14.615 4.999,16.197 l -0.273,-0.252 c 1.01,-1.1 -0.836,-6.854 -5.06,-15.787 C 63.243,65.784 57.629,52.972 57.159,51.897 L 54.77,50.971 54.741,50.898 c -0.606,-1.52 -1.555,-3.852 -1.676,-4.056 z"
             id="path2228" /></g></g><g
         id="g2272"><g
           id="g2238"><path
             fill="#d07536"
             d="m 15.349,13.054 c 0.276,-3.84 8.144,-2.775 12.247,-0.975 4.691,2.058 9.168,3.766 12.339,7.516 0.694,0.822 10.239,12.124 10.239,12.124 0,0 2.313,-4.384 2.81,-5.104 3.5,-5.082 8.218,-7.951 12.692,-10.119 1.868,-0.906 6.09,-1.804 9.435,-1.955 1.113,-0.05 4.286,0.737 5.729,1.396 3.293,1.438 0.979,3.887 -3.433,6.456 -1.659,0.967 -11.727,7.869 -13.282,9.018 -3.571,2.639 -7.799,4.916 -7.799,4.916 l -0.833,2.928 -5.978,4.166 c 0,0 -22.017,-16.939 -24.105,-19.672 -1.466,-1.92 -4.471,-3.988 -6.114,-5.658 -1.178,-1.193 -4.854,-2.706 -3.762,-5.846"
             id="path2234" /><path
             fill="#010002"
             d="M 49.51,43.648 49.402,43.565 C 48.502,42.873 27.343,26.58 25.263,23.859 c -0.878,-1.146 -2.304,-2.344 -3.686,-3.501 -0.907,-0.759 -1.76,-1.475 -2.414,-2.139 -0.258,-0.261 -0.638,-0.537 -1.08,-0.857 -1.36,-0.988 -3.168,-2.301 -2.914,-4.387 0.021,-0.216 0.065,-0.422 0.131,-0.613 0.019,-0.061 0.037,-0.121 0.059,-0.182 l 0.01,0.005 c 0.208,-0.474 0.564,-0.868 1.07,-1.171 2.526,-1.523 8.145,-0.461 11.231,0.895 0.423,0.185 0.843,0.367 1.262,0.549 4.233,1.836 8.23,3.571 11.144,7.016 0.64,0.757 8.756,10.367 10.063,11.916 0.499,-0.939 2.26,-4.25 2.693,-4.882 3.638,-5.284 8.493,-8.11 12.764,-10.181 1.937,-0.938 6.201,-1.823 9.506,-1.974 1.124,-0.051 4.315,0.729 5.814,1.413 1.06,0.463 1.619,1.063 1.66,1.787 0.077,1.326 -1.582,2.963 -5.076,5 -1.678,0.977 -11.771,7.902 -13.267,9.006 -3.291,2.432 -7.185,4.584 -7.75,4.892 l -0.83,2.915 z M 15.535,13.065 c -0.192,1.849 1.432,3.026 2.766,3.996 0.454,0.331 0.849,0.616 1.127,0.897 0.641,0.651 1.489,1.362 2.387,2.114 1.396,1.172 2.842,2.382 3.743,3.561 1.977,2.586 22.291,18.268 23.963,19.555 l 5.813,-4.051 0.835,-2.939 0.069,-0.037 c 0.043,-0.021 4.258,-2.301 7.777,-4.9 1.495,-1.105 11.613,-8.049 13.297,-9.029 4.129,-2.406 4.94,-3.861 4.895,-4.656 -0.033,-0.572 -0.519,-1.067 -1.442,-1.471 -1.466,-0.668 -4.572,-1.438 -5.646,-1.379 -3.264,0.146 -7.462,1.016 -9.36,1.936 -4.228,2.049 -9.03,4.846 -12.62,10.059 -0.483,0.703 -2.775,5.041 -2.799,5.087 l -0.129,0.241 -0.177,-0.21 c 0,0 -9.544,-11.3 -10.241,-12.124 C 36.938,16.336 32.978,14.618 28.787,12.799 28.366,12.618 27.946,12.435 27.521,12.25 24.509,10.928 19.05,9.874 16.632,11.334 c -0.494,0.298 -0.824,0.69 -0.985,1.172 -0.055,0.189 -0.09,0.371 -0.109,0.548 -0.002,0.004 -0.003,0.008 -0.003,0.011 z"
             id="path2236" /></g><g
           id="g2242"><path
             fill="#010002"
             d="m 50.252,31.582 -0.557,-0.009 c 10e-4,-0.076 0.114,-7.51 -0.059,-8.959 L 49.622,22.472 C 49.432,20.832 48.929,16.478 45.09,11.784 L 44.597,11.179 C 41.959,7.933 39.874,5.37 35.79,5.899 L 35.718,5.347 c 4.393,-0.57 6.563,2.1 9.311,5.481 l 0.492,0.604 c 3.941,4.821 4.459,9.292 4.654,10.976 l 0.016,0.141 c 0.175,1.487 0.067,8.725 0.061,9.033 z"
             id="path2240" /></g><g
           id="g2246"><path
             fill="#010002"
             d="M 49.924,31.839 C 49.906,31.802 46.593,23.856 42.559,17.689 40.556,14.628 38.389,13.16 37.173,12.571 31.446,9.808 19.694,8.582 19.142,8.601 L 19.008,8.063 c 0.541,-0.183 11.979,0.767 17.666,3.515 3.325,1.605 5.088,3.648 7.132,7.089 0.461,0.772 6.504,12.692 6.618,12.933 z"
             id="path2244" /></g><g
           id="g2250"><path
             fill="#010002"
             d="M 50.453,31.722 49.896,31.716 C 49.911,30.608 51.224,21.03 53.125,17.748 56.194,12.442 64.738,8.876 65.724,8.71 65.79,8.698 65.947,8.671 66.066,8.774 l -0.362,0.42 0.183,-0.211 -0.042,0.271 c -0.642,0.024 -9.21,3.538 -12.236,8.772 -1.817,3.139 -3.144,12.647 -3.156,13.696 z"
             id="path2248" /></g><g
           id="g2256"><path
             id="ellipse2252"
             transform="matrix(0.9999,0.0121,-0.0121,0.9999,0.127,-0.7937)"
             style="fill:#d07536"
             d="m 67.247003,10.135 a 1.377,1.163 0 0 1 -1.377,1.163 1.377,1.163 0 0 1 -1.377,-1.163 1.377,1.163 0 0 1 1.377,-1.1629998 1.377,1.163 0 0 1 1.377,1.1629998 z" /><path
             fill="#010002"
             d="m 65.853,11.577 c -0.913,-0.012 -1.647,-0.668 -1.638,-1.462 0.011,-0.795 0.76,-1.433 1.674,-1.421 0.913,0.012 1.646,0.667 1.636,1.461 -0.009,0.795 -0.759,1.432 -1.672,1.422 z m 0.029,-2.326 c -0.604,-0.007 -1.104,0.384 -1.109,0.872 -0.008,0.487 0.482,0.89 1.087,0.897 0.605,0.008 1.104,-0.383 1.11,-0.871 0.005,-0.487 -0.483,-0.891 -1.088,-0.898 z"
             id="path2254" /></g><g
           id="g2262"><path
             id="ellipse2258"
             transform="matrix(0.9999,0.0121,-0.0121,0.9999,0.0836,-0.4368)"
             style="fill:#d07536"
             d="m 37.627002,6.704 a 1.415,1.163 0 0 1 -1.415,1.163 1.415,1.163 0 0 1 -1.415,-1.163 1.415,1.163 0 0 1 1.415,-1.163 1.415,1.163 0 0 1 1.415,1.163 z" /><path
             fill="#010002"
             d="M 36.195,8.144 C 35.261,8.133 34.51,7.477 34.52,6.683 c 0.011,-0.794 0.778,-1.432 1.71,-1.419 0.934,0.011 1.686,0.667 1.676,1.46 -0.011,0.795 -0.776,1.431 -1.711,1.42 z m 0.03,-2.325 c -0.628,-0.008 -1.141,0.383 -1.147,0.871 -0.006,0.488 0.497,0.891 1.125,0.896 0.626,0.01 1.141,-0.381 1.146,-0.871 0.006,-0.485 -0.496,-0.89 -1.124,-0.896 z"
             id="path2260" /></g><g
           id="g2266"><path
             fill="#985021"
             d="m 79.108,21.159 c 0,0 -6.683,4.325 -8.918,5.906 C 68.018,28.6 61.224,33.2 61.224,33.2 l -5.108,3.045 -0.717,2.867 -5.916,4.076 -12.496,-9.822 -4.961,-3.891 -5.232,-4.47 -2.527,-2.837 -2.904,-2.471 -4.36,-3.696 c 0,0 -0.664,-0.435 -1.003,-0.927 -1.168,-1.697 -0.061,-3.141 -0.061,-3.141 l 8.461,5.271 25.281,23.136 3.603,-2.554 0.373,-2.53 15.76,-11.741 5.409,-4.209 4.132,-2.22 2.528,-0.706 c 0,0 0.987,0.909 0.737,1.649 -0.497,1.478 -3.115,3.13 -3.115,3.13 z"
             id="path2264" /></g><g
           id="g2270"><path
             fill="#010002"
             d="M 49.679,40.598 49.55,40.473 C 49.309,40.237 45.702,36.937 41.525,33.117 34.346,26.552 25.413,18.381 25.097,18.021 24.318,17.132 18.866,13.896 16.814,12.677 16.018,12.204 15.858,12.109 15.82,12.077 l 0.236,-0.284 -0.117,0.142 0.112,-0.146 c 0.047,0.033 0.448,0.27 0.951,0.569 2.261,1.344 7.555,4.485 8.372,5.418 0.303,0.345 9.607,8.854 16.4,15.067 4.002,3.659 7.231,6.613 7.917,7.252 0.618,-0.475 2.917,-2.065 3.421,-2.414 l 0.371,-2.527 0.061,-0.047 c 0.122,-0.09 12.188,-9.015 13.734,-10.23 5.669,-4.451 12.818,-9.535 14.682,-8.473 l -0.184,0.322 C 80.48,15.985 75.28,19.064 67.507,25.167 66.013,26.34 54.77,34.662 53.827,35.36 l -0.372,2.533 -0.067,0.045 c -1.345,0.93 -3.406,2.372 -3.58,2.537 z"
             id="path2268" /></g></g></g><g
       id="g2326"><g
         aria-label="rede de bibliotecascomunitárias"
         transform="matrix(0.988,0,0,1,104.0527,42.5068)"
         id="text2280"><path
           d="m 5.6666575,-3.9583269 q -0.2708329,0.041667 -0.5416658,0.0625 -0.2708329,0.020833 -0.5624991,0.041667 V 0 H 1.041665 v -15.249975 h 3.5208276 q 1.3124979,0.02083 2.4583294,0.479166 1.1458315,0.458332 1.9999967,1.229164 0.8749986,0.770832 1.3541643,1.791664 0.499999,1.020832 0.499999,2.1874965 0,1.2291646 -0.520832,2.2916629 -0.5208326,1.041665 -1.4583311,1.8124971 L 12.270813,0 H 8.1249869 Z M 4.5624926,-7.3958214 q 0.5624991,-0.020833 1.0624983,-0.1874997 0.5208325,-0.1874997 0.8958319,-0.4791659 0.3958327,-0.2916662 0.6041657,-0.6666655 0.2291663,-0.3958327 0.2291663,-0.833332 0,-0.4374993 -0.2291663,-0.8124985 -0.208333,-0.375 -0.6041657,-0.666666 -0.3749994,-0.291666 -0.8958319,-0.458332 -0.4999992,-0.1875 -1.0624983,-0.208333 z"
           style="font-size:20.8333px;font-family:TheBoldFont;fill:#d8ba3c"
           id="path527" /><path
           d="m 23.395774,-11.770814 h -6.291657 v 2.312496 h 5.104159 v 3.5208276 h -5.104159 v 2.4166628 h 6.291657 V 0 H 13.58329 v -15.270809 l 9.812484,-0.02083 z"
           style="font-size:20.8333px;font-family:TheBoldFont;fill:#d8ba3c"
           id="path529" /><path
           d="m 28.249911,-15.354142 q 1.520831,0.08333 2.854162,0.729166 1.354164,0.645832 2.333329,1.687497 0.999999,1.041665 1.562498,2.416663 0.583332,1.3749975 0.583332,2.9374949 0,1.5416642 -0.562499,2.8958287 -0.562499,1.3333312 -1.562497,2.3541628 -0.979165,1.0208317 -2.312497,1.64583071 Q 29.812408,-0.0833332 28.249911,0 h -3.520828 v -15.374975 h 3.520828 z m 0,11.8124811 q 0.812498,-0.083333 1.499997,-0.416666 0.708333,-0.3541661 1.208332,-0.8749986 0.520832,-0.5416658 0.812498,-1.249998 0.291667,-0.7083322 0.291667,-1.4999976 0,-0.8124987 -0.291667,-1.5416641 -0.291666,-0.7499988 -0.812498,-1.3124978 -0.520833,-0.583333 -1.208332,-0.937499 -0.687499,-0.374999 -1.499997,-0.458332 z"
           style="font-size:20.8333px;font-family:TheBoldFont;fill:#d8ba3c"
           id="path531" /><path
           d="m 45.979025,-11.770814 h -6.291657 v 2.312496 h 5.104159 v 3.5208276 h -5.104159 v 2.4166628 h 6.291657 V 0 h -9.812484 v -15.270809 l 9.812484,-0.02083 z"
           style="font-size:20.8333px;font-family:TheBoldFont;fill:#d8ba3c"
           id="path533" /><path
           d="m 54.374785,-15.354142 q 1.520831,0.08333 2.854162,0.729166 1.354164,0.645832 2.333329,1.687497 0.999999,1.041665 1.562498,2.416663 0.583332,1.3749975 0.583332,2.9374949 0,1.5416642 -0.562499,2.8958287 -0.562499,1.3333312 -1.562497,2.3541628 -0.979165,1.0208317 -2.312496,1.64583071 Q 55.937282,-0.0833332 54.374785,0 h -3.520828 v -15.374975 h 3.520828 z m 0,11.8124811 q 0.812499,-0.083333 1.499997,-0.416666 0.708333,-0.3541661 1.208332,-0.8749986 0.520832,-0.5416658 0.812498,-1.249998 0.291667,-0.7083322 0.291667,-1.4999976 0,-0.8124987 -0.291667,-1.5416641 -0.291666,-0.7499988 -0.812498,-1.3124978 -0.520833,-0.583333 -1.208332,-0.937499 -0.687498,-0.374999 -1.499997,-0.458332 z"
           style="font-size:20.8333px;font-family:TheBoldFont;fill:#d8ba3c"
           id="path535" /><path
           d="m 72.103895,-11.770814 h -6.291656 v 2.312496 h 5.104158 v 3.5208276 h -5.104158 v 2.4166628 h 6.291656 V 0 h -9.812484 v -15.270809 l 9.812484,-0.02083 z"
           style="font-size:20.8333px;font-family:TheBoldFont;fill:#d8ba3c"
           id="path537" /><path
           d="m 85.687147,-9.2083184 q 0.979165,0.7291654 1.541664,1.7708304 0.562499,1.0208317 0.562499,2.2291631 0,1.0833316 -0.458333,2.0416634 -0.458332,0.9374984 -1.270831,1.6458306 -0.791665,0.70833221 -1.854164,1.12499821 Q 83.145484,0 81.937153,0 h -4.47916 v -15.354142 l 4.062494,0.02083 q 0.958332,0 1.812497,0.333333 0.854165,0.333333 1.499997,0.916665 0.645833,0.5625 0.999999,1.333332 0.374999,0.749998 0.374999,1.624997 0,1.041665 -0.520832,1.9166636 z m -4.708326,-2.6041626 v 1.395831 h 0.562499 q 0.520833,-0.02083 0.833332,-0.249999 0.3125,-0.229167 0.3125,-0.458333 0,-0.208333 -0.3125,-0.437499 -0.312499,-0.25 -0.854165,-0.25 z m 0.958332,8.2708201 q 0.458332,0 0.874998,-0.1249998 0.4375,-0.1458331 0.749999,-0.3749994 0.333333,-0.2291663 0.520833,-0.5208325 0.187499,-0.3124995 0.187499,-0.6458323 0,-0.3333328 -0.187499,-0.6458323 -0.1875,-0.3124995 -0.520833,-0.5416658 -0.312499,-0.2291663 -0.749999,-0.3541661 -0.416666,-0.1458331 -0.874998,-0.1458331 h -0.375 -0.04167 -0.541666 v 3.3541613 z"
           style="font-size:20.8333px;font-family:TheBoldFont;fill:#d8ba3c"
           id="path539" /><path
           d="m 92.582955,0 h -3.520828 v -15.312475 h 3.520828 z"
           style="font-size:20.8333px;font-family:TheBoldFont;fill:#d8ba3c"
           id="path541" /><path
           d="m 102.89542,-9.2083184 q 0.97917,0.7291654 1.54167,1.7708304 0.56249,1.0208317 0.56249,2.2291631 0,1.0833316 -0.45833,2.0416634 -0.45833,0.9374984 -1.27083,1.6458306 -0.79166,0.70833221 -1.85416,1.12499821 Q 100.35376,0 99.145428,0 h -4.47916 v -15.354142 l 4.062494,0.02083 q 0.958331,0 1.812498,0.333333 0.85416,0.333333 1.5,0.916665 0.64583,0.5625 0.99999,1.333332 0.375,0.749998 0.375,1.624997 0,1.041665 -0.52083,1.9166636 z m -4.708324,-2.6041626 v 1.395831 h 0.562499 q 0.520832,-0.02083 0.833332,-0.249999 0.312499,-0.229167 0.312499,-0.458333 0,-0.208333 -0.312499,-0.437499 -0.3125,-0.25 -0.854165,-0.25 z m 0.958332,8.2708201 q 0.458332,0 0.875002,-0.1249998 0.4375,-0.1458331 0.75,-0.3749994 0.33333,-0.2291663 0.52083,-0.5208325 0.1875,-0.3124995 0.1875,-0.6458323 0,-0.3333328 -0.1875,-0.6458323 -0.1875,-0.3124995 -0.52083,-0.5416658 -0.3125,-0.2291663 -0.75,-0.3541661 -0.41667,-0.1458331 -0.875002,-0.1458331 h -0.375 -0.04167 -0.541666 v 3.3541613 z"
           style="font-size:20.8333px;font-family:TheBoldFont;fill:#d8ba3c"
           id="path543" /><path
           d="m 115.37455,0 h -9.10416 v -15.312475 h 3.52083 v 11.7916474 h 5.58333 z"
           style="font-size:20.8333px;font-family:TheBoldFont;fill:#d8ba3c"
           id="path545" /><path
           d="m 120.33285,0 h -3.52083 v -15.312475 h 3.52083 z"
           style="font-size:20.8333px;font-family:TheBoldFont;fill:#d8ba3c"
           id="path547" /><path
           d="m 129.02031,-15.312475 q 1.58333,0 2.97916,0.604165 1.39583,0.604166 2.4375,1.645831 1.04166,1.020832 1.64583,2.416663 0.60416,1.395831 0.60416,2.9791617 0,1.5833308 -0.60416,2.9791619 -0.60417,1.3958311 -1.64583,2.437496 -1.04167,1.0208317 -2.4375,1.62499741 -1.39583,0.60416569 -2.97916,0.60416569 -1.58333,0 -2.97916,-0.60416569 -1.39583,-0.60416571 -2.4375,-1.62499741 -1.02083,-1.0416649 -1.625,-2.437496 -0.60416,-1.3958311 -0.60416,-2.9791619 0,-1.5833307 0.60416,-2.9791617 0.60417,-1.395831 1.625,-2.416663 1.04167,-1.041665 2.4375,-1.645831 1.39583,-0.604165 2.97916,-0.604165 z m 0,11.7708141 q 0.85417,0 1.60416,-0.3124995 0.75,-0.3333328 1.3125,-0.8958319 0.5625,-0.5624991 0.875,-1.3124979 0.33333,-0.7499988 0.33333,-1.6041641 0,-0.8541653 -0.33333,-1.604164 -0.3125,-0.7499987 -0.875,-1.3124977 -0.5625,-0.562499 -1.3125,-0.874999 -0.74999,-0.333333 -1.60416,-0.333333 -0.85417,0 -1.60416,0.333333 -0.75,0.3125 -1.3125,0.874999 -0.5625,0.562499 -0.89583,1.3124977 -0.3125,0.7499987 -0.3125,1.604164 0,0.8541653 0.3125,1.6041641 0.33333,0.7499988 0.89583,1.3124979 0.5625,0.5624991 1.3125,0.8958319 0.74999,0.3124995 1.60416,0.3124995 z"
           style="font-size:20.8333px;font-family:TheBoldFont;fill:#d8ba3c"
           id="path549" /><path
           d="m 146.49942,-15.354142 v 3.541661 h -2.9375 V 0 h -3.52082 v -11.812481 h -2.91667 v -3.541661 z"
           style="font-size:20.8333px;font-family:TheBoldFont;fill:#d8ba3c"
           id="path551" /><path
           d="m 157.5827,-11.770814 h -6.29166 v 2.312496 h 5.10416 v 3.5208276 h -5.10416 v 2.4166628 h 6.29166 V 0 h -9.81248 v -15.270809 l 9.81248,-0.02083 z"
           style="font-size:20.8333px;font-family:TheBoldFont;fill:#d8ba3c"
           id="path553" /><path
           d="m 165.99934,-0.0208333 q -1.47917,0 -2.89583,-0.54166579 -1.39583,-0.56249911 -2.52083,-1.68749731 -1.08333,-1.1041648 -1.66667,-2.4791626 -0.56249,-1.3958311 -0.56249,-2.9374953 0,-1.5624974 0.56249,-2.9374957 0.58334,-1.395831 1.66667,-2.479162 1.125,-1.124998 2.54166,-1.687497 1.41667,-0.5625 2.875,-0.5625 1.47916,0 2.87499,0.5625 1.41667,0.562499 2.54166,1.687497 l -2.47916,2.479162 q -0.60416,-0.604165 -1.375,-0.895831 -0.77083,-0.3125 -1.56249,-0.3125 -0.79167,0 -1.5625,0.3125 -0.75,0.291666 -1.35417,0.895831 -0.58333,0.6041662 -0.89583,1.354165 -0.3125,0.7499987 -0.3125,1.5833307 0,0.833332 0.3125,1.5833308 0.3125,0.7291655 0.89583,1.3333312 0.60417,0.6041657 1.35417,0.9166652 0.77083,0.2916662 1.5625,0.2916662 0.79166,0 1.56249,-0.2916662 0.77084,-0.3124995 1.375,-0.9166652 l 2.47916,2.4999959 q -1.12499,1.1249982 -2.52082,1.68749731 -1.39584,0.54166579 -2.89583,0.54166579 z"
           style="font-size:20.8333px;font-family:TheBoldFont;fill:#d8ba3c"
           id="path555" /><path
           d="m 181.20762,0 -0.60417,-1.8541637 h -4.81249 L 175.16596,0 h -3.72916 l 5.20833,-15.291642 h 3.33333 L 184.91595,0 Z m -4.20833,-5.3749913 h 2.47917 l -1.20833,-3.7083273 z"
           style="font-size:20.8333px;font-family:TheBoldFont;fill:#d8ba3c"
           id="path557" /><path
           d="m 190.49925,0.29166619 q -0.72917,0 -1.45833,-0.20833299 -0.70833,-0.1874997 -1.35417,-0.60416569 -1.125,-0.72916551 -1.74999,-1.87499701 -0.625,-1.1666647 -0.625,-2.5416625 h 3.52082 q 0,0.624999 0.27084,0.9791651 0.27083,0.3333328 0.47916,0.4583326 0.375,0.2499996 0.8125,0.2708329 0.4375,0.020833 0.85417,-0.1666664 0.29166,-0.1249998 0.45833,-0.3124995 0.1875,-0.1874997 0.27083,-0.3541661 0.10417,-0.1874997 0.125,-0.3541661 0.0208,-0.1666664 0.0208,-0.2708329 0,-0.1041665 -0.0208,-0.2708329 -0.0208,-0.1666664 -0.125,-0.3541661 -0.0833,-0.1874997 -0.27083,-0.3541661 -0.16667,-0.1874997 -0.45833,-0.3333328 -0.22917,-0.1041665 -0.5,-0.1874997 -0.25,-0.083333 -0.54167,-0.1874997 -0.52083,-0.1666664 -1.08333,-0.3749994 -0.5625,-0.208333 -1.125,-0.5624991 -0.72916,-0.4583326 -1.22916,-1.1458315 -0.5,-0.6874988 -0.72917,-1.4791642 -0.20833,-0.7916651 -0.14583,-1.6249971 0.0833,-0.854166 0.47917,-1.624998 0.37499,-0.708332 0.93749,-1.229164 0.5625,-0.520833 1.25,-0.812499 0.6875,-0.3125 1.47917,-0.374999 0.79166,-0.0625 1.60416,0.145833 0.79167,0.187499 1.4375,0.604165 0.64583,0.395833 1.10416,0.979165 0.47917,0.5625 0.72917,1.270832 0.25,0.708332 0.25,1.479164 h -3.52083 q 0,-0.479166 -0.3125,-0.666666 -0.29167,-0.187499 -0.52083,-0.249999 -0.0417,0 -0.20834,-0.02083 -0.14583,-0.04167 -0.35416,0 -0.1875,0.02083 -0.39583,0.145833 -0.20834,0.104166 -0.33334,0.354166 -0.16666,0.333332 -0.0625,0.708332 0.10417,0.354166 0.41667,0.562499 0.29167,0.166666 0.64583,0.3124995 0.35417,0.1249998 0.75,0.2499996 0.35417,0.1041665 0.70833,0.2291663 0.375,0.1249998 0.75,0.2916662 1.375,0.6249989 2.14583,1.8333303 0.79167,1.2083314 0.79167,2.6874957 0,1.458331 -0.79167,2.6666623 -0.77083,1.20833141 -2.14583,1.8333304 -0.54166,0.2499996 -1.10416,0.3541661 -0.5625,0.12499979 -1.125,0.12499979 z"
           style="font-size:20.8333px;font-family:TheBoldFont;fill:#d8ba3c"
           id="path559" /><path
           d="m 7.645821,21.979167 q -1.4791643,0 -2.8958287,-0.541666 Q 3.3541612,20.875002 2.2291631,19.750004 1.1458315,18.645839 0.56249909,17.270841 0,15.87501 0,14.333346 0,12.770848 0.56249909,11.39585 1.1458315,10.000019 2.2291631,8.9166878 3.3541612,7.7916896 4.7708256,7.2291906 6.18749,6.6666915 7.645821,6.6666915 q 1.4791642,0 2.874995,0.5624991 1.416665,0.562499 2.541663,1.6874972 L 10.583316,11.39585 q -0.6041655,-0.604165 -1.3749976,-0.895831 -0.770832,-0.3125 -1.5624974,-0.3125 -0.7916654,0 -1.5624975,0.3125 -0.7499988,0.291666 -1.3541645,0.895831 -0.5833324,0.604166 -0.8958319,1.354165 -0.3124995,0.749999 -0.3124995,1.583331 0,0.833332 0.3124995,1.583331 0.3124995,0.729165 0.8958319,1.333331 0.6041657,0.604165 1.3541645,0.916665 0.7708321,0.291666 1.5624975,0.291666 0.7916654,0 1.5624974,-0.291666 0.7708321,-0.3125 1.3749976,-0.916665 l 2.479163,2.499996 q -1.124998,1.124998 -2.520829,1.687497 -1.3958315,0.541666 -2.895829,0.541666 z"
           style="font-size:20.8333px;font-family:TheBoldFont;fill:#d8ba3c"
           id="path561" /><path
           d="m 20.708277,6.6875248 q 1.583331,0 2.979162,0.6041657 1.395831,0.6041656 2.437496,1.6458306 1.041665,1.0208317 1.645831,2.4166629 0.604165,1.395831 0.604165,2.979162 0,1.583331 -0.604165,2.979162 -0.604166,1.395831 -1.645831,2.437496 -1.041665,1.020831 -2.437496,1.624997 -1.395831,0.604166 -2.979162,0.604166 -1.583331,0 -2.979162,-0.604166 -1.395831,-0.604166 -2.437496,-1.624997 -1.020831,-1.041665 -1.624997,-2.437496 -0.604166,-1.395831 -0.604166,-2.979162 0,-1.583331 0.604166,-2.979162 0.604166,-1.3958312 1.624997,-2.4166629 1.041665,-1.041665 2.437496,-1.6458306 1.395831,-0.6041657 2.979162,-0.6041657 z m 0,11.7708142 q 0.854165,0 1.604164,-0.312499 0.749999,-0.333333 1.312498,-0.895832 0.562499,-0.562499 0.874999,-1.312498 0.333332,-0.749999 0.333332,-1.604164 0,-0.854166 -0.333332,-1.604164 -0.3125,-0.749999 -0.874999,-1.312498 -0.562499,-0.562499 -1.312498,-0.874999 -0.749999,-0.333333 -1.604164,-0.333333 -0.854165,0 -1.604164,0.333333 -0.749999,0.3125 -1.312498,0.874999 -0.562499,0.562499 -0.895832,1.312498 -0.312499,0.749998 -0.312499,1.604164 0,0.854165 0.312499,1.604164 0.333333,0.749999 0.895832,1.312498 0.562499,0.562499 1.312498,0.895832 0.749999,0.312499 1.604164,0.312499 z"
           style="font-size:20.8333px;font-family:TheBoldFont;fill:#d8ba3c"
           id="path563" /><path
           d="m 39.624886,6.6875248 h 3.624995 L 44.145712,22 h -3.520827 l -0.375,-6.24999 L 38.124889,22 H 34.604061 L 32.354065,15.500011 31.937399,22 H 28.395738 L 29.374903,6.6875248 h 3.624994 l 3.354161,9.5833182 z"
           style="font-size:20.8333px;font-family:TheBoldFont;fill:#d8ba3c"
           id="path565" /><path
           d="m 51.02069,22 q -1.166665,0 -2.20833,-0.416666 -1.041665,-0.437499 -1.854163,-1.229165 -0.833332,-0.833332 -1.291665,-1.874997 -0.437499,-1.041665 -0.458333,-2.229163 V 6.6875248 h 3.520828 v 9.5416512 q 0,0.916665 0.687499,1.604164 0.687499,0.645832 1.624997,0.645832 0.458333,0 0.874999,-0.187499 0.416666,-0.1875 0.729165,-0.5 0.3125,-0.312499 0.479166,-0.729165 0.166667,-0.416666 0.166667,-0.895832 V 6.6875248 h 3.520827 v 9.4583182 q 0.02083,1.187498 -0.437499,2.249996 -0.437499,1.062498 -1.229165,1.854164 -0.770832,0.791665 -1.83333,1.270831 Q 52.270688,21.979167 51.08319,22 Z"
           style="font-size:20.8333px;font-family:TheBoldFont;fill:#d8ba3c"
           id="path567" /><path
           d="m 67.728975,6.7083581 h 3.520828 V 22 H 67.437309 L 62.437317,13.083348 V 22 H 58.91649 V 6.7500247 h 3.833327 l 4.979158,8.8958193 z"
           style="font-size:20.8333px;font-family:TheBoldFont;fill:#d8ba3c"
           id="path569" /><path
           d="M 76.708115,22 H 73.187287 V 6.6875248 h 3.520828 z"
           style="font-size:20.8333px;font-family:TheBoldFont;fill:#d8ba3c"
           id="path571" /><path
           d="M 87.562248,6.6458582 V 10.187519 H 84.624752 V 22 H 81.103925 V 10.187519 H 78.187263 V 6.6458582 Z"
           style="font-size:20.8333px;font-family:TheBoldFont;fill:#d8ba3c"
           id="path573" /><path
           d="M 97.791356,22 97.18719,20.145836 H 92.374698 L 91.749699,22 H 88.020538 L 93.20803,6.7083581 h 3.354161 L 101.49968,22 Z m -4.208327,-5.374991 h 2.45833 L 94.853861,12.916681 Z M 93.478863,5.4375268 95.16636,1.9166992 h 3.166662 l -1.687498,3.5208276 z"
           style="font-size:20.8333px;font-family:TheBoldFont;fill:#d8ba3c"
           id="path575" /><path
           d="m 107.16633,18.041673 q -0.27083,0.04167 -0.54167,0.0625 -0.27083,0.02083 -0.5625,0.04167 V 22 h -3.52082 V 6.7500247 h 3.52082 q 1.3125,0.020833 2.45833,0.4791659 1.14584,0.4583325 2,1.2291646 0.875,0.7708321 1.35417,1.7916638 0.49999,1.020832 0.49999,2.187496 0,1.229165 -0.52083,2.291663 -0.52083,1.041665 -1.45833,1.812497 L 113.77049,22 h -4.14583 z m -1.10417,-3.437494 q 0.5625,-0.02083 1.0625,-0.1875 0.52084,-0.1875 0.89583,-0.479166 0.39584,-0.291666 0.60417,-0.666666 0.22917,-0.395832 0.22917,-0.833332 0,-0.437499 -0.22917,-0.812498 -0.20833,-0.375 -0.60417,-0.666666 -0.37499,-0.291666 -0.89583,-0.458332 -0.5,-0.1875 -1.0625,-0.208333 z"
           style="font-size:20.8333px;font-family:TheBoldFont;fill:#d8ba3c"
           id="path577" /><path
           d="m 118.83295,22 h -3.52082 V 6.6875248 h 3.52082 z"
           style="font-size:20.8333px;font-family:TheBoldFont;fill:#d8ba3c"
           id="path579" /><path
           d="m 129.66625,22 -0.60416,-1.854164 H 124.2496 L 123.6246,22 h -3.72916 l 5.20832,-15.2916419 h 3.33333 L 133.37458,22 Z m -4.20832,-5.374991 h 2.47916 l -1.20833,-3.708328 z"
           style="font-size:20.8333px;font-family:TheBoldFont;fill:#d8ba3c"
           id="path581" /><path
           d="m 138.95788,22.291666 q -0.72916,0 -1.45833,-0.208333 -0.70833,-0.187499 -1.35416,-0.604165 -1.125,-0.729166 -1.75,-1.874997 -0.625,-1.166665 -0.625,-2.541663 h 3.52083 q 0,0.624999 0.27083,0.979165 0.27083,0.333333 0.47917,0.458333 0.375,0.249999 0.8125,0.270833 0.43749,0.02083 0.85416,-0.166667 0.29167,-0.125 0.45833,-0.312499 0.1875,-0.1875 0.27084,-0.354166 0.10416,-0.1875 0.125,-0.354167 0.0208,-0.166666 0.0208,-0.270832 0,-0.104167 -0.0208,-0.270833 -0.0208,-0.166667 -0.125,-0.354166 -0.0833,-0.1875 -0.27084,-0.354167 -0.16666,-0.187499 -0.45833,-0.333332 -0.22917,-0.104167 -0.5,-0.1875 -0.25,-0.08333 -0.54166,-0.1875 -0.52084,-0.166666 -1.08334,-0.374999 -0.5625,-0.208333 -1.12499,-0.562499 -0.72917,-0.458333 -1.22917,-1.145832 -0.5,-0.687499 -0.72916,-1.479164 -0.20834,-0.791665 -0.14584,-1.624997 0.0833,-0.8541656 0.47917,-1.6249977 0.375,-0.7083322 0.9375,-1.2291646 0.5625,-0.5208325 1.24999,-0.8124987 0.6875,-0.3124995 1.47917,-0.3749994 0.79166,-0.0625 1.60416,0.1458331 0.79167,0.1874997 1.4375,0.6041657 0.64583,0.3958327 1.10417,0.979165 0.47916,0.5624991 0.72916,1.2708313 0.25,0.7083323 0.25,1.4791643 h -3.52083 q 0,-0.479166 -0.3125,-0.666666 -0.29166,-0.187499 -0.52083,-0.2499992 -0.0417,0 -0.20833,-0.020833 -0.14583,-0.041667 -0.35417,0 -0.1875,0.020833 -0.39583,0.1458332 -0.20833,0.104166 -0.33333,0.354166 -0.16667,0.333332 -0.0625,0.708332 0.10416,0.354166 0.41666,0.562499 0.29167,0.166666 0.64584,0.312499 0.35416,0.125 0.74999,0.25 0.35417,0.104167 0.70834,0.229166 0.375,0.125 0.74999,0.291667 1.375,0.624999 2.14583,1.83333 0.79167,1.208331 0.79167,2.687496 0,1.458331 -0.79167,2.666662 -0.77083,1.208331 -2.14583,1.83333 -0.54166,0.25 -1.10416,0.354166 -0.5625,0.125 -1.125,0.125 z"
           style="font-size:20.8333px;font-family:TheBoldFont;fill:#d8ba3c"
           id="path583" /></g><g
         aria-label="Projeto"
         transform="translate(104.0527,19.9883)"
         id="text2282"
         style="font-size:12px;font-family:Arial-BoldItalicMT"><path
           d="m 2.3613281,-7.7753906 v 3.2871094 h 1.4882813 q 0.8261718,0 1.2773437,-0.4277344 0.4511719,-0.4277344 0.4511719,-1.21875 0,-0.7851563 -0.4511719,-1.2128906 Q 4.6757812,-7.7753906 3.8496094,-7.7753906 Z M 1.1777344,-8.7480469 h 2.671875 q 1.4707031,0 2.2207031,0.6679688 0.7558594,0.6621094 0.7558594,1.9453125 0,1.2949219 -0.7558594,1.9570312 -0.75,0.6621094 -2.2207031,0.6621094 H 2.3613281 V 0 H 1.1777344 Z"
           style="font-size:12px;font-family:Arial-BoldItalicMT"
           id="path586" /><path
           d="m 11.958984,-5.5546875 q -0.18164,-0.1054687 -0.398437,-0.1523437 -0.210938,-0.052734 -0.46875,-0.052734 -0.914063,0 -1.4062501,0.5976562 -0.4863281,0.5917969 -0.4863281,1.7050781 V 0 H 8.1152344 v -6.5625 h 1.0839844 v 1.0195313 q 0.3398437,-0.5976563 0.8847652,-0.8847657 0.544922,-0.2929687 1.324219,-0.2929687 0.111328,0 0.246094,0.017578 0.134766,0.011719 0.298828,0.041016 z"
           style="font-size:12px;font-family:Arial-BoldItalicMT"
           id="path588" /><path
           d="m 15.369141,-5.8066406 q -0.867188,0 -1.371094,0.6796875 -0.503906,0.6738281 -0.503906,1.8515625 0,1.1777343 0.498047,1.8574219 0.503906,0.67382808 1.376953,0.67382808 0.861328,0 1.365234,-0.67968748 0.503906,-0.6796875 0.503906,-1.8515625 0,-1.1660156 -0.503906,-1.8457031 -0.503906,-0.6855469 -1.365234,-0.6855469 z m 0,-0.9140625 q 1.40625,0 2.208984,0.9140625 0.802734,0.9140625 0.802734,2.53125 0,1.6113281 -0.802734,2.53124998 -0.802734,0.91406249 -2.208984,0.91406249 -1.41211,0 -2.214844,-0.91406249 -0.796875,-0.91992188 -0.796875,-2.53124998 0,-1.6171875 0.796875,-2.53125 0.802734,-0.9140625 2.214844,-0.9140625 z"
           style="font-size:12px;font-family:Arial-BoldItalicMT"
           id="path590" /><path
           d="m 20.167969,-6.5625 h 1.078125 v 6.6796875 q 0,1.2539062 -0.480469,1.8164062 -0.474609,0.5625001 -1.535156,0.5625001 H 18.820312 V 1.5820312 h 0.28711 q 0.615234,0 0.83789,-0.2871093 0.222657,-0.28125 0.222657,-1.1777344 z m 0,-2.5546875 h 1.078125 v 1.3652344 h -1.078125 z"
           style="font-size:12px;font-family:Arial-BoldItalicMT"
           id="path592" /><path
           d="m 29.115234,-3.5507813 v 0.5273438 h -4.957031 q 0.07031,1.1132813 0.667969,1.6992188 0.603515,0.58007808 1.675781,0.58007808 0.621094,0 1.201172,-0.15234376 0.585937,-0.15234372 1.160156,-0.45703122 v 1.01953122 q -0.580078,0.24609376 -1.189453,0.375 -0.609375,0.12890625 -1.236328,0.12890625 -1.570313,0 -2.490234,-0.91406249 -0.914063,-0.91406248 -0.914063,-2.47265628 0,-1.6113281 0.867188,-2.5546875 0.873046,-0.9492187 2.349609,-0.9492187 1.324219,0 2.091797,0.8554687 0.773437,0.8496094 0.773437,2.3144531 z m -1.078125,-0.3164062 q -0.01172,-0.8847656 -0.498047,-1.4121094 -0.480468,-0.5273437 -1.277343,-0.5273437 -0.902344,0 -1.447266,0.5097656 -0.539062,0.5097656 -0.621094,1.4355469 z"
           style="font-size:12px;font-family:Arial-BoldItalicMT"
           id="path594" /><path
           d="M 31.951172,-8.4257813 V -6.5625 h 2.220703 v 0.8378906 h -2.220703 v 3.5625 q 0,0.8027344 0.216797,1.03125 0.222656,0.22851565 0.896484,0.22851565 h 1.107422 V 0 h -1.107422 q -1.248047,0 -1.722656,-0.46289063 -0.47461,-0.46875 -0.47461,-1.69921877 v -3.5625 H 30.076172 V -6.5625 h 0.791015 v -1.8632813 z"
           style="font-size:12px;font-family:Arial-BoldItalicMT"
           id="path596" /><path
           d="m 38.132812,-5.8066406 q -0.867187,0 -1.371093,0.6796875 -0.503907,0.6738281 -0.503907,1.8515625 0,1.1777343 0.498047,1.8574219 0.503907,0.67382808 1.376953,0.67382808 0.861329,0 1.365235,-0.67968748 0.503906,-0.6796875 0.503906,-1.8515625 0,-1.1660156 -0.503906,-1.8457031 -0.503906,-0.6855469 -1.365235,-0.6855469 z m 0,-0.9140625 q 1.40625,0 2.208985,0.9140625 0.802734,0.9140625 0.802734,2.53125 0,1.6113281 -0.802734,2.53124998 -0.802735,0.91406249 -2.208985,0.91406249 -1.412109,0 -2.214843,-0.91406249 -0.796875,-0.91992188 -0.796875,-2.53124998 0,-1.6171875 0.796875,-2.53125 0.802734,-0.9140625 2.214843,-0.9140625 z"
           style="font-size:12px;font-family:Arial-BoldItalicMT"
           id="path598" /></g><g
         aria-label="Presidente Figueiredo - AM"
         transform="translate(104.0527,80.1631)"
         id="text2284"
         style="font-size:15.1004px;font-family:Arial-BoldMT"><path
           d="m 2.9714166,-9.7842924 v 4.1363889 h 1.8728035 q 1.0396272,0 1.6073668,-0.5382467 0.5677396,-0.5382467 0.5677396,-1.5336344 0,-0.9880144 -0.5677396,-1.5262611 Q 5.8838473,-9.7842924 4.8442201,-9.7842924 Z M 1.4820217,-11.008251 h 3.3621984 q 1.8506838,0 2.7944588,0.84055 0.9511482,0.8331764 0.9511482,2.4479164 0,1.6294866 -0.9511482,2.4626629 -0.943775,0.8331764 -2.7944588,0.8331764 H 2.9714166 V 0 H 1.4820217 Z"
           style="font-size:15.1004px;font-family:Arial-BoldMT"
           id="path601" /><path
           d="m 15.048787,-6.9898336 q -0.228571,-0.1327183 -0.501381,-0.1917043 -0.265436,-0.066359 -0.589859,-0.066359 -1.150226,0 -1.769578,0.7520707 -0.611979,0.7446975 -0.611979,2.1456135 V 0 h -1.36405 v -8.2580312 h 1.36405 v 1.2829441 q 0.427648,-0.7520707 1.113359,-1.1133596 0.685712,-0.3686621 1.666353,-0.3686621 0.140092,0 0.309676,0.02212 0.169585,0.014746 0.376036,0.051613 z"
           style="font-size:15.1004px;font-family:Arial-BoldMT"
           id="path603" /><path
           d="M 23.203593,-4.4681848 V -3.804593 H 16.96583 q 0.08848,1.4009161 0.84055,2.1382403 0.759444,0.72995094 2.108747,0.72995094 0.781564,0 1.511515,-0.19170434 0.737324,-0.1917042 1.459902,-0.5751128 v 1.2829441 q -0.729951,0.30967617 -1.496768,0.4718875 -0.766818,0.16221132 -1.555755,0.16221132 -1.976028,0 -3.133627,-1.15022578 -1.150226,-1.15022574 -1.150226,-3.11150824 0,-2.0276416 1.09124,-3.2147335 1.098613,-1.1944653 2.95667,-1.1944653 1.666352,0 2.632247,1.0764934 0.973268,1.0691201 0.973268,2.9124306 z m -1.356676,-0.398155 q -0.01475,-1.1133596 -0.626726,-1.7769514 -0.604606,-0.6635918 -1.607367,-0.6635918 -1.135479,0 -1.821191,0.6414721 -0.678338,0.641472 -0.781563,1.8064443 z"
           style="font-size:15.1004px;font-family:Arial-BoldMT"
           id="path605" /><path
           d="m 30.694807,-8.0147142 v 1.2829441 q -0.575113,-0.2949297 -1.194465,-0.4423945 -0.619352,-0.1474649 -1.282944,-0.1474649 -1.010134,0 -1.518888,0.3096762 -0.501381,0.3096762 -0.501381,0.9290285 0,0.4718875 0.361289,0.7446975 0.361289,0.2654367 1.452529,0.5087537 l 0.464514,0.1032254 q 1.445156,0.3096761 2.049762,0.8774158 0.611979,0.5603664 0.611979,1.5705006 0,1.1502257 -0.914282,1.82119079 -0.906909,0.67096503 -2.499529,0.67096503 -0.663592,0 -1.38617,-0.13271836 -0.715204,-0.12534511 -1.511515,-0.38340859 V -1.7032189 q 0.752071,0.3907818 1.482022,0.5898593 0.729951,0.19170433 1.445156,0.19170433 0.958521,0 1.474648,-0.32442263 0.516127,-0.3317959 0.516127,-0.9290285 0,-0.5529932 -0.376035,-0.8479229 -0.368663,-0.2949297 -1.629487,-0.5677396 L 27.26625,-3.7013676 q -1.260825,-0.2654367 -1.821191,-0.8110566 -0.560367,-0.5529932 -0.560367,-1.5115147 0,-1.1649722 0.825803,-1.799071 0.825804,-0.6340989 2.344691,-0.6340989 0.752071,0 1.415663,0.1105987 0.663592,0.1105986 1.223958,0.3317959 z"
           style="font-size:15.1004px;font-family:Arial-BoldMT"
           id="path607" /><path
           d="m 33.297561,-8.2580312 h 1.356676 V 0 h -1.356676 z m 0,-3.2147338 h 1.356676 v 1.7179656 h -1.356676 z"
           style="font-size:15.1004px;font-family:Arial-BoldMT"
           id="path609" /><path
           d="m 42.927016,-7.0045801 v -4.4681849 h 1.356676 V 0 h -1.356676 v -1.2387047 q -0.427648,0.73732423 -1.083867,1.0986131 -0.648845,0.35391562 -1.563127,0.35391562 -1.496768,0 -2.440543,-1.19446523 -0.936402,-1.19446519 -0.936402,-3.14100119 0,-1.9465359 0.936402,-3.1410011 0.943775,-1.1944653 2.440543,-1.1944653 0.914282,0 1.563127,0.3612889 0.656219,0.3539156 1.083867,1.0912398 z m -4.623023,2.8829377 q 0,1.4967682 0.611979,2.3520643 0.619352,0.84792283 1.695846,0.84792283 1.076493,0 1.695845,-0.84792283 0.619353,-0.8552961 0.619353,-2.3520643 0,-1.4967681 -0.619353,-2.344691 -0.619352,-0.8552961 -1.695845,-0.8552961 -1.076494,0 -1.695846,0.8552961 -0.611979,0.8479229 -0.611979,2.344691 z"
           style="font-size:15.1004px;font-family:Arial-BoldMT"
           id="path611" /><path
           d="m 54.141715,-4.4681848 v 0.6635918 h -6.237763 q 0.08848,1.4009161 0.84055,2.1382403 0.759444,0.72995094 2.108747,0.72995094 0.781564,0 1.511515,-0.19170434 0.737324,-0.1917042 1.459902,-0.5751128 v 1.2829441 q -0.729951,0.30967617 -1.496769,0.4718875 -0.766817,0.16221132 -1.555754,0.16221132 -1.976029,0 -3.133628,-1.15022578 Q 46.48829,-2.0866275 46.48829,-4.04791 q 0,-2.0276416 1.091239,-3.2147335 1.098614,-1.1944653 2.956671,-1.1944653 1.666352,0 2.632247,1.0764934 0.973268,1.0691201 0.973268,2.9124306 z m -1.356677,-0.398155 q -0.01475,-1.1133596 -0.626725,-1.7769514 -0.604606,-0.6635918 -1.607367,-0.6635918 -1.135479,0 -1.821191,0.6414721 -0.678338,0.641472 -0.781563,1.8064443 z"
           style="font-size:15.1004px;font-family:Arial-BoldMT"
           id="path613" /><path
           d="M 63.232924,-4.9843117 V 0 h -1.356676 v -4.9400723 q 0,-1.1723455 -0.457141,-1.7548316 -0.457141,-0.5824861 -1.371423,-0.5824861 -1.098613,0 -1.732712,0.700458 -0.634099,0.700458 -0.634099,1.9096697 V 0 h -1.36405 v -8.2580312 h 1.36405 v 1.2829441 q 0.486634,-0.7446975 1.142853,-1.1133596 0.663591,-0.3686621 1.526261,-0.3686621 1.423035,0 2.152986,0.8847891 0.729951,0.8774158 0.729951,2.588008 z"
           style="font-size:15.1004px;font-family:Arial-BoldMT"
           id="path615" /><path
           d="m 67.280835,-10.602722 v 2.3446908 h 2.794459 v 1.0543736 h -2.794459 v 4.4829312 q 0,1.0101342 0.27281,1.2976907 0.280183,0.2875564 1.128106,0.2875564 h 1.393543 V 0 H 68.681751 Q 67.11125,0 66.514018,-0.58248613 65.916785,-1.1723455 65.916785,-2.7207264 v -4.4829312 h -0.995388 v -1.0543736 h 0.995388 v -2.3446908 z"
           style="font-size:15.1004px;font-family:Arial-BoldMT"
           id="path617" /><path
           d="m 78.923186,-4.4681848 v 0.6635918 h -6.237763 q 0.08848,1.4009161 0.84055,2.1382403 0.759444,0.72995094 2.108747,0.72995094 0.781564,0 1.511515,-0.19170434 0.737324,-0.1917042 1.459902,-0.5751128 v 1.2829441 q -0.729951,0.30967617 -1.496768,0.4718875 -0.766818,0.16221132 -1.555754,0.16221132 -1.976029,0 -3.133628,-1.15022578 -1.150226,-1.15022574 -1.150226,-3.11150824 0,-2.0276416 1.09124,-3.2147335 1.098613,-1.1944653 2.95667,-1.1944653 1.666353,0 2.632247,1.0764934 0.973268,1.0691201 0.973268,2.9124306 z m -1.356676,-0.398155 q -0.01475,-1.1133596 -0.626726,-1.7769514 -0.604606,-0.6635918 -1.607367,-0.6635918 -1.135479,0 -1.821191,0.6414721 -0.678338,0.641472 -0.781563,1.8064443 z"
           style="font-size:15.1004px;font-family:Arial-BoldMT"
           id="path619" /><path
           d="m 86.00887,-11.008251 h 6.326241 v 1.2534516 h -4.836847 v 3.2442266 h 4.36496 v 1.2534511 h -4.36496 V 0 H 86.00887 Z"
           style="font-size:15.1004px;font-family:Arial-BoldMT"
           id="path621" /><path
           d="m 93.53695,-8.2580312 h 1.356677 V 0 H 93.53695 Z m 0,-3.2147338 h 1.356677 v 1.7179656 H 93.53695 Z"
           style="font-size:15.1004px;font-family:Arial-BoldMT"
           id="path623" /><path
           d="m 103.1664,-4.2248678 q 0,-1.4746484 -0.61198,-2.285705 -0.6046,-0.8110567 -1.70321,-0.8110567 -1.091245,0 -1.703224,0.8110567 -0.604606,0.8110566 -0.604606,2.285705 0,1.4672752 0.604606,2.2783319 0.611979,0.8110566 1.703224,0.8110566 1.09861,0 1.70321,-0.8110566 0.61198,-0.8110567 0.61198,-2.2783319 z m 1.35668,3.1999871 q 0,2.1087473 -0.9364,3.133628 -0.9364,1.0322539 -2.86819,1.0322539 -0.71521,0 -1.349306,-0.1105987 Q 98.735085,2.9271771 98.137852,2.7059799 V 1.3861695 q 0.597233,0.3244227 1.179719,0.4792608 0.582486,0.1548381 1.187089,0.1548381 1.33456,0 1.99815,-0.7004581 0.66359,-0.69308472 0.66359,-2.10137397 V -1.4525287 q -0.42027,0.72995097 -1.07649,1.09123983 Q 101.43369,0 100.51941,0 q -1.518889,0 -2.447917,-1.157599 -0.929029,-1.157599 -0.929029,-3.0672688 0,-1.9170429 0.929029,-3.074642 0.929028,-1.157599 2.447917,-1.157599 0.91428,0 1.5705,0.3612889 0.65622,0.3612889 1.07649,1.0912398 v -1.2534511 h 1.35668 z"
           style="font-size:15.1004px;font-family:Arial-BoldMT"
           id="path625" /><path
           d="m 107.17744,-3.258973 v -4.9990582 h 1.35668 v 4.9474455 q 0,1.1723455 0.45714,1.7622048 0.45714,0.58248618 1.37143,0.58248618 1.09861,0 1.73271,-0.70045798 0.64147,-0.700458 0.64147,-1.9096698 v -4.6820087 h 1.35668 V 0 h -1.35668 v -1.2681977 q -0.49401,0.75207075 -1.15023,1.12073286 -0.64884,0.36128886 -1.51151,0.36128886 -1.42304,0 -2.16036,-0.88478906 -0.73733,-0.88478906 -0.73733,-2.58800796 z m 3.41382,-5.1981358 z"
           style="font-size:15.1004px;font-family:Arial-BoldMT"
           id="path627" /><path
           d="m 123.95158,-4.4681848 v 0.6635918 h -6.23777 q 0.0885,1.4009161 0.84055,2.1382403 0.75945,0.72995094 2.10875,0.72995094 0.78156,0 1.51151,-0.19170434 0.73733,-0.1917042 1.45991,-0.5751128 v 1.2829441 q -0.72996,0.30967617 -1.49677,0.4718875 -0.76682,0.16221132 -1.55576,0.16221132 -1.97603,0 -3.13362,-1.15022578 -1.15023,-1.15022574 -1.15023,-3.11150824 0,-2.0276416 1.09124,-3.2147335 1.09861,-1.1944653 2.95667,-1.1944653 1.66635,0 2.63225,1.0764934 0.97327,1.0691201 0.97327,2.9124306 z m -1.35668,-0.398155 q -0.0147,-1.1133596 -0.62673,-1.7769514 -0.6046,-0.6635918 -1.60736,-0.6635918 -1.13548,0 -1.82119,0.6414721 -0.67834,0.641472 -0.78157,1.8064443 z"
           style="font-size:15.1004px;font-family:Arial-BoldMT"
           id="path629" /><path
           d="m 126.17829,-8.2580312 h 1.35668 V 0 h -1.35668 z m 0,-3.2147338 h 1.35668 v 1.7179656 h -1.35668 z"
           style="font-size:15.1004px;font-family:Arial-BoldMT"
           id="path631" /><path
           d="m 135.15891,-6.9898336 q -0.22857,-0.1327183 -0.50138,-0.1917043 -0.26544,-0.066359 -0.58986,-0.066359 -1.15023,0 -1.76958,0.7520707 -0.61198,0.7446975 -0.61198,2.1456135 V 0 h -1.36405 v -8.2580312 h 1.36405 v 1.2829441 q 0.42765,-0.7520707 1.11336,-1.1133596 0.68571,-0.3686621 1.66635,-0.3686621 0.14009,0 0.30968,0.02212 0.16958,0.014746 0.37603,0.051613 z"
           style="font-size:15.1004px;font-family:Arial-BoldMT"
           id="path633" /><path
           d="m 143.3137,-4.4681848 v 0.6635918 h -6.23776 q 0.0885,1.4009161 0.84055,2.1382403 0.75945,0.72995094 2.10875,0.72995094 0.78156,0 1.51151,-0.19170434 0.73733,-0.1917042 1.4599,-0.5751128 v 1.2829441 q -0.72995,0.30967617 -1.49676,0.4718875 -0.76682,0.16221132 -1.55576,0.16221132 -1.97603,0 -3.13363,-1.15022578 -1.15022,-1.15022574 -1.15022,-3.11150824 0,-2.0276416 1.09124,-3.2147335 1.09861,-1.1944653 2.95667,-1.1944653 1.66635,0 2.63225,1.0764934 0.97326,1.0691201 0.97326,2.9124306 z m -1.35667,-0.398155 q -0.0147,-1.1133596 -0.62673,-1.7769514 -0.6046,-0.6635918 -1.60736,-0.6635918 -1.13548,0 -1.8212,0.6414721 -0.67833,0.641472 -0.78156,1.8064443 z"
           style="font-size:15.1004px;font-family:Arial-BoldMT"
           id="path635" /><path
           d="m 150.9745,-7.0045801 v -4.4681849 h 1.35668 V 0 h -1.35668 v -1.2387047 q -0.42765,0.73732423 -1.08387,1.0986131 -0.64884,0.35391562 -1.56312,0.35391562 -1.49677,0 -2.44055,-1.19446523 -0.9364,-1.19446519 -0.9364,-3.14100119 0,-1.9465359 0.9364,-3.1410011 0.94378,-1.1944653 2.44055,-1.1944653 0.91428,0 1.56312,0.3612889 0.65622,0.3539156 1.08387,1.0912398 z m -4.62302,2.8829377 q 0,1.4967682 0.61198,2.3520643 0.61935,0.84792283 1.69584,0.84792283 1.0765,0 1.69585,-0.84792283 0.61935,-0.8552961 0.61935,-2.3520643 0,-1.4967681 -0.61935,-2.344691 -0.61935,-0.8552961 -1.69585,-0.8552961 -1.07649,0 -1.69584,0.8552961 -0.61198,0.8479229 -0.61198,2.344691 z"
           style="font-size:15.1004px;font-family:Arial-BoldMT"
           id="path637" /><path
           d="m 158.32563,-7.306883 q -1.09124,0 -1.72534,0.8552961 -0.6341,0.8479228 -0.6341,2.3299445 0,1.4820217 0.62673,2.3373178 0.6341,0.84792284 1.73271,0.84792284 1.08387,0 1.71796,-0.85529604 0.6341,-0.8552961 0.6341,-2.3299446 0,-1.4672752 -0.6341,-2.3225713 -0.63409,-0.8626693 -1.71796,-0.8626693 z m 0,-1.1502258 q 1.76958,0 2.77971,1.1502258 1.01014,1.1502258 1.01014,3.1852406 0,2.0276416 -1.01014,3.18524064 -1.01013,1.15022578 -2.77971,1.15022578 -1.77695,0 -2.78709,-1.15022578 -1.00276,-1.15759904 -1.00276,-3.18524064 0,-2.0350148 1.00276,-3.1852406 1.01014,-1.1502258 2.78709,-1.1502258 z"
           style="font-size:15.1004px;font-family:Arial-BoldMT"
           id="path639" /><path
           d="m 168.47858,-4.7409947 h 3.97418 v 1.2092117 h -3.97418 z"
           style="font-size:15.1004px;font-family:Arial-BoldMT"
           id="path641" /><path
           d="m 183.15134,-9.5409754 -2.02027,5.478319 h 4.04791 z m -0.84055,-1.4672756 h 1.68847 L 188.19463,0 h -1.54838 l -1.00276,-2.8239518 H 180.6813 L 179.67854,0 h -1.5705 z"
           style="font-size:15.1004px;font-family:Arial-BoldMT"
           id="path643" /><path
           d="m 189.802,-11.008251 h 2.21934 l 2.80921,7.4912145 2.82395,-7.4912145 h 2.21935 V 0 h -1.45253 v -9.6663205 l -2.8387,7.5502 h -1.49677 l -2.8387,-7.5502 V 0 H 189.802 Z"
           style="font-size:15.1004px;font-family:Arial-BoldMT"
           id="path645" /></g><g
         id="g2324"><g
           id="g2290"><path
             fill="#d3ca32"
             d="m 205.144,9.84 c 0.076,-1.829 3.83,-1.431 5.803,-0.631 2.258,0.916 4.406,1.665 5.965,3.403 0.342,0.382 5.029,5.62 5.029,5.62 0,0 1.039,-2.115 1.266,-2.463 1.592,-2.462 3.796,-3.888 5.894,-4.98 0.872,-0.455 2.868,-0.938 4.453,-1.059 0.528,-0.036 2.047,0.295 2.742,0.587 1.585,0.64 0.516,1.834 -1.544,3.114 -0.774,0.482 -5.464,3.898 -6.187,4.465 -1.662,1.302 -3.641,2.441 -3.641,2.441 l -0.355,1.402 -2.782,2.061 c 0,0 -10.688,-7.748 -11.72,-9.019 -0.722,-0.892 -2.178,-1.835 -2.98,-2.604 -0.576,-0.553 -2.343,-1.22 -1.867,-2.727"
             id="path2286" /><path
             fill="#010002"
             d="m 221.787,23.91 -0.054,-0.038 c -0.436,-0.316 -10.71,-7.77 -11.735,-9.035 -0.432,-0.531 -1.126,-1.081 -1.799,-1.613 -0.439,-0.346 -0.855,-0.675 -1.175,-0.981 -0.126,-0.121 -0.311,-0.247 -0.526,-0.395 -0.657,-0.45 -1.535,-1.049 -1.442,-2.042 0.007,-0.105 0.027,-0.202 0.054,-0.295 0.005,-0.028 0.018,-0.056 0.025,-0.088 l 0.005,0.004 c 0.092,-0.229 0.256,-0.42 0.491,-0.57 1.181,-0.759 3.863,-0.33 5.348,0.271 0.203,0.082 0.406,0.165 0.608,0.245 2.036,0.813 3.958,1.585 5.389,3.181 0.316,0.352 4.302,4.806 4.943,5.526 0.224,-0.456 1.015,-2.051 1.213,-2.356 1.656,-2.562 3.924,-3.97 5.925,-5.013 0.907,-0.472 2.922,-0.947 4.489,-1.063 0.535,-0.041 2.061,0.284 2.782,0.591 0.509,0.205 0.782,0.48 0.814,0.825 0.055,0.631 -0.713,1.428 -2.346,2.444 -0.782,0.488 -5.485,3.914 -6.18,4.46 -1.529,1.2 -3.352,2.274 -3.616,2.431 l -0.354,1.395 z M 205.229,9.844 c -0.063,0.88 0.722,1.416 1.37,1.86 0.22,0.149 0.409,0.28 0.548,0.41 0.313,0.301 0.727,0.629 1.162,0.972 0.676,0.538 1.381,1.094 1.828,1.642 0.973,1.2 10.837,8.375 11.648,8.964 l 2.704,-2.003 0.359,-1.408 0.028,-0.019 c 0.023,-0.011 1.994,-1.151 3.63,-2.436 0.697,-0.543 5.41,-3.979 6.195,-4.47 1.93,-1.199 2.297,-1.9 2.263,-2.277 -0.023,-0.271 -0.262,-0.502 -0.705,-0.679 -0.706,-0.298 -2.192,-0.622 -2.702,-0.58 -1.547,0.113 -3.53,0.584 -4.419,1.046 -1.98,1.032 -4.227,2.427 -5.858,4.951 -0.222,0.342 -1.253,2.434 -1.261,2.455 l -0.057,0.118 -0.09,-0.1 c 0,0 -4.688,-5.238 -5.031,-5.62 -1.401,-1.565 -3.305,-2.329 -5.321,-3.136 -0.202,-0.08 -0.403,-0.161 -0.607,-0.243 -1.448,-0.588 -4.059,-1.016 -5.187,-0.288 -0.23,0.149 -0.383,0.339 -0.451,0.572 -0.024,0.089 -0.039,0.176 -0.047,0.26 0.001,0.004 0.001,0.006 0.001,0.009 z"
             id="path2288" /></g><g
           id="g2294"><path
             fill="#010002"
             d="m 221.976,18.167 -0.265,0.003 c -0.001,-0.036 -0.05,-3.57 -0.15,-4.255 l -0.008,-0.066 c -0.113,-0.777 -0.409,-2.84 -2.298,-5.017 L 219.012,8.55 c -1.297,-1.505 -2.321,-2.695 -4.257,-2.388 l -0.04,-0.261 c 2.08,-0.33 3.145,0.908 4.498,2.477 l 0.24,0.281 c 1.94,2.235 2.247,4.353 2.362,5.15 l 0.009,0.066 c 0.104,0.706 0.15,4.146 0.152,4.292 z"
             id="path2292" /></g><g
           id="g2298"><path
             fill="#010002"
             d="m 221.824,18.294 c -0.01,-0.018 -1.692,-3.749 -3.692,-6.622 -0.993,-1.427 -2.043,-2.096 -2.628,-2.358 -2.762,-1.234 -8.36,-1.657 -8.62,-1.641 L 206.812,7.42 c 0.257,-0.094 5.701,0.2 8.441,1.427 1.6,0.719 2.468,1.665 3.485,3.271 0.227,0.362 3.262,5.942 3.321,6.056 z"
             id="path2296" /></g><g
           id="g2302"><path
             fill="#010002"
             d="m 222.071,18.231 -0.263,0.004 c -0.009,-0.526 0.485,-5.095 1.343,-6.681 1.385,-2.562 5.397,-4.372 5.862,-4.466 0.033,-0.004 0.105,-0.021 0.165,0.027 l -0.169,0.205 0.085,-0.102 -0.015,0.128 c -0.306,0.02 -4.328,1.806 -5.695,4.333 -0.82,1.516 -1.319,6.054 -1.313,6.552 z"
             id="path2300" /></g><g
           id="g2308"><path
             fill="#d3ca32"
             d="m 229.758,7.755 c 0.007,0.306 -0.285,0.557 -0.643,0.563 -0.364,0.008 -0.658,-0.236 -0.665,-0.54 -0.007,-0.307 0.283,-0.557 0.647,-0.564 0.358,-0.007 0.656,0.235 0.661,0.541 z"
             id="path2304" /><path
             fill="#010002"
             d="m 229.116,8.449 c -0.436,0.009 -0.792,-0.292 -0.798,-0.671 -0.006,-0.378 0.342,-0.689 0.774,-0.697 0.432,-0.008 0.792,0.295 0.795,0.672 0.008,0.378 -0.338,0.69 -0.771,0.696 z m -0.018,-1.102 c -0.289,0.004 -0.52,0.195 -0.517,0.43 0.003,0.229 0.244,0.415 0.53,0.409 0.289,-0.003 0.52,-0.196 0.516,-0.428 -0.006,-0.233 -0.243,-0.416 -0.529,-0.411 z"
             id="path2306" /></g><g
           id="g2314"><path
             id="ellipse2310"
             transform="matrix(0.9999,-0.0167,0.0167,0.9999,-0.0792,3.5884)"
             style="fill:#d3ca32"
             d="m 215.641,6.54 a 0.67299998,0.551 0 0 1 -0.673,0.551 0.67299998,0.551 0 0 1 -0.673,-0.551 0.67299998,0.551 0 0 1 0.673,-0.551 0.67299998,0.551 0 0 1 0.673,0.551 z" /><path
             fill="#010002"
             d="m 214.979,7.225 c -0.443,0.005 -0.809,-0.295 -0.816,-0.672 -0.006,-0.378 0.351,-0.692 0.794,-0.698 0.443,-0.008 0.809,0.294 0.815,0.672 0.006,0.376 -0.35,0.69 -0.793,0.698 z m -0.018,-1.106 c -0.298,0.004 -0.538,0.197 -0.533,0.427 0.004,0.233 0.248,0.418 0.549,0.413 0.295,-0.004 0.533,-0.196 0.531,-0.43 -0.004,-0.232 -0.249,-0.416 -0.547,-0.41 z"
             id="path2312" /></g><g
           id="g2318"><path
             fill="#d8ba3c"
             d="m 235.543,12.823 c 0,0 -3.117,2.146 -4.156,2.927 -1.013,0.76 -4.176,3.035 -4.176,3.035 l -2.386,1.518 -0.302,1.373 -2.754,2.017 -6.072,-4.499 -2.409,-1.777 -2.548,-2.054 -1.238,-1.314 -1.412,-1.135 -2.122,-1.694 c 0,0 -0.321,-0.2 -0.489,-0.43 -0.578,-0.788 -0.07,-1.49 -0.07,-1.49 l 4.088,2.389 12.328,10.647 1.676,-1.262 0.143,-1.208 7.327,-5.792 2.514,-2.071 1.934,-1.111 1.189,-0.37 c 0,0 0.483,0.418 0.375,0.774 -0.22,0.706 -1.44,1.527 -1.44,1.527 z"
             id="path2316" /></g><g
           id="g2322"><path
             fill="#010002"
             d="m 221.827,22.458 -0.064,-0.057 c -0.116,-0.111 -1.876,-1.629 -3.913,-3.386 -3.497,-3.023 -7.854,-6.782 -8.011,-6.949 -0.381,-0.412 -3.014,-1.874 -4.006,-2.427 -0.386,-0.213 -0.461,-0.256 -0.48,-0.271 l 0.111,-0.137 -0.056,0.067 0.05,-0.071 c 0.022,0.017 0.216,0.123 0.459,0.26 1.093,0.604 3.65,2.026 4.053,2.46 0.149,0.158 4.683,4.075 7.993,6.935 1.953,1.683 3.526,3.043 3.863,3.336 0.287,-0.231 1.355,-1.021 1.592,-1.192 l 0.142,-1.207 0.028,-0.021 c 0.056,-0.043 5.669,-4.448 6.385,-5.048 2.635,-2.19 5.962,-4.704 6.86,-4.224 l -0.083,0.154 c -0.627,-0.333 -3.054,1.199 -6.667,4.206 -0.691,0.575 -5.919,4.684 -6.358,5.027 l -0.142,1.209 -0.031,0.023 c -0.627,0.458 -1.586,1.171 -1.666,1.253 z"
             id="path2320" /></g></g></g></g></g></svg>
